fiati-regular.ufo
<glyph name="uniE001" format="2">
  <advance width="297"/>
  <unicode hex="E001"/>
  <key>note</key>
  <string>fluteCFoot</string>
  <outline>
    <contour>
      <point x="180" y="42" type="curve" smooth="yes"/>
      <point x="171" y="42"/>
      <point x="166" y="47"/>
      <point x="166" y="54" type="curve" smooth="yes"/>
      <point x="166" y="81" type="line" smooth="yes"/>
      <point x="166" y="87"/>
      <point x="171" y="93"/>
      <point x="178" y="93" type="curve" smooth="yes"/>
      <point x="187" y="93"/>
      <point x="192" y="87"/>
      <point x="192" y="81" type="curve" smooth="yes"/>
      <point x="192" y="54" type="line" smooth="yes"/>
      <point x="192" y="47"/>
      <point x="187" y="42"/>
    </contour>
    <contour>
      <point x="186" y="81" type="line" smooth="yes"/>
      <point x="186" y="84"/>
      <point x="183" y="87"/>
      <point x="178" y="87" type="curve" smooth="yes"/>
      <point x="175" y="87"/>
      <point x="172" y="84"/>
      <point x="172" y="81" type="curve" smooth="yes"/>
      <point x="172" y="54" type="line" smooth="yes"/>
      <point x="172" y="51"/>
      <point x="175" y="48"/>
      <point x="178" y="48" type="curve" smooth="yes"/>
      <point x="183" y="48"/>
      <point x="186" y="51"/>
      <point x="186" y="54" type="curve" smooth="yes"/>
    </contour>
    <contour>
      <point x="156" y="13" type="curve" smooth="yes"/>
      <point x="142" y="19"/>
      <point x="130" y="24"/>
      <point x="118" y="30" type="curve" smooth="yes"/>
      <point x="104" y="38"/>
      <point x="101" y="54"/>
      <point x="101" y="55" type="curve" smooth="yes"/>
      <point x="101" y="74" type="line" smooth="yes"/>
      <point x="101" y="91"/>
      <point x="111" y="93"/>
      <point x="115" y="93" type="curve" smooth="yes"/>
      <point x="141" y="93" type="line" smooth="yes"/>
      <point x="152" y="93"/>
      <point x="158" y="85"/>
      <point x="158" y="72" type="curve" smooth="yes"/>
      <point x="158" y="16" type="line" smooth="yes"/>
      <point x="158" y="14"/>
      <point x="157" y="13"/>
    </contour>
    <contour>
      <point x="107" y="74" type="curve" smooth="yes"/>
      <point x="107" y="55" type="line" smooth="yes"/>
      <point x="107" y="54"/>
      <point x="110" y="41"/>
      <point x="121" y="36" type="curve" smooth="yes"/>
      <point x="153" y="20" type="line"/>
      <point x="153" y="72" type="line"/>
      <point x="153" y="85"/>
      <point x="146" y="87"/>
      <point x="141" y="87" type="curve" smooth="yes"/>
      <point x="115" y="87" type="line" smooth="yes"/>
      <point x="109" y="87"/>
      <point x="107" y="82"/>
    </contour>
    <contour>
      <point x="222" y="0" type="curve" smooth="yes"/>
      <point x="203" y="0" type="line" smooth="yes"/>
      <point x="197" y="0"/>
      <point x="190" y="1"/>
      <point x="185" y="8" type="curve" smooth="yes"/>
      <point x="184" y="11"/>
      <point x="183" y="14"/>
      <point x="183" y="18" type="curve" smooth="yes"/>
      <point x="183" y="22" type="line" smooth="yes"/>
      <point x="185" y="27"/>
      <point x="188" y="31"/>
      <point x="193" y="33" type="curve" smooth="yes"/>
      <point x="194" y="34"/>
      <point x="196" y="34"/>
      <point x="198" y="34" type="curve" smooth="yes"/>
      <point x="203" y="34"/>
      <point x="208" y="32"/>
      <point x="212" y="28" type="curve" smooth="yes"/>
      <point x="215" y="25"/>
      <point x="217" y="21"/>
      <point x="218" y="18" type="curve" smooth="yes"/>
      <point x="222" y="18" type="line" smooth="yes"/>
      <point x="224" y="18"/>
      <point x="225" y="16"/>
      <point x="225" y="15" type="curve" smooth="yes"/>
      <point x="225" y="3" type="line" smooth="yes"/>
      <point x="225" y="1"/>
      <point x="224" y="0"/>
    </contour>
    <contour>
      <point x="198" y="28" type="curve" smooth="yes"/>
      <point x="192" y="26"/>
      <point x="190" y="23"/>
      <point x="189" y="20" type="curve" smooth="yes"/>
      <point x="189" y="16"/>
      <point x="190" y="13"/>
      <point x="191" y="11" type="curve" smooth="yes"/>
      <point x="193" y="7"/>
      <point x="197" y="6"/>
      <point x="203" y="6" type="curve" smooth="yes"/>
      <point x="219" y="6" type="line"/>
      <point x="219" y="12" type="line"/>
      <point x="215" y="12" type="line" smooth="yes"/>
      <point x="214" y="12"/>
      <point x="212" y="13"/>
      <point x="212" y="15" type="curve" smooth="yes"/>
      <point x="212" y="21"/>
      <point x="204" y="28"/>
    </contour>
  </outline>
</glyph>
<glyph name="uniE005" format="2">
  <advance width="0"/>
  <unicode hex="E005"/>
  <key>note</key>
  <string>fluteKingmaSystem</string>
  <outline>
    <contour>
      <point x="110" y="848" type="curve"/>
      <point x="98" y="848"/>
      <point x="92" y="857"/>
      <point x="92" y="866" type="curve" smooth="yes"/>
      <point x="92" y="875"/>
      <point x="98" y="884"/>
      <point x="109" y="884" type="curve" smooth="yes"/>
      <point x="123" y="884"/>
      <point x="146" y="874"/>
      <point x="146" y="866" type="curve" smooth="yes"/>
      <point x="146" y="858"/>
      <point x="125" y="848"/>
    </contour>
    <contour>
      <point x="109" y="878" type="curve"/>
      <point x="101" y="878"/>
      <point x="98" y="872"/>
      <point x="98" y="866" type="curve" smooth="yes"/>
      <point x="98" y="858"/>
      <point x="104" y="854"/>
      <point x="110" y="854" type="curve" smooth="yes"/>
      <point x="124" y="854"/>
      <point x="138" y="863"/>
      <point x="140" y="866" type="curve"/>
      <point x="138" y="869"/>
      <point x="122" y="878"/>
    </contour>
    <contour>
      <point x="110" y="889" type="curve"/>
      <point x="98" y="889"/>
      <point x="92" y="898"/>
      <point x="92" y="907" type="curve" smooth="yes"/>
      <point x="92" y="916"/>
      <point x="98" y="925"/>
      <point x="109" y="925" type="curve" smooth="yes"/>
      <point x="123" y="925"/>
      <point x="146" y="915"/>
      <point x="146" y="907" type="curve" smooth="yes"/>
      <point x="146" y="899"/>
      <point x="125" y="889"/>
    </contour>
    <contour>
      <point x="109" y="919" type="curve"/>
      <point x="101" y="919"/>
      <point x="98" y="913"/>
      <point x="98" y="907" type="curve" smooth="yes"/>
      <point x="98" y="899"/>
      <point x="104" y="895"/>
      <point x="110" y="895" type="curve" smooth="yes"/>
      <point x="124" y="895"/>
      <point x="138" y="904"/>
      <point x="140" y="907" type="curve"/>
      <point x="138" y="910"/>
      <point x="122" y="919"/>
    </contour>
  </outline>
</glyph>
<glyph name="uniE006" format="2">
  <advance width="0"/>
  <unicode hex="E006"/>
  <key>note</key>
  <string>fluteLHThumbBFlatClosed</string>
  <outline>
    <contour>
      <point x="79" y="743" type="line"/>
      <point x="79" y="743"/>
      <point x="79" y="926"/>
      <point x="79" y="954" type="curve" smooth="yes"/>
      <point x="79" y="979"/>
      <point x="61" y="986"/>
      <point x="50" y="990" type="curve" smooth="yes"/>
      <point x="49" y="990"/>
      <point x="48" y="991"/>
      <point x="47" y="991" type="curve" smooth="yes"/>
      <point x="43" y="993"/>
      <point x="36" y="995"/>
      <point x="30" y="995" type="curve" smooth="yes"/>
      <point x="22" y="995"/>
      <point x="16" y="991"/>
      <point x="16" y="974" type="curve"/>
      <point x="16" y="911" type="line"/>
      <point x="16" y="893"/>
      <point x="23" y="889"/>
      <point x="37" y="883" type="curve" smooth="yes"/>
      <point x="51" y="877"/>
      <point x="66" y="870"/>
      <point x="66" y="857" type="curve" smooth="yes"/>
      <point x="66" y="750" type="line"/>
    </contour>
  </outline>
</glyph>
<glyph name="uniE007" format="2">
  <advance width="0"/>
  <unicode hex="E007"/>
  <key>note</key>
  <string>fluteLHThumbBClosed</string>
  <outline>
    <contour>
      <point x="51" y="758" type="curve"/>
      <point x="15" y="777" type="line"/>
      <point x="15" y="777"/>
      <point x="15" y="843"/>
      <point x="15" y="856" type="curve" smooth="yes"/>
      <point x="15" y="864"/>
      <point x="18" y="867"/>
      <point x="22" y="867" type="curve" smooth="yes"/>
      <point x="24" y="867"/>
      <point x="27" y="866"/>
      <point x="30" y="864" type="curve"/>
      <point x="45" y="857" type="line" smooth="yes"/>
      <point x="50" y="853"/>
      <point x="51" y="846"/>
      <point x="51" y="837" type="curve" smooth="yes"/>
      <point x="51" y="828"/>
      <point x="51" y="758"/>
    </contour>
  </outline>
</glyph>
<glyph name="uniE008" format="2">
  <advance width="0"/>
  <unicode hex="E008"/>
  <key>note</key>
  <string>fluteLH1stFingerClosed</string>
  <outline>
    <contour>
      <point x="238" y="947" type="curve"/>
      <point x="238" y="921"/>
      <point x="217" y="900"/>
      <point x="191" y="900" type="curve" smooth="yes"/>
      <point x="165" y="900"/>
      <point x="144" y="921"/>
      <point x="144" y="947" type="curve" smooth="yes"/>
      <point x="144" y="973"/>
      <point x="165" y="993"/>
      <point x="191" y="993" type="curve" smooth="yes"/>
      <point x="217" y="993"/>
      <point x="238" y="973"/>
    </contour>
  </outline>
</glyph>
<glyph name="uniE009" format="2">
  <advance width="0"/>
  <unicode hex="E009"/>
  <key>note</key>
  <string>fluteLH2ndFingerClosed</string>
  <outline>
    <contour>
      <point x="238" y="827" type="curve"/>
      <point x="238" y="801"/>
      <point x="217" y="780"/>
      <point x="191" y="780" type="curve" smooth="yes"/>
      <point x="165" y="780"/>
      <point x="144" y="801"/>
      <point x="144" y="827" type="curve" smooth="yes"/>
      <point x="144" y="853"/>
      <point x="165" y="873"/>
      <point x="191" y="873" type="curve" smooth="yes"/>
      <point x="217" y="873"/>
      <point x="238" y="853"/>
    </contour>
  </outline>
</glyph>
<glyph name="uniE00B" format="2">
  <advance width="0"/>
  <unicode hex="E00B"/>
  <key>note</key>
  <string>fluteLHGSharpClosed</string>
  <outline>
    <contour>
      <point x="192" y="630" type="line"/>
      <point x="192" y="630"/>
      <point x="248" y="629"/>
      <point x="257" y="629" type="curve" smooth="yes"/>
      <point x="267" y="629"/>
      <point x="300" y="641"/>
      <point x="300" y="672" type="curve" smooth="yes"/>
      <point x="300" y="696"/>
      <point x="287" y="698"/>
      <point x="281" y="698" type="curve" smooth="yes"/>
      <point x="261" y="698"/>
      <point x="258" y="673"/>
      <point x="248" y="663" type="curve"/>
      <point x="245" y="660" type="line"/>
      <point x="235" y="651"/>
      <point x="228" y="644"/>
      <point x="192" y="644" type="curve"/>
    </contour>
  </outline>
</glyph>
<glyph name="uniE00C" format="2">
  <advance width="0"/>
  <unicode hex="E00C"/>
  <key>note</key>
  <string>fluteRHCSharpTrillClosed</string>
  <outline>
    <contour>
      <point x="137" y="595" type="curve"/>
      <point x="148" y="594" type="line"/>
      <point x="148" y="570"/>
      <point x="153" y="565"/>
      <point x="160" y="558" type="curve" smooth="yes"/>
      <point x="163" y="555" type="line" smooth="yes"/>
      <point x="171" y="548"/>
      <point x="191" y="547"/>
      <point x="191" y="531" type="curve" smooth="yes"/>
      <point x="191" y="527"/>
      <point x="189" y="518"/>
      <point x="170" y="518" type="curve" smooth="yes"/>
      <point x="145" y="518"/>
      <point x="136" y="541"/>
      <point x="136" y="548" type="curve" smooth="yes"/>
      <point x="136" y="555"/>
      <point x="137" y="595"/>
    </contour>
  </outline>
</glyph>
<glyph name="uniE00D" format="2">
  <advance width="0"/>
  <unicode hex="E00D"/>
  <key>note</key>
  <string>fluteRHBFlatTrillClosed</string>
  <outline>
    <contour>
      <point x="84" y="563" type="line"/>
      <point x="84" y="563"/>
      <point x="83" y="523"/>
      <point x="83" y="516" type="curve" smooth="yes"/>
      <point x="83" y="509"/>
      <point x="92" y="486"/>
      <point x="117" y="486" type="curve" smooth="yes"/>
      <point x="136" y="486"/>
      <point x="138" y="495"/>
      <point x="138" y="499" type="curve" smooth="yes"/>
      <point x="138" y="515"/>
      <point x="118" y="516"/>
      <point x="110" y="523" type="curve"/>
      <point x="108" y="525"/>
      <point x="107" y="526"/>
      <point x="107" y="526" type="curve" smooth="yes"/>
      <point x="100" y="533"/>
      <point x="95" y="538"/>
      <point x="95" y="562" type="curve"/>
    </contour>
  </outline>
</glyph>
<glyph name="uniE00E" format="2">
  <advance width="0"/>
  <unicode hex="E00E"/>
  <key>note</key>
  <string>fluteRH1stFingerClosed</string>
  <outline>
    <contour>
      <point x="238" y="447" type="curve"/>
      <point x="238" y="422"/>
      <point x="217" y="401"/>
      <point x="191" y="401" type="curve" smooth="yes"/>
      <point x="165" y="401"/>
      <point x="144" y="422"/>
      <point x="144" y="447" type="curve" smooth="yes"/>
      <point x="144" y="473"/>
      <point x="165" y="494"/>
      <point x="191" y="494" type="curve" smooth="yes"/>
      <point x="217" y="494"/>
      <point x="238" y="473"/>
    </contour>
  </outline>
</glyph>
<glyph name="uniE00F" format="2">
  <advance width="0"/>
  <unicode hex="E00F"/>
  <key>note</key>
  <string>fluteRHDTrillClosed</string>
  <outline>
    <contour>
      <point x="122" y="373" type="curve"/>
      <point x="112" y="373"/>
      <point x="107" y="380"/>
      <point x="107" y="388" type="curve" smooth="yes"/>
      <point x="107" y="395"/>
      <point x="112" y="403"/>
      <point x="121" y="403" type="curve" smooth="yes"/>
      <point x="136" y="403"/>
      <point x="155" y="393"/>
      <point x="155" y="388" type="curve" smooth="yes"/>
      <point x="155" y="384"/>
      <point x="137" y="373"/>
    </contour>
  </outline>
</glyph>
<glyph name="uniE010" format="2">
  <advance width="0"/>
  <unicode hex="E010"/>
  <key>note</key>
  <string>fluteRH2ndFingerClosed</string>
  <outline>
    <contour>
      <point x="238" y="326" type="curve"/>
      <point x="238" y="300"/>
      <point x="217" y="279"/>
      <point x="191" y="279" type="curve" smooth="yes"/>
      <point x="165" y="279"/>
      <point x="144" y="300"/>
      <point x="144" y="326" type="curve" smooth="yes"/>
      <point x="144" y="352"/>
      <point x="165" y="372"/>
      <point x="191" y="372" type="curve" smooth="yes"/>
      <point x="217" y="372"/>
      <point x="238" y="352"/>
    </contour>
  </outline>
</glyph>
<glyph name="uniE011" format="2">
  <advance width="0"/>
  <unicode hex="E011"/>
  <key>note</key>
  <string>fluteRHDSharpTrillClosed</string>
  <outline>
    <contour>
      <point x="122" y="251" type="curve"/>
      <point x="112" y="251"/>
      <point x="107" y="259"/>
      <point x="107" y="266" type="curve" smooth="yes"/>
      <point x="107" y="273"/>
      <point x="112" y="280"/>
      <point x="121" y="280" type="curve" smooth="yes"/>
      <point x="136" y="280"/>
      <point x="155" y="271"/>
      <point x="155" y="266" type="curve" smooth="yes"/>
      <point x="155" y="261"/>
      <point x="137" y="251"/>
    </contour>
  </outline>
</glyph>
<glyph name="uniE012" format="2">
  <advance width="0"/>
  <unicode hex="E012"/>
  <key>note</key>
  <string>fluteRH3rdFingerClosed</string>
  <outline>
    <contour>
      <point x="238" y="204" type="curve"/>
      <point x="238" y="179"/>
      <point x="217" y="158"/>
      <point x="191" y="158" type="curve" smooth="yes"/>
      <point x="165" y="158"/>
      <point x="144" y="179"/>
      <point x="144" y="204" type="curve" smooth="yes"/>
      <point x="144" y="230"/>
      <point x="165" y="251"/>
      <point x="191" y="251" type="curve" smooth="yes"/>
      <point x="217" y="251"/>
      <point x="238" y="230"/>
    </contour>
  </outline>
</glyph>
<glyph name="uniE013" format="2">
  <advance width="0"/>
  <unicode hex="E013"/>
  <key>note</key>
  <string>fluteRHEFlatPaddleClosed</string>
  <outline>
    <contour>
      <point x="222" y="106" type="line"/>
      <point x="222" y="106"/>
      <point x="127" y="106"/>
      <point x="116" y="106" type="curve" smooth="yes"/>
      <point x="106" y="106"/>
      <point x="104" y="114"/>
      <point x="104" y="123" type="curve" smooth="yes"/>
      <point x="104" y="145" type="line"/>
      <point x="104" y="156"/>
      <point x="110" y="156"/>
      <point x="115" y="156" type="curve"/>
      <point x="140" y="156" type="line"/>
      <point x="148" y="156"/>
      <point x="156" y="156"/>
      <point x="164" y="142" type="curve" smooth="yes"/>
      <point x="170" y="131" type="line" smooth="yes"/>
      <point x="174" y="123"/>
      <point x="178" y="120"/>
      <point x="186" y="120" type="curve" smooth="yes"/>
      <point x="194" y="120"/>
      <point x="222" y="120"/>
      <point x="222" y="120" type="curve"/>
    </contour>
  </outline>
</glyph>
<glyph name="uniE014" format="2">
  <advance width="0"/>
  <unicode hex="E014"/>
  <key>note</key>
  <string>fluteRHLowCSharpClosed</string>
  <outline>
    <contour>
      <point x="155" y="72" type="curve"/>
      <point x="155" y="16" type="line"/>
      <point x="155" y="16"/>
      <point x="133" y="26"/>
      <point x="120" y="33" type="curve" smooth="yes"/>
      <point x="106" y="40"/>
      <point x="104" y="55"/>
      <point x="104" y="55" type="curve"/>
      <point x="104" y="55"/>
      <point x="104" y="62"/>
      <point x="104" y="74" type="curve" smooth="yes"/>
      <point x="104" y="85"/>
      <point x="108" y="90"/>
      <point x="115" y="90" type="curve"/>
      <point x="141" y="90" type="line"/>
      <point x="151" y="90"/>
      <point x="155" y="83"/>
    </contour>
  </outline>
</glyph>
<glyph name="uniE015" format="2">
  <advance width="0"/>
  <unicode hex="E015"/>
  <key>note</key>
  <string>fluteRHLowCClosed</string>
  <outline>
    <contour>
      <point x="189" y="54" type="line"/>
      <point x="189" y="49"/>
      <point x="185" y="45"/>
      <point x="180" y="45" type="curve"/>
      <point x="173" y="45"/>
      <point x="169" y="49"/>
      <point x="169" y="54" type="curve"/>
      <point x="169" y="81" type="line"/>
      <point x="169" y="86"/>
      <point x="173" y="90"/>
      <point x="178" y="90" type="curve"/>
      <point x="185" y="90"/>
      <point x="189" y="86"/>
      <point x="189" y="81" type="curve"/>
    </contour>
  </outline>
</glyph>
<glyph name="uniE016" format="2">
  <advance width="0"/>
  <unicode hex="E016"/>
  <key>note</key>
  <string>fluteRHLowBClosed</string>
  <outline>
    <contour>
      <point x="222" y="54" type="line"/>
      <point x="222" y="49"/>
      <point x="218" y="45"/>
      <point x="213" y="45" type="curve"/>
      <point x="206" y="45"/>
      <point x="202" y="49"/>
      <point x="202" y="54" type="curve"/>
      <point x="202" y="81" type="line"/>
      <point x="202" y="86"/>
      <point x="206" y="90"/>
      <point x="211" y="90" type="curve"/>
      <point x="218" y="90"/>
      <point x="222" y="86"/>
      <point x="222" y="81" type="curve"/>
    </contour>
  </outline>
</glyph>
<glyph name="uniE020" format="2">
  <advance width="0"/>
  <unicode hex="E020"/>
  <key>note</key>
  <string>fluteLH3rdFingerRingOnly</string>
  <outline>
    <contour>
      <point x="191" y="657" type="curve" smooth="yes"/>
      <point x="165" y="657"/>
      <point x="144" y="677"/>
      <point x="144" y="703" type="curve" smooth="yes"/>
      <point x="144" y="729"/>
      <point x="165" y="750"/>
      <point x="191" y="750" type="curve" smooth="yes"/>
      <point x="217" y="750"/>
      <point x="238" y="729"/>
      <point x="238" y="703" type="curve" smooth="yes"/>
      <point x="238" y="677"/>
      <point x="217" y="657"/>
    </contour>
    <contour>
      <point x="191" y="726" type="curve" smooth="yes"/>
      <point x="177" y="726"/>
      <point x="168" y="717"/>
      <point x="168" y="703" type="curve" smooth="yes"/>
      <point x="168" y="689"/>
      <point x="177" y="681"/>
      <point x="191" y="681" type="curve" smooth="yes"/>
      <point x="205" y="681"/>
      <point x="214" y="689"/>
      <point x="214" y="703" type="curve" smooth="yes"/>
      <point x="214" y="717"/>
      <point x="205" y="726"/>
    </contour>
  </outline>
</glyph>
<glyph name="uniE021" format="2">
  <advance width="0"/>
  <unicode hex="E021"/>
  <key>note</key>
  <string>fluteRH1stFingerRingOnly</string>
  <outline>
    <contour>
      <point x="191" y="401" type="curve" smooth="yes"/>
      <point x="165" y="401"/>
      <point x="144" y="421"/>
      <point x="144" y="447" type="curve" smooth="yes"/>
      <point x="144" y="473"/>
      <point x="165" y="494"/>
      <point x="191" y="494" type="curve" smooth="yes"/>
      <point x="217" y="494"/>
      <point x="238" y="473"/>
      <point x="238" y="447" type="curve" smooth="yes"/>
      <point x="238" y="421"/>
      <point x="217" y="401"/>
    </contour>
    <contour>
      <point x="191" y="470" type="curve" smooth="yes"/>
      <point x="177" y="470"/>
      <point x="168" y="461"/>
      <point x="168" y="447" type="curve" smooth="yes"/>
      <point x="168" y="433"/>
      <point x="177" y="425"/>
      <point x="191" y="425" type="curve" smooth="yes"/>
      <point x="205" y="425"/>
      <point x="214" y="433"/>
      <point x="214" y="447" type="curve" smooth="yes"/>
      <point x="214" y="461"/>
      <point x="205" y="470"/>
    </contour>
  </outline>
</glyph>
<glyph name="uniE022" format="2">
  <advance width="0"/>
  <unicode hex="E022"/>
  <key>note</key>
  <string>fluteRH2ndFingerRingOnly</string>
  <outline>
    <contour>
      <point x="191" y="279" type="curve" smooth="yes"/>
      <point x="165" y="279"/>
      <point x="144" y="299"/>
      <point x="144" y="325" type="curve" smooth="yes"/>
      <point x="144" y="351"/>
      <point x="165" y="372"/>
      <point x="191" y="372" type="curve" smooth="yes"/>
      <point x="217" y="372"/>
      <point x="238" y="351"/>
      <point x="238" y="325" type="curve" smooth="yes"/>
      <point x="238" y="299"/>
      <point x="217" y="279"/>
    </contour>
    <contour>
      <point x="191" y="348" type="curve" smooth="yes"/>
      <point x="177" y="348"/>
      <point x="168" y="339"/>
      <point x="168" y="325" type="curve" smooth="yes"/>
      <point x="168" y="311"/>
      <point x="177" y="303"/>
      <point x="191" y="303" type="curve" smooth="yes"/>
      <point x="205" y="303"/>
      <point x="214" y="311"/>
      <point x="214" y="325" type="curve" smooth="yes"/>
      <point x="214" y="339"/>
      <point x="205" y="348"/>
    </contour>
  </outline>
</glyph>
<glyph name="uniE023" format="2">
  <advance width="0"/>
  <unicode hex="E023"/>
  <key>note</key>
  <string>fluteRH3rdFingerRingOnly</string>
  <outline>
    <contour>
      <point x="191" y="158" type="curve" smooth="yes"/>
      <point x="165" y="158"/>
      <point x="144" y="178"/>
      <point x="144" y="204" type="curve" smooth="yes"/>
      <point x="144" y="230"/>
      <point x="165" y="251"/>
      <point x="191" y="251" type="curve" smooth="yes"/>
      <point x="217" y="251"/>
      <point x="238" y="230"/>
      <point x="238" y="204" type="curve" smooth="yes"/>
      <point x="238" y="178"/>
      <point x="217" y="158"/>
    </contour>
    <contour>
      <point x="191" y="227" type="curve" smooth="yes"/>
      <point x="177" y="227"/>
      <point x="168" y="218"/>
      <point x="168" y="204" type="curve" smooth="yes"/>
      <point x="168" y="190"/>
      <point x="177" y="182"/>
      <point x="191" y="182" type="curve" smooth="yes"/>
      <point x="205" y="182"/>
      <point x="214" y="190"/>
      <point x="214" y="204" type="curve" smooth="yes"/>
      <point x="214" y="218"/>
      <point x="205" y="227"/>
    </contour>
  </outline>
</glyph>
<glyph name="uniE024" format="2">
  <advance width="0"/>
  <unicode hex="E024"/>
  <key>note</key>
  <string>fluteLH1stFingerHalfClosedLeft</string>
  <outline>
    <contour>
      <point x="191" y="900" type="line"/>
      <point x="165" y="900"/>
      <point x="144" y="921"/>
      <point x="144" y="947" type="curve" smooth="yes"/>
      <point x="144" y="973"/>
      <point x="165" y="993"/>
      <point x="191" y="993" type="curve"/>
    </contour>
  </outline>
</glyph>
<glyph name="uniE026" format="2">
  <advance width="0"/>
  <unicode hex="E026"/>
  <key>note</key>
  <string>fluteLH3rdFingerHalfClosedLeft</string>
  <outline>
    <contour>
      <point x="191" y="657" type="line"/>
      <point x="165" y="657"/>
      <point x="144" y="678"/>
      <point x="144" y="704" type="curve" smooth="yes"/>
      <point x="144" y="730"/>
      <point x="165" y="750"/>
      <point x="191" y="750" type="curve"/>
    </contour>
  </outline>
</glyph>
<glyph name="uniE027" format="2">
  <advance width="0"/>
  <unicode hex="E027"/>
  <key>note</key>
  <string>fluteRH1stFingerHalfClosedLeft</string>
  <outline>
    <contour>
      <point x="191" y="401" type="line"/>
      <point x="165" y="401"/>
      <point x="144" y="422"/>
      <point x="144" y="447" type="curve" smooth="yes"/>
      <point x="144" y="473"/>
      <point x="165" y="494"/>
      <point x="191" y="494" type="curve"/>
    </contour>
  </outline>
</glyph>
<glyph name="uniE028" format="2">
  <advance width="0"/>
  <unicode hex="E028"/>
  <key>note</key>
  <string>fluteRH2ndFingerHalfClosedLeft</string>
  <outline>
    <contour>
      <point x="191" y="279" type="line"/>
      <point x="165" y="279"/>
      <point x="144" y="300"/>
      <point x="144" y="326" type="curve" smooth="yes"/>
      <point x="144" y="352"/>
      <point x="165" y="372"/>
      <point x="191" y="372" type="curve"/>
    </contour>
  </outline>
</glyph>
<glyph name="uniE029" format="2">
  <advance width="0"/>
  <unicode hex="E029"/>
  <key>note</key>
  <string>fluteRH3rdFingerHalfClosedLeft</string>
  <outline>
    <contour>
      <point x="191" y="158" type="line"/>
      <point x="165" y="158"/>
      <point x="144" y="179"/>
      <point x="144" y="204" type="curve" smooth="yes"/>
      <point x="144" y="230"/>
      <point x="165" y="251"/>
      <point x="191" y="251" type="curve"/>
    </contour>
  </outline>
</glyph>
<glyph name="uniE02A" format="2">
  <advance width="0"/>
  <unicode hex="E02A"/>
  <key>note</key>
  <string>fluteLH1stFingerHalfClosedRight</string>
  <outline>
    <contour>
      <point x="238" y="947" type="curve"/>
      <point x="238" y="921"/>
      <point x="217" y="900"/>
      <point x="191" y="900" type="curve"/>
      <point x="191" y="993" type="line"/>
      <point x="217" y="993"/>
      <point x="238" y="973"/>
    </contour>
  </outline>
</glyph>
<glyph name="uniE02B" format="2">
  <advance width="0"/>
  <unicode hex="E02B"/>
  <key>note</key>
  <string>fluteLH2ndFingerHalfClosedRight</string>
  <outline>
    <contour>
      <point x="238" y="827" type="curve"/>
      <point x="238" y="801"/>
      <point x="217" y="780"/>
      <point x="191" y="780" type="curve"/>
      <point x="191" y="873" type="line"/>
      <point x="217" y="873"/>
      <point x="238" y="853"/>
    </contour>
  </outline>
</glyph>
<glyph name="uniE02C" format="2">
  <advance width="0"/>
  <unicode hex="E02C"/>
  <key>note</key>
  <string>fluteLH3rdFingerHalfClosedRight</string>
  <outline>
    <contour>
      <point x="238" y="704" type="curve"/>
      <point x="238" y="678"/>
      <point x="217" y="657"/>
      <point x="191" y="657" type="curve"/>
      <point x="191" y="750" type="line"/>
      <point x="217" y="750"/>
      <point x="238" y="730"/>
    </contour>
  </outline>
</glyph>
<glyph name="uniE02D" format="2">
  <advance width="0"/>
  <unicode hex="E02D"/>
  <key>note</key>
  <string>fluteRH1stFingerHalfClosedRight</string>
  <outline>
    <contour>
      <point x="238" y="447" type="curve"/>
      <point x="238" y="422"/>
      <point x="217" y="401"/>
      <point x="191" y="401" type="curve"/>
      <point x="191" y="494" type="line"/>
      <point x="217" y="494"/>
      <point x="238" y="473"/>
    </contour>
  </outline>
</glyph>
<glyph name="uniE02E" format="2">
  <advance width="0"/>
  <unicode hex="E02E"/>
  <key>note</key>
  <string>fluteRH2ndFingerHalfClosedRight</string>
  <outline>
    <contour>
      <point x="238" y="326" type="curve"/>
      <point x="238" y="300"/>
      <point x="217" y="279"/>
      <point x="191" y="279" type="curve"/>
      <point x="191" y="372" type="line"/>
      <point x="217" y="372"/>
      <point x="238" y="352"/>
    </contour>
  </outline>
</glyph>
<glyph name="uniE02F" format="2">
  <advance width="0"/>
  <unicode hex="E02F"/>
  <key>note</key>
  <string>fluteRH3rdFingerHalfClosedRight</string>
  <outline>
    <contour>
      <point x="238" y="204" type="curve"/>
      <point x="238" y="179"/>
      <point x="217" y="158"/>
      <point x="191" y="158" type="curve"/>
      <point x="191" y="251" type="line"/>
      <point x="217" y="251"/>
      <point x="238" y="230"/>
    </contour>
  </outline>
</glyph>
<glyph name="uniE030" format="2">
  <advance width="0"/>
  <unicode hex="E030"/>
  <key>note</key>
  <string>fluteLH1stFingerQuarterClosedLeft</string>
  <outline>
    <contour>
      <point x="168" y="987" type="line"/>
      <point x="154" y="979"/>
      <point x="144" y="964"/>
      <point x="144" y="947" type="curve" smooth="yes"/>
      <point x="144" y="930"/>
      <point x="154" y="915"/>
      <point x="168" y="906" type="curve"/>
    </contour>
  </outline>
</glyph>
<glyph name="uniE031" format="2">
  <advance width="0"/>
  <unicode hex="E031"/>
  <key>note</key>
  <string>fluteLH2ndFingerQuarterClosedLeft</string>
  <outline>
    <contour>
      <point x="168" y="867" type="line"/>
      <point x="154" y="859"/>
      <point x="144" y="844"/>
      <point x="144" y="827" type="curve" smooth="yes"/>
      <point x="144" y="810"/>
      <point x="154" y="795"/>
      <point x="168" y="786" type="curve"/>
    </contour>
  </outline>
</glyph>
<glyph name="uniE032" format="2">
  <advance width="0"/>
  <unicode hex="E032"/>
  <key>note</key>
  <string>fluteLH3rdFingerQuarterClosedLeft</string>
  <outline>
    <contour>
      <point x="168" y="744" type="line"/>
      <point x="154" y="736"/>
      <point x="144" y="721"/>
      <point x="144" y="703" type="curve" smooth="yes"/>
      <point x="144" y="686"/>
      <point x="154" y="671"/>
      <point x="168" y="663" type="curve"/>
    </contour>
  </outline>
</glyph>
<glyph name="uniE033" format="2">
  <advance width="0"/>
  <unicode hex="E033"/>
  <key>note</key>
  <string>fluteRH1stFingerQuarterClosedLeft</string>
  <outline>
    <contour>
      <point x="168" y="487" type="line"/>
      <point x="154" y="479"/>
      <point x="144" y="464"/>
      <point x="144" y="447" type="curve" smooth="yes"/>
      <point x="144" y="430"/>
      <point x="154" y="415"/>
      <point x="168" y="406" type="curve"/>
    </contour>
  </outline>
</glyph>
<glyph name="uniE034" format="2">
  <advance width="0"/>
  <unicode hex="E034"/>
  <key>note</key>
  <string>fluteRH2ndFingerQuarterClosedLeft</string>
  <outline>
    <contour>
      <point x="168" y="366" type="line"/>
      <point x="154" y="358"/>
      <point x="144" y="343"/>
      <point x="144" y="325" type="curve" smooth="yes"/>
      <point x="144" y="308"/>
      <point x="154" y="293"/>
      <point x="168" y="285" type="curve"/>
    </contour>
  </outline>
</glyph>
<glyph name="uniE035" format="2">
  <advance width="0"/>
  <unicode hex="E035"/>
  <key>note</key>
  <string>fluteRH3rdFingerQuarterClosedLeft</string>
  <outline>
    <contour>
      <point x="168" y="244" type="line"/>
      <point x="154" y="236"/>
      <point x="144" y="221"/>
      <point x="144" y="204" type="curve" smooth="yes"/>
      <point x="144" y="187"/>
      <point x="154" y="172"/>
      <point x="168" y="164" type="curve"/>
    </contour>
  </outline>
</glyph>
<glyph name="uniE036" format="2">
  <advance width="0"/>
  <unicode hex="E036"/>
  <key>note</key>
  <string>fluteLH1stFingerQuarterClosedRight</string>
  <outline>
    <contour>
      <point x="214" y="987" type="line"/>
      <point x="228" y="979"/>
      <point x="238" y="964"/>
      <point x="238" y="947" type="curve" smooth="yes"/>
      <point x="238" y="930"/>
      <point x="228" y="915"/>
      <point x="214" y="906" type="curve"/>
    </contour>
  </outline>
</glyph>
<glyph name="uniE037" format="2">
  <advance width="0"/>
  <unicode hex="E037"/>
  <key>note</key>
  <string>fluteLH2ndFingerQuarterClosedRight</string>
  <outline>
    <contour>
      <point x="214" y="867" type="line"/>
      <point x="228" y="859"/>
      <point x="238" y="844"/>
      <point x="238" y="827" type="curve" smooth="yes"/>
      <point x="238" y="810"/>
      <point x="228" y="795"/>
      <point x="214" y="786" type="curve"/>
    </contour>
  </outline>
</glyph>
<glyph name="uniE038" format="2">
  <advance width="0"/>
  <unicode hex="E038"/>
  <key>note</key>
  <string>fluteLH3rdFingerQuarterClosedRight</string>
  <outline>
    <contour>
      <point x="214" y="743" type="line"/>
      <point x="228" y="735"/>
      <point x="238" y="720"/>
      <point x="238" y="703" type="curve" smooth="yes"/>
      <point x="238" y="686"/>
      <point x="228" y="671"/>
      <point x="214" y="662" type="curve"/>
    </contour>
  </outline>
</glyph>
<glyph name="uniE039" format="2">
  <advance width="0"/>
  <unicode hex="E039"/>
  <key>note</key>
  <string>fluteRH1stFingerQuarterClosedRight</string>
  <outline>
    <contour>
      <point x="214" y="487" type="line"/>
      <point x="228" y="479"/>
      <point x="238" y="464"/>
      <point x="238" y="447" type="curve" smooth="yes"/>
      <point x="238" y="430"/>
      <point x="228" y="415"/>
      <point x="214" y="406" type="curve"/>
    </contour>
  </outline>
</glyph>
<glyph name="uniE03A" format="2">
  <advance width="0"/>
  <unicode hex="E03A"/>
  <key>note</key>
  <string>fluteRH2ndFingerQuarterClosedRight</string>
  <outline>
    <contour>
      <point x="214" y="366" type="line"/>
      <point x="228" y="358"/>
      <point x="238" y="343"/>
      <point x="238" y="326" type="curve" smooth="yes"/>
      <point x="238" y="309"/>
      <point x="228" y="294"/>
      <point x="214" y="285" type="curve"/>
    </contour>
  </outline>
</glyph>
<glyph name="uniE03B" format="2">
  <advance width="0"/>
  <unicode hex="E03B"/>
  <key>note</key>
  <string>fluteRH3rdFingerQuarterClosedRight</string>
  <outline>
    <contour>
      <point x="214" y="244" type="line"/>
      <point x="228" y="236"/>
      <point x="238" y="221"/>
      <point x="238" y="204" type="curve" smooth="yes"/>
      <point x="238" y="187"/>
      <point x="228" y="172"/>
      <point x="214" y="164" type="curve"/>
    </contour>
  </outline>
</glyph>
<glyph name="uniE03C" format="2">
  <advance width="0"/>
  <unicode hex="E03C"/>
  <key>note</key>
  <string>fluteLHThumbBFlatTrill</string>
  <outline>
    <contour>
      <point x="4" y="891" type="line"/>
      <point x="2" y="891"/>
      <point x="1" y="893"/>
      <point x="1" y="894" type="curve" smooth="yes"/>
      <point x="1" y="895"/>
      <point x="2" y="896"/>
      <point x="89" y="984" type="curve"/>
      <point x="90" y="984"/>
      <point x="91" y="985"/>
      <point x="92" y="985" type="curve" smooth="yes"/>
      <point x="93" y="985"/>
      <point x="94" y="983"/>
      <point x="94" y="981" type="curve" smooth="yes"/>
      <point x="94" y="980"/>
      <point x="94" y="980"/>
      <point x="6" y="892" type="curve"/>
    </contour>
  </outline>
</glyph>
<glyph name="uniE03D" format="2">
  <advance width="0"/>
  <unicode hex="E03D"/>
  <key>note</key>
  <string>fluteLHThumbBTrill</string>
  <outline>
    <contour>
      <point x="7" y="789" type="curve"/>
      <point x="7" y="789"/>
      <point x="6" y="789"/>
      <point x="5" y="790" type="curve" smooth="yes"/>
      <point x="4" y="791"/>
      <point x="4" y="793"/>
      <point x="5" y="794" type="curve"/>
      <point x="55" y="844" type="line"/>
      <point x="57" y="846"/>
      <point x="59" y="846"/>
      <point x="60" y="844" type="curve" smooth="yes"/>
      <point x="61" y="843"/>
      <point x="61" y="841"/>
      <point x="60" y="840" type="curve"/>
      <point x="9" y="790" type="line"/>
      <point x="9" y="789"/>
      <point x="8" y="789"/>
    </contour>
  </outline>
</glyph>
<glyph name="uniE03E" format="2">
  <advance width="0"/>
  <unicode hex="E03E"/>
  <key>note</key>
  <string>fluteLH1stFingerTrill</string>
  <outline>
    <contour>
      <point x="142" y="896" type="curve"/>
      <point x="141" y="896"/>
      <point x="140" y="896"/>
      <point x="139" y="897" type="curve" smooth="yes"/>
      <point x="138" y="898"/>
      <point x="138" y="900"/>
      <point x="139" y="901" type="curve"/>
      <point x="237" y="998" type="line"/>
      <point x="238" y="1000"/>
      <point x="240" y="1000"/>
      <point x="241" y="998" type="curve" smooth="yes"/>
      <point x="242" y="997"/>
      <point x="242" y="995"/>
      <point x="241" y="994" type="curve"/>
      <point x="144" y="897" type="line"/>
      <point x="143" y="896"/>
      <point x="142" y="896"/>
    </contour>
  </outline>
</glyph>
<glyph name="uniE040" format="2">
  <advance width="0"/>
  <unicode hex="E040"/>
  <key>note</key>
  <string>fluteLH3rdFingerTrill</string>
  <outline>
    <contour>
      <point x="142" y="650" type="curve"/>
      <point x="141" y="650"/>
      <point x="140" y="650"/>
      <point x="139" y="651" type="curve" smooth="yes"/>
      <point x="138" y="652"/>
      <point x="138" y="654"/>
      <point x="139" y="655" type="curve"/>
      <point x="237" y="752" type="line"/>
      <point x="238" y="754"/>
      <point x="240" y="754"/>
      <point x="241" y="752" type="curve" smooth="yes"/>
      <point x="242" y="751"/>
      <point x="242" y="749"/>
      <point x="241" y="748" type="curve"/>
      <point x="144" y="651" type="line"/>
      <point x="143" y="650"/>
      <point x="142" y="650"/>
    </contour>
  </outline>
</glyph>
<glyph name="uniE041" format="2">
  <advance width="0"/>
  <unicode hex="E041"/>
  <key>note</key>
  <string>fluteLHGSharpTrill</string>
  <outline>
    <contour>
      <point x="222" y="616" type="curve"/>
      <point x="221" y="616"/>
      <point x="220" y="616"/>
      <point x="220" y="617" type="curve" smooth="yes"/>
      <point x="219" y="618"/>
      <point x="219" y="620"/>
      <point x="220" y="621" type="curve"/>
      <point x="303" y="704" type="line"/>
      <point x="305" y="706"/>
      <point x="307" y="706"/>
      <point x="308" y="704" type="curve" smooth="yes"/>
      <point x="309" y="703"/>
      <point x="309" y="701"/>
      <point x="308" y="700" type="curve"/>
      <point x="224" y="617" type="line"/>
      <point x="223" y="616"/>
      <point x="223" y="616"/>
    </contour>
  </outline>
</glyph>
<glyph name="uniE042" format="2">
  <advance width="0"/>
  <unicode hex="E042"/>
  <key>note</key>
  <string>fluteRHCSharpTrillTrill</string>
  <outline>
    <contour>
      <point x="129" y="515" type="curve"/>
      <point x="128" y="515"/>
      <point x="127" y="515"/>
      <point x="127" y="516" type="curve" smooth="yes"/>
      <point x="126" y="517"/>
      <point x="126" y="519"/>
      <point x="127" y="520" type="curve"/>
      <point x="179" y="573" type="line"/>
      <point x="181" y="574"/>
      <point x="183" y="574"/>
      <point x="184" y="573" type="curve" smooth="yes"/>
      <point x="185" y="572"/>
      <point x="185" y="570"/>
      <point x="184" y="569" type="curve"/>
      <point x="131" y="516" type="line"/>
      <point x="130" y="515"/>
      <point x="130" y="515"/>
    </contour>
  </outline>
</glyph>
<glyph name="uniE043" format="2">
  <advance width="0"/>
  <unicode hex="E043"/>
  <key>note</key>
  <string>fluteRHBFlatTrillTrill</string>
  <outline>
    <contour>
      <point x="77" y="482" type="curve"/>
      <point x="76" y="482"/>
      <point x="75" y="482"/>
      <point x="75" y="483" type="curve" smooth="yes"/>
      <point x="74" y="484"/>
      <point x="74" y="486"/>
      <point x="75" y="487" type="curve"/>
      <point x="127" y="540" type="line"/>
      <point x="129" y="541"/>
      <point x="131" y="541"/>
      <point x="132" y="540" type="curve" smooth="yes"/>
      <point x="133" y="539"/>
      <point x="133" y="537"/>
      <point x="132" y="536" type="curve"/>
      <point x="79" y="483" type="line"/>
      <point x="78" y="482"/>
      <point x="78" y="482"/>
    </contour>
  </outline>
</glyph>
<glyph name="uniE044" format="2">
  <advance width="0"/>
  <unicode hex="E044"/>
  <key>note</key>
  <string>fluteRH1stFingerTrill</string>
  <outline>
    <contour>
      <point x="142" y="398" type="curve"/>
      <point x="141" y="398"/>
      <point x="140" y="398"/>
      <point x="139" y="398" type="curve" smooth="yes"/>
      <point x="138" y="400"/>
      <point x="138" y="402"/>
      <point x="139" y="403" type="curve"/>
      <point x="237" y="500" type="line"/>
      <point x="238" y="501"/>
      <point x="240" y="501"/>
      <point x="241" y="500" type="curve" smooth="yes"/>
      <point x="242" y="499"/>
      <point x="242" y="497"/>
      <point x="241" y="496" type="curve"/>
      <point x="144" y="398" type="line"/>
      <point x="143" y="398"/>
      <point x="142" y="398"/>
    </contour>
  </outline>
</glyph>
<glyph name="uniE045" format="2">
  <advance width="0"/>
  <unicode hex="E045"/>
  <key>note</key>
  <string>fluteRHDTrillTrill</string>
  <outline>
    <contour>
      <point x="149" y="365" type="curve"/>
      <point x="148" y="365"/>
      <point x="147" y="365"/>
      <point x="146" y="366" type="curve"/>
      <point x="103" y="409" type="line"/>
      <point x="102" y="410"/>
      <point x="102" y="412"/>
      <point x="103" y="413" type="curve" smooth="yes"/>
      <point x="104" y="414"/>
      <point x="106" y="414"/>
      <point x="107" y="413" type="curve"/>
      <point x="151" y="370" type="line"/>
      <point x="152" y="369"/>
      <point x="152" y="367"/>
      <point x="151" y="366" type="curve" smooth="yes"/>
      <point x="150" y="365"/>
      <point x="149" y="365"/>
    </contour>
  </outline>
</glyph>
<glyph name="uniE047" format="2">
  <advance width="0"/>
  <unicode hex="E047"/>
  <key>note</key>
  <string>fluteRHDSharpTrillTrill</string>
  <outline>
    <contour>
      <point x="149" y="243" type="curve"/>
      <point x="148" y="243"/>
      <point x="147" y="243"/>
      <point x="146" y="244" type="curve"/>
      <point x="103" y="287" type="line"/>
      <point x="102" y="288"/>
      <point x="102" y="290"/>
      <point x="103" y="291" type="curve" smooth="yes"/>
      <point x="104" y="292"/>
      <point x="106" y="292"/>
      <point x="107" y="291" type="curve"/>
      <point x="151" y="248" type="line"/>
      <point x="152" y="247"/>
      <point x="152" y="245"/>
      <point x="151" y="244" type="curve" smooth="yes"/>
      <point x="150" y="243"/>
      <point x="149" y="243"/>
    </contour>
  </outline>
</glyph>
<glyph name="uniE048" format="2">
  <advance width="0"/>
  <unicode hex="E048"/>
  <key>note</key>
  <string>fluteRH3rdFingerTrill</string>
  <outline>
    <contour>
      <point x="142" y="154" type="curve"/>
      <point x="141" y="154"/>
      <point x="140" y="154"/>
      <point x="139" y="154" type="curve" smooth="yes"/>
      <point x="138" y="156"/>
      <point x="138" y="158"/>
      <point x="139" y="159" type="curve"/>
      <point x="237" y="256" type="line"/>
      <point x="238" y="257"/>
      <point x="240" y="257"/>
      <point x="241" y="256" type="curve" smooth="yes"/>
      <point x="242" y="255"/>
      <point x="242" y="253"/>
      <point x="241" y="252" type="curve"/>
      <point x="144" y="154" type="line"/>
      <point x="143" y="154"/>
      <point x="142" y="154"/>
    </contour>
  </outline>
</glyph>
<glyph name="uniE049" format="2">
  <advance width="0"/>
  <unicode hex="E049"/>
  <key>note</key>
  <string>fluteRHEFlatPaddleTrill</string>
  <outline>
    <contour>
      <point x="117" y="96" type="curve"/>
      <point x="116" y="96"/>
      <point x="115" y="97"/>
      <point x="114" y="97" type="curve" smooth="yes"/>
      <point x="113" y="98"/>
      <point x="113" y="100"/>
      <point x="114" y="101" type="curve"/>
      <point x="169" y="156" type="line"/>
      <point x="171" y="158"/>
      <point x="173" y="158"/>
      <point x="174" y="156" type="curve" smooth="yes"/>
      <point x="175" y="155"/>
      <point x="175" y="153"/>
      <point x="174" y="152" type="curve"/>
      <point x="119" y="97" type="line"/>
      <point x="118" y="97"/>
      <point x="117" y="96"/>
    </contour>
  </outline>
</glyph>
<glyph name="uniE04A" format="2">
  <advance width="0"/>
  <unicode hex="E04A"/>
  <key>note</key>
  <string>fluteRHLowCSharpTrill</string>
  <outline>
    <contour>
      <point x="103" y="29" type="curve"/>
      <point x="102" y="29"/>
      <point x="101" y="29"/>
      <point x="100" y="30" type="curve" smooth="yes"/>
      <point x="99" y="31"/>
      <point x="99" y="33"/>
      <point x="100" y="34" type="curve"/>
      <point x="158" y="92" type="line"/>
      <point x="159" y="93"/>
      <point x="161" y="93"/>
      <point x="162" y="92" type="curve" smooth="yes"/>
      <point x="164" y="91"/>
      <point x="164" y="89"/>
      <point x="162" y="88" type="curve"/>
      <point x="105" y="30" type="line"/>
      <point x="104" y="29"/>
      <point x="103" y="29"/>
    </contour>
  </outline>
</glyph>
<glyph name="uniE04B" format="2">
  <advance width="0"/>
  <unicode hex="E04B"/>
  <key>note</key>
  <string>fluteRHLowCTrill</string>
  <outline>
    <contour>
      <point x="164" y="52" type="curve"/>
      <point x="163" y="52"/>
      <point x="162" y="52"/>
      <point x="162" y="53" type="curve" smooth="yes"/>
      <point x="161" y="54"/>
      <point x="161" y="56"/>
      <point x="162" y="57" type="curve"/>
      <point x="190" y="85" type="line"/>
      <point x="191" y="87"/>
      <point x="193" y="87"/>
      <point x="194" y="85" type="curve" smooth="yes"/>
      <point x="196" y="84"/>
      <point x="196" y="82"/>
      <point x="194" y="81" type="curve"/>
      <point x="166" y="53" type="line"/>
      <point x="165" y="52"/>
      <point x="165" y="52"/>
    </contour>
  </outline>
</glyph>
<glyph name="uniE04D" format="2">
  <advance width="0"/>
  <unicode hex="E04D"/>
  <key>note</key>
  <string>fluteRHGizmoTrill</string>
  <outline>
    <contour>
      <point x="182" y="-8" type="curve"/>
      <point x="182" y="-8"/>
      <point x="181" y="-8"/>
      <point x="180" y="-7" type="curve" smooth="yes"/>
      <point x="179" y="-6"/>
      <point x="179" y="-4"/>
      <point x="180" y="-3" type="curve"/>
      <point x="217" y="34" type="line"/>
      <point x="219" y="36"/>
      <point x="221" y="36"/>
      <point x="222" y="34" type="curve" smooth="yes"/>
      <point x="223" y="33"/>
      <point x="223" y="31"/>
      <point x="222" y="30" type="curve"/>
      <point x="184" y="-7" type="line"/>
      <point x="184" y="-8"/>
      <point x="183" y="-8"/>
    </contour>
  </outline>
</glyph>
<glyph name="uniE0A2" format="2">
  <advance width="0"/>
  <unicode hex="E0A2"/>
  <key>note</key>
  <string>clarinetRegisterClosed</string>
  <outline>
    <contour>
      <point x="45" y="996" type="line"/>
      <point x="41" y="996"/>
      <point x="35" y="972"/>
      <point x="34" y="967" type="curve" smooth="yes"/>
      <point x="33" y="965"/>
      <point x="30" y="955"/>
      <point x="30" y="946" type="curve" smooth="yes"/>
      <point x="30" y="936"/>
      <point x="33" y="927"/>
      <point x="46" y="927" type="curve" smooth="yes"/>
      <point x="57" y="927"/>
      <point x="61" y="934"/>
      <point x="61" y="943" type="curve" smooth="yes"/>
      <point x="61" y="952"/>
      <point x="57" y="962"/>
      <point x="56" y="967" type="curve" smooth="yes"/>
      <point x="56" y="974"/>
      <point x="52" y="996"/>
      <point x="45" y="996" type="curve"/>
    </contour>
  </outline>
</glyph>
<glyph name="uniE0A3" format="2">
  <advance width="0"/>
  <unicode hex="E0A3"/>
  <key>note</key>
  <string>clarinetLHThumbClosed</string>
  <outline>
    <contour>
      <point x="60" y="900" type="line"/>
      <point x="60" y="892"/>
      <point x="54" y="885"/>
      <point x="45" y="885" type="curve" smooth="yes"/>
      <point x="37" y="885"/>
      <point x="31" y="892"/>
      <point x="31" y="900" type="curve" smooth="yes"/>
      <point x="31" y="908"/>
      <point x="37" y="914"/>
      <point x="45" y="914" type="curve" smooth="yes"/>
      <point x="54" y="914"/>
      <point x="60" y="908"/>
      <point x="60" y="900" type="curve"/>
    </contour>
  </outline>
</glyph>
<glyph name="uniE0A5" format="2">
  <advance width="0"/>
  <unicode hex="E0A5"/>
  <key>note</key>
  <string>clarinetLHGSharpClosed</string>
  <outline>
    <contour>
      <point x="119" y="871" type="line"/>
      <point x="119" y="871"/>
      <point x="119" y="833"/>
      <point x="119" y="826" type="curve" smooth="yes"/>
      <point x="119" y="819"/>
      <point x="127" y="797"/>
      <point x="147" y="797" type="curve" smooth="yes"/>
      <point x="163" y="797"/>
      <point x="165" y="805"/>
      <point x="165" y="809" type="curve" smooth="yes"/>
      <point x="165" y="823"/>
      <point x="148" y="825"/>
      <point x="141" y="833" type="curve"/>
      <point x="139" y="835"/>
      <point x="138" y="836"/>
      <point x="138" y="836" type="curve" smooth="yes"/>
      <point x="133" y="842"/>
      <point x="129" y="847"/>
      <point x="129" y="870" type="curve"/>
    </contour>
  </outline>
</glyph>
<glyph name="uniE0A6" format="2">
  <advance width="0"/>
  <unicode hex="E0A6"/>
  <key>note</key>
  <string>clarinetLH1stFingerClosed</string>
  <outline>
    <contour>
      <point x="119" y="779" type="line"/>
      <point x="119" y="762"/>
      <point x="104" y="747"/>
      <point x="87" y="747" type="curve" smooth="yes"/>
      <point x="69" y="747"/>
      <point x="54" y="762"/>
      <point x="54" y="779" type="curve" smooth="yes"/>
      <point x="54" y="797"/>
      <point x="69" y="812"/>
      <point x="87" y="812" type="curve" smooth="yes"/>
      <point x="104" y="812"/>
      <point x="119" y="797"/>
      <point x="119" y="779" type="curve"/>
    </contour>
  </outline>
</glyph>
<glyph name="uniE0A7" format="2">
  <advance width="0"/>
  <unicode hex="E0A7"/>
  <key>note</key>
  <string>clarinetLH2ndFingerClosed</string>
  <outline>
    <contour>
      <point x="119" y="693" type="line"/>
      <point x="119" y="675"/>
      <point x="104" y="660"/>
      <point x="87" y="660" type="curve" smooth="yes"/>
      <point x="69" y="660"/>
      <point x="54" y="675"/>
      <point x="54" y="693" type="curve" smooth="yes"/>
      <point x="54" y="711"/>
      <point x="69" y="725"/>
      <point x="87" y="725" type="curve" smooth="yes"/>
      <point x="104" y="725"/>
      <point x="119" y="711"/>
      <point x="119" y="693" type="curve"/>
    </contour>
  </outline>
</glyph>
<glyph name="uniE0AA" format="2">
  <advance width="0"/>
  <unicode hex="E0AA"/>
  <key>note</key>
  <string>clarinetLHCSharpClosed</string>
  <outline>
    <contour>
      <point x="63" y="525" type="line"/>
      <point x="106" y="525" type="line" smooth="yes"/>
      <point x="112" y="525"/>
      <point x="116" y="530"/>
      <point x="116" y="535" type="curve" smooth="yes"/>
      <point x="116" y="539"/>
      <point x="113" y="544"/>
      <point x="105" y="544" type="curve" smooth="yes"/>
      <point x="95" y="544"/>
      <point x="92" y="535"/>
      <point x="92" y="535" type="curve"/>
      <point x="63" y="535" type="line" smooth="yes"/>
      <point x="59" y="535"/>
      <point x="57" y="532"/>
      <point x="57" y="530" type="curve" smooth="yes"/>
      <point x="57" y="527"/>
      <point x="59" y="525"/>
      <point x="63" y="525" type="curve"/>
    </contour>
  </outline>
</glyph>
<glyph name="uniE0AB" format="2">
  <advance width="0"/>
  <unicode hex="E0AB"/>
  <key>note</key>
  <string>clarinetLHFClosed</string>
  <outline>
    <contour>
      <point x="127" y="504" type="line"/>
      <point x="141" y="504" type="line" smooth="yes"/>
      <point x="149" y="504"/>
      <point x="153" y="509"/>
      <point x="153" y="514" type="curve" smooth="yes"/>
      <point x="153" y="519"/>
      <point x="150" y="523"/>
      <point x="145" y="523" type="curve" smooth="yes"/>
      <point x="145" y="523"/>
      <point x="143" y="523"/>
      <point x="141" y="523" type="curve" smooth="yes"/>
      <point x="136" y="523"/>
      <point x="127" y="521"/>
      <point x="127" y="504" type="curve"/>
    </contour>
  </outline>
</glyph>
<glyph name="uniE0B1" format="2">
  <advance width="0"/>
  <unicode hex="E0B1"/>
  <key>note</key>
  <string>clarinetRH4thSideClosed</string>
  <outline>
    <contour>
      <point x="41" y="357" type="line"/>
      <point x="41" y="352"/>
      <point x="38" y="349"/>
      <point x="33" y="349" type="curve"/>
      <point x="11" y="349" type="line"/>
      <point x="7" y="349"/>
      <point x="3" y="352"/>
      <point x="3" y="357" type="curve"/>
      <point x="3" y="362"/>
      <point x="7" y="365"/>
      <point x="11" y="365" type="curve"/>
      <point x="33" y="365" type="line"/>
      <point x="38" y="365"/>
      <point x="41" y="362"/>
      <point x="41" y="357" type="curve"/>
    </contour>
  </outline>
</glyph>
<glyph name="uniE0B2" format="2">
  <advance width="0"/>
  <unicode hex="E0B2"/>
  <key>note</key>
  <string>clarinetRH1stFingerClosed</string>
  <outline>
    <contour>
      <point x="119" y="333" type="line"/>
      <point x="119" y="316"/>
      <point x="104" y="301"/>
      <point x="87" y="301" type="curve" smooth="yes"/>
      <point x="69" y="301"/>
      <point x="54" y="316"/>
      <point x="54" y="333" type="curve" smooth="yes"/>
      <point x="54" y="351"/>
      <point x="69" y="366"/>
      <point x="87" y="366" type="curve" smooth="yes"/>
      <point x="104" y="366"/>
      <point x="119" y="351"/>
      <point x="119" y="333" type="curve"/>
    </contour>
  </outline>
</glyph>
<glyph name="uniE0B3" format="2">
  <advance width="0"/>
  <unicode hex="E0B3"/>
  <key>note</key>
  <string>clarinetRH2ndFingerClosed</string>
  <outline>
    <contour>
      <point x="119" y="247" type="line"/>
      <point x="119" y="229"/>
      <point x="104" y="214"/>
      <point x="87" y="214" type="curve" smooth="yes"/>
      <point x="69" y="214"/>
      <point x="54" y="229"/>
      <point x="54" y="247" type="curve" smooth="yes"/>
      <point x="54" y="265"/>
      <point x="69" y="279"/>
      <point x="87" y="279" type="curve" smooth="yes"/>
      <point x="104" y="279"/>
      <point x="119" y="265"/>
      <point x="119" y="247" type="curve"/>
    </contour>
  </outline>
</glyph>
<glyph name="uniE0B4" format="2">
  <advance width="0"/>
  <unicode hex="E0B4"/>
  <key>note</key>
  <string>clarinetRHBClosed</string>
  <outline>
    <contour>
      <point x="65" y="196" type="line"/>
      <point x="65" y="193"/>
      <point x="63" y="191"/>
      <point x="60" y="191" type="curve"/>
      <point x="28" y="191" type="line"/>
      <point x="25" y="191"/>
      <point x="23" y="193"/>
      <point x="23" y="196" type="curve"/>
      <point x="23" y="200"/>
      <point x="25" y="202"/>
      <point x="28" y="202" type="curve"/>
      <point x="60" y="202" type="line"/>
      <point x="63" y="202"/>
      <point x="65" y="200"/>
      <point x="65" y="196" type="curve"/>
    </contour>
  </outline>
</glyph>
<glyph name="uniE0B5" format="2">
  <advance width="0"/>
  <unicode hex="E0B5"/>
  <key>note</key>
  <string>clarinetRH3rdFingerClosed</string>
  <outline>
    <contour>
      <point x="119" y="143" type="line"/>
      <point x="119" y="125"/>
      <point x="104" y="110"/>
      <point x="87" y="110" type="curve" smooth="yes"/>
      <point x="69" y="110"/>
      <point x="54" y="125"/>
      <point x="54" y="143" type="curve" smooth="yes"/>
      <point x="54" y="161"/>
      <point x="69" y="175"/>
      <point x="87" y="175" type="curve" smooth="yes"/>
      <point x="104" y="175"/>
      <point x="119" y="161"/>
      <point x="119" y="143" type="curve"/>
    </contour>
  </outline>
</glyph>
<glyph name="uniE0B6" format="2">
  <advance width="0"/>
  <unicode hex="E0B6"/>
  <key>note</key>
  <string>clarinetRHFSharpClosed</string>
  <outline>
    <contour>
      <point x="32" y="72" type="line"/>
      <point x="36" y="72"/>
      <point x="44" y="74"/>
      <point x="44" y="78" type="curve" smooth="yes"/>
      <point x="44" y="92" type="line" smooth="yes"/>
      <point x="44" y="95"/>
      <point x="37" y="97"/>
      <point x="32" y="97" type="curve"/>
      <point x="26" y="97"/>
      <point x="19" y="95"/>
      <point x="19" y="92" type="curve" smooth="yes"/>
      <point x="19" y="78" type="line" smooth="yes"/>
      <point x="19" y="74"/>
      <point x="26" y="72"/>
      <point x="32" y="72" type="curve"/>
    </contour>
  </outline>
</glyph>
<glyph name="uniE0B8" format="2">
  <advance width="0"/>
  <unicode hex="E0B8"/>
  <key>note</key>
  <string>clarinetRHEClosed</string>
  <outline>
    <contour>
      <point x="32" y="37" type="line"/>
      <point x="36" y="37"/>
      <point x="44" y="39"/>
      <point x="44" y="43" type="curve" smooth="yes"/>
      <point x="44" y="57" type="line" smooth="yes"/>
      <point x="44" y="60"/>
      <point x="37" y="62"/>
      <point x="32" y="62" type="curve"/>
      <point x="26" y="62"/>
      <point x="19" y="60"/>
      <point x="19" y="57" type="curve" smooth="yes"/>
      <point x="19" y="43" type="line" smooth="yes"/>
      <point x="19" y="39"/>
      <point x="26" y="37"/>
      <point x="32" y="37" type="curve"/>
    </contour>
  </outline>
</glyph>
<glyph name="uniE0B9" format="2">
  <advance width="0"/>
  <unicode hex="E0B9"/>
  <key>note</key>
  <string>clarinetRHFClosed</string>
  <outline>
    <contour>
      <point x="66" y="22" type="line"/>
      <point x="70" y="22"/>
      <point x="77" y="24"/>
      <point x="77" y="27" type="curve" smooth="yes"/>
      <point x="77" y="42" type="line" smooth="yes"/>
      <point x="77" y="45"/>
      <point x="70" y="47"/>
      <point x="66" y="47" type="curve"/>
      <point x="60" y="47"/>
      <point x="53" y="45"/>
      <point x="53" y="42" type="curve" smooth="yes"/>
      <point x="53" y="27" type="line" smooth="yes"/>
      <point x="53" y="24"/>
      <point x="60" y="22"/>
      <point x="66" y="22" type="curve"/>
    </contour>
  </outline>
</glyph>
<glyph name="uniE0BA" format="2">
  <advance width="0"/>
  <unicode hex="E0BA"/>
  <key>note</key>
  <string>clarinetBassEFlatClosed</string>
  <outline>
    <contour>
      <point x="32" y="3" type="line"/>
      <point x="36" y="3"/>
      <point x="44" y="5"/>
      <point x="44" y="9" type="curve" smooth="yes"/>
      <point x="44" y="23" type="line" smooth="yes"/>
      <point x="44" y="26"/>
      <point x="37" y="28"/>
      <point x="32" y="28" type="curve"/>
      <point x="26" y="28"/>
      <point x="19" y="26"/>
      <point x="19" y="23" type="curve" smooth="yes"/>
      <point x="19" y="9" type="line" smooth="yes"/>
      <point x="19" y="5"/>
      <point x="26" y="3"/>
      <point x="32" y="3" type="curve"/>
    </contour>
  </outline>
</glyph>
<glyph name="uniE0BB" format="2">
  <advance width="0"/>
  <unicode hex="E0BB"/>
  <key>note</key>
  <string>clarinetLH1stFingerRingOnly</string>
  <outline>
    <contour>
      <point x="87" y="802" type="line"/>
      <point x="99" y="802"/>
      <point x="109" y="792"/>
      <point x="109" y="779" type="curve"/>
      <point x="109" y="767"/>
      <point x="99" y="757"/>
      <point x="87" y="757" type="curve"/>
      <point x="74" y="757"/>
      <point x="64" y="767"/>
      <point x="64" y="779" type="curve"/>
      <point x="64" y="792"/>
      <point x="74" y="802"/>
      <point x="87" y="802" type="curve"/>
    </contour>
    <contour>
      <point x="87" y="812" type="line"/>
      <point x="69" y="812"/>
      <point x="54" y="797"/>
      <point x="54" y="779" type="curve"/>
      <point x="54" y="762"/>
      <point x="69" y="747"/>
      <point x="87" y="747" type="curve"/>
      <point x="104" y="747"/>
      <point x="119" y="762"/>
      <point x="119" y="779" type="curve"/>
      <point x="119" y="797"/>
      <point x="104" y="812"/>
      <point x="87" y="812" type="curve"/>
    </contour>
  </outline>
</glyph>
<glyph name="uniE0BC" format="2">
  <advance width="0"/>
  <unicode hex="E0BC"/>
  <key>note</key>
  <string>clarinetLH2ndFingerRingOnly</string>
  <outline>
    <contour>
      <point x="87" y="715" type="line"/>
      <point x="99" y="715"/>
      <point x="109" y="705"/>
      <point x="109" y="693" type="curve"/>
      <point x="109" y="680"/>
      <point x="99" y="670"/>
      <point x="87" y="670" type="curve"/>
      <point x="74" y="670"/>
      <point x="64" y="680"/>
      <point x="64" y="693" type="curve"/>
      <point x="64" y="705"/>
      <point x="74" y="715"/>
      <point x="87" y="715" type="curve"/>
    </contour>
    <contour>
      <point x="87" y="725" type="line"/>
      <point x="69" y="725"/>
      <point x="54" y="711"/>
      <point x="54" y="693" type="curve"/>
      <point x="54" y="675"/>
      <point x="69" y="660"/>
      <point x="87" y="660" type="curve"/>
      <point x="104" y="660"/>
      <point x="119" y="675"/>
      <point x="119" y="693" type="curve"/>
      <point x="119" y="711"/>
      <point x="104" y="725"/>
      <point x="87" y="725" type="curve"/>
    </contour>
  </outline>
</glyph>
<glyph name="uniE0BE" format="2">
  <advance width="0"/>
  <unicode hex="E0BE"/>
  <key>note</key>
  <string>clarinetRH1stFingerRingOnly</string>
  <outline>
    <contour>
      <point x="87" y="356" type="line"/>
      <point x="99" y="356"/>
      <point x="109" y="346"/>
      <point x="109" y="333" type="curve"/>
      <point x="109" y="321"/>
      <point x="99" y="311"/>
      <point x="87" y="311" type="curve"/>
      <point x="74" y="311"/>
      <point x="64" y="321"/>
      <point x="64" y="333" type="curve"/>
      <point x="64" y="346"/>
      <point x="74" y="356"/>
      <point x="87" y="356" type="curve"/>
    </contour>
    <contour>
      <point x="87" y="366" type="line"/>
      <point x="69" y="366"/>
      <point x="54" y="351"/>
      <point x="54" y="333" type="curve"/>
      <point x="54" y="316"/>
      <point x="69" y="301"/>
      <point x="87" y="301" type="curve"/>
      <point x="104" y="301"/>
      <point x="119" y="316"/>
      <point x="119" y="333" type="curve"/>
      <point x="119" y="351"/>
      <point x="104" y="366"/>
      <point x="87" y="366" type="curve"/>
    </contour>
  </outline>
</glyph>
<glyph name="uniE0C1" format="2">
  <advance width="0"/>
  <unicode hex="E0C1"/>
  <key>note</key>
  <string>clarinetLH1stFingerHalfClosedLeft</string>
  <outline>
    <contour>
      <point x="87" y="747" type="line"/>
      <point x="69" y="747"/>
      <point x="54" y="762"/>
      <point x="54" y="779" type="curve" smooth="yes"/>
      <point x="54" y="797"/>
      <point x="69" y="812"/>
      <point x="87" y="812" type="curve"/>
    </contour>
  </outline>
</glyph>
<glyph name="uniE0C2" format="2">
  <advance width="0"/>
  <unicode hex="E0C2"/>
  <key>note</key>
  <string>clarinetLH2ndFingerHalfClosedLeft</string>
  <outline>
    <contour>
      <point x="87" y="660" type="line"/>
      <point x="69" y="660"/>
      <point x="54" y="675"/>
      <point x="54" y="693" type="curve" smooth="yes"/>
      <point x="54" y="711"/>
      <point x="69" y="725"/>
      <point x="87" y="725" type="curve"/>
    </contour>
  </outline>
</glyph>
<glyph name="uniE0C3" format="2">
  <advance width="0"/>
  <unicode hex="E0C3"/>
  <key>note</key>
  <string>clarinetLH3rdFingerHalfClosedLeft</string>
  <outline>
    <contour>
      <point x="87" y="557" type="line"/>
      <point x="69" y="557"/>
      <point x="54" y="572"/>
      <point x="54" y="589" type="curve" smooth="yes"/>
      <point x="54" y="607"/>
      <point x="69" y="622"/>
      <point x="87" y="622" type="curve"/>
    </contour>
  </outline>
</glyph>
<glyph name="uniE0C4" format="2">
  <advance width="0"/>
  <unicode hex="E0C4"/>
  <key>note</key>
  <string>clarinetRH1stFingerHalfClosedLeft</string>
  <outline>
    <contour>
      <point x="87" y="301" type="line"/>
      <point x="69" y="301"/>
      <point x="54" y="316"/>
      <point x="54" y="333" type="curve" smooth="yes"/>
      <point x="54" y="351"/>
      <point x="69" y="366"/>
      <point x="87" y="366" type="curve"/>
    </contour>
  </outline>
</glyph>
<glyph name="uniE0C5" format="2">
  <advance width="0"/>
  <unicode hex="E0C5"/>
  <key>note</key>
  <string>clarinetRH2ndFingerHalfClosedLeft</string>
  <outline>
    <contour>
      <point x="87" y="214" type="line"/>
      <point x="69" y="214"/>
      <point x="54" y="229"/>
      <point x="54" y="247" type="curve" smooth="yes"/>
      <point x="54" y="265"/>
      <point x="69" y="279"/>
      <point x="87" y="279" type="curve"/>
    </contour>
  </outline>
</glyph>
<glyph name="uniE0C6" format="2">
  <advance width="0"/>
  <unicode hex="E0C6"/>
  <key>note</key>
  <string>clarinetRH3rdFingerHalfClosedLeft</string>
  <outline>
    <contour>
      <point x="87" y="110" type="line"/>
      <point x="69" y="110"/>
      <point x="54" y="125"/>
      <point x="54" y="143" type="curve" smooth="yes"/>
      <point x="54" y="161"/>
      <point x="69" y="175"/>
      <point x="87" y="175" type="curve"/>
    </contour>
  </outline>
</glyph>
<glyph name="uniE0C7" format="2">
  <advance width="0"/>
  <unicode hex="E0C7"/>
  <key>note</key>
  <string>clarinetLH1stFingerHalfClosedRight</string>
  <outline>
    <contour>
      <point x="119" y="779" type="line"/>
      <point x="119" y="762"/>
      <point x="104" y="747"/>
      <point x="87" y="747" type="curve"/>
      <point x="87" y="812" type="line"/>
      <point x="104" y="812"/>
      <point x="119" y="797"/>
      <point x="119" y="779" type="curve"/>
    </contour>
  </outline>
</glyph>
<glyph name="uniE0C8" format="2">
  <advance width="0"/>
  <unicode hex="E0C8"/>
  <key>note</key>
  <string>clarinetLH2ndFingerHalfClosedRight</string>
  <outline>
    <contour>
      <point x="119" y="693" type="line"/>
      <point x="119" y="675"/>
      <point x="104" y="661"/>
      <point x="87" y="661" type="curve"/>
      <point x="87" y="725" type="line"/>
      <point x="104" y="725"/>
      <point x="119" y="711"/>
      <point x="119" y="693" type="curve"/>
    </contour>
  </outline>
</glyph>
<glyph name="uniE0C9" format="2">
  <advance width="0"/>
  <unicode hex="E0C9"/>
  <key>note</key>
  <string>clarinetLH3rdFingerHalfClosedRight</string>
  <outline>
    <contour>
      <point x="119" y="589" type="line"/>
      <point x="119" y="572"/>
      <point x="104" y="557"/>
      <point x="87" y="557" type="curve"/>
      <point x="87" y="622" type="line"/>
      <point x="104" y="622"/>
      <point x="119" y="607"/>
      <point x="119" y="589" type="curve"/>
    </contour>
  </outline>
</glyph>
<glyph name="uniE0CA" format="2">
  <advance width="0"/>
  <unicode hex="E0CA"/>
  <key>note</key>
  <string>clarinetRH1stFingerHalfClosedRight</string>
  <outline>
    <contour>
      <point x="119" y="333" type="line"/>
      <point x="119" y="316"/>
      <point x="104" y="301"/>
      <point x="87" y="301" type="curve"/>
      <point x="87" y="366" type="line"/>
      <point x="104" y="366"/>
      <point x="119" y="351"/>
      <point x="119" y="333" type="curve"/>
    </contour>
  </outline>
</glyph>
<glyph name="uniE0CB" format="2">
  <advance width="0"/>
  <unicode hex="E0CB"/>
  <key>note</key>
  <string>clarinetRH2ndFingerHalfClosedRight</string>
  <outline>
    <contour>
      <point x="119" y="247" type="line"/>
      <point x="119" y="229"/>
      <point x="104" y="215"/>
      <point x="87" y="215" type="curve"/>
      <point x="87" y="279" type="line"/>
      <point x="104" y="279"/>
      <point x="119" y="265"/>
      <point x="119" y="247" type="curve"/>
    </contour>
  </outline>
</glyph>
<glyph name="uniE0CC" format="2">
  <advance width="0"/>
  <unicode hex="E0CC"/>
  <key>note</key>
  <string>clarinetRH3rdFingerHalfClosedRight</string>
  <outline>
    <contour>
      <point x="119" y="143" type="line"/>
      <point x="119" y="125"/>
      <point x="104" y="110"/>
      <point x="87" y="110" type="curve"/>
      <point x="87" y="175" type="line"/>
      <point x="104" y="175"/>
      <point x="119" y="161"/>
      <point x="119" y="143" type="curve"/>
    </contour>
  </outline>
</glyph>
<glyph name="uniE0CD" format="2">
  <advance width="0"/>
  <unicode hex="E0CD"/>
  <key>note</key>
  <string>clarinetLH1stFingerQuarterClosedLeft</string>
  <outline>
    <contour>
      <point x="70" y="808" type="line"/>
      <point x="61" y="802"/>
      <point x="54" y="792"/>
      <point x="54" y="780" type="curve" smooth="yes"/>
      <point x="54" y="768"/>
      <point x="61" y="757"/>
      <point x="70" y="752" type="curve"/>
    </contour>
  </outline>
</glyph>
<glyph name="uniE0CE" format="2">
  <advance width="0"/>
  <unicode hex="E0CE"/>
  <key>note</key>
  <string>clarinetLH2ndFingerQuarterClosedLeft</string>
  <outline>
    <contour>
      <point x="70" y="721" type="line"/>
      <point x="61" y="715"/>
      <point x="54" y="705"/>
      <point x="54" y="693" type="curve" smooth="yes"/>
      <point x="54" y="681"/>
      <point x="61" y="670"/>
      <point x="70" y="665" type="curve"/>
    </contour>
  </outline>
</glyph>
<glyph name="uniE0CF" format="2">
  <advance width="0"/>
  <unicode hex="E0CF"/>
  <key>note</key>
  <string>clarinetLH3rdFingerQuarterClosedLeft</string>
  <outline>
    <contour>
      <point x="70" y="617" type="line"/>
      <point x="61" y="612"/>
      <point x="54" y="601"/>
      <point x="54" y="589" type="curve" smooth="yes"/>
      <point x="54" y="577"/>
      <point x="61" y="567"/>
      <point x="70" y="561" type="curve"/>
    </contour>
  </outline>
</glyph>
<glyph name="uniE0D0" format="2">
  <advance width="0"/>
  <unicode hex="E0D0"/>
  <key>note</key>
  <string>clarinetRH1stFingerQuarterClosedLeft</string>
  <outline>
    <contour>
      <point x="70" y="361" type="line"/>
      <point x="61" y="356"/>
      <point x="54" y="345"/>
      <point x="54" y="333" type="curve" smooth="yes"/>
      <point x="54" y="321"/>
      <point x="61" y="311"/>
      <point x="70" y="305" type="curve"/>
    </contour>
  </outline>
</glyph>
<glyph name="uniE0D1" format="2">
  <advance width="0"/>
  <unicode hex="E0D1"/>
  <key>note</key>
  <string>clarinetRH2ndFingerQuarterClosedLeft</string>
  <outline>
    <contour>
      <point x="70" y="274" type="line"/>
      <point x="61" y="269"/>
      <point x="54" y="258"/>
      <point x="54" y="246" type="curve" smooth="yes"/>
      <point x="54" y="234"/>
      <point x="61" y="224"/>
      <point x="70" y="218" type="curve"/>
    </contour>
  </outline>
</glyph>
<glyph name="uniE0D2" format="2">
  <advance width="0"/>
  <unicode hex="E0D2"/>
  <key>note</key>
  <string>clarinetRH3rdFingerQuarterClosedLeft</string>
  <outline>
    <contour>
      <point x="70" y="171" type="line"/>
      <point x="61" y="165"/>
      <point x="54" y="155"/>
      <point x="54" y="143" type="curve" smooth="yes"/>
      <point x="54" y="131"/>
      <point x="61" y="120"/>
      <point x="70" y="115" type="curve"/>
    </contour>
  </outline>
</glyph>
<glyph name="uniE0D3" format="2">
  <advance width="0"/>
  <unicode hex="E0D3"/>
  <key>note</key>
  <string>clarinetLH1stFingerQuarterClosedRight</string>
  <outline>
    <contour>
      <point x="103" y="808" type="line"/>
      <point x="112" y="802"/>
      <point x="119" y="792"/>
      <point x="119" y="780" type="curve" smooth="yes"/>
      <point x="119" y="768"/>
      <point x="112" y="757"/>
      <point x="103" y="752" type="curve"/>
    </contour>
  </outline>
</glyph>
<glyph name="uniE0D4" format="2">
  <advance width="0"/>
  <unicode hex="E0D4"/>
  <key>note</key>
  <string>clarinetLH2ndFingerQuarterClosedRight</string>
  <outline>
    <contour>
      <point x="103" y="721" type="line"/>
      <point x="112" y="715"/>
      <point x="119" y="705"/>
      <point x="119" y="693" type="curve" smooth="yes"/>
      <point x="119" y="681"/>
      <point x="112" y="670"/>
      <point x="103" y="665" type="curve"/>
    </contour>
  </outline>
</glyph>
<glyph name="uniE0D5" format="2">
  <advance width="0"/>
  <unicode hex="E0D5"/>
  <key>note</key>
  <string>clarinetLH3rdFingerQuarterClosedRight</string>
  <outline>
    <contour>
      <point x="103" y="617" type="line"/>
      <point x="112" y="612"/>
      <point x="119" y="601"/>
      <point x="119" y="589" type="curve" smooth="yes"/>
      <point x="119" y="577"/>
      <point x="112" y="567"/>
      <point x="103" y="561" type="curve"/>
    </contour>
  </outline>
</glyph>
<glyph name="uniE0D6" format="2">
  <advance width="0"/>
  <unicode hex="E0D6"/>
  <key>note</key>
  <string>clarinetRH1stFingerQuarterClosedRight</string>
  <outline>
    <contour>
      <point x="103" y="361" type="line"/>
      <point x="112" y="356"/>
      <point x="119" y="345"/>
      <point x="119" y="333" type="curve" smooth="yes"/>
      <point x="119" y="321"/>
      <point x="112" y="311"/>
      <point x="103" y="305" type="curve"/>
    </contour>
  </outline>
</glyph>
<glyph name="uniE0D7" format="2">
  <advance width="0"/>
  <unicode hex="E0D7"/>
  <key>note</key>
  <string>clarinetRH2ndFingerQuarterClosedRight</string>
  <outline>
    <contour>
      <point x="103" y="275" type="line"/>
      <point x="112" y="269"/>
      <point x="119" y="259"/>
      <point x="119" y="247" type="curve" smooth="yes"/>
      <point x="119" y="235"/>
      <point x="112" y="224"/>
      <point x="103" y="219" type="curve"/>
    </contour>
  </outline>
</glyph>
<glyph name="uniE0D8" format="2">
  <advance width="0"/>
  <unicode hex="E0D8"/>
  <key>note</key>
  <string>clarinetRH3rdFingerQuarterClosedRight</string>
  <outline>
    <contour>
      <point x="103" y="171" type="line"/>
      <point x="112" y="165"/>
      <point x="119" y="155"/>
      <point x="119" y="143" type="curve" smooth="yes"/>
      <point x="119" y="131"/>
      <point x="112" y="121"/>
      <point x="103" y="115" type="curve"/>
    </contour>
  </outline>
</glyph>
<glyph name="uniE0D9" format="2">
  <advance width="0"/>
  <unicode hex="E0D9"/>
  <key>note</key>
  <string>clarinetRegisterTrill</string>
  <outline>
    <contour>
      <point x="26" y="935" type="line"/>
      <point x="67" y="976"/>
      <point x="67" y="976"/>
      <point x="67" y="977" type="curve" smooth="yes"/>
      <point x="67" y="979"/>
      <point x="66" y="981"/>
      <point x="65" y="981" type="curve" smooth="yes"/>
      <point x="64" y="981"/>
      <point x="63" y="980"/>
      <point x="63" y="980" type="curve"/>
      <point x="21" y="938" type="line" smooth="yes"/>
      <point x="20" y="937"/>
      <point x="20" y="937"/>
      <point x="20" y="936" type="curve" smooth="yes"/>
      <point x="20" y="935"/>
      <point x="22" y="934"/>
      <point x="23" y="933" type="curve"/>
    </contour>
  </outline>
</glyph>
<glyph name="uniE0DF" format="2">
  <advance width="0"/>
  <unicode hex="E0DF"/>
  <key>note</key>
  <string>clarinetLHEFlatTrill</string>
  <outline>
    <contour>
      <point x="92" y="625" type="line"/>
      <point x="91" y="625"/>
      <point x="90" y="625"/>
      <point x="90" y="626" type="curve" smooth="yes"/>
      <point x="89" y="627"/>
      <point x="89" y="629"/>
      <point x="90" y="630" type="curve"/>
      <point x="131" y="672" type="line"/>
      <point x="133" y="673"/>
      <point x="135" y="673"/>
      <point x="136" y="672" type="curve" smooth="yes"/>
      <point x="137" y="671"/>
      <point x="137" y="669"/>
      <point x="136" y="668" type="curve"/>
      <point x="94" y="626" type="line"/>
      <point x="93" y="625"/>
      <point x="93" y="625"/>
      <point x="92" y="625" type="curve"/>
    </contour>
  </outline>
</glyph>
<glyph name="uniE0E3" format="2">
  <advance width="0"/>
  <unicode hex="E0E3"/>
  <key>note</key>
  <string>clarinetLHGSharpAltTrill</string>
  <outline>
    <contour>
      <point x="127" y="465" type="line"/>
      <point x="127" y="465"/>
      <point x="126" y="465"/>
      <point x="125" y="466" type="curve" smooth="yes"/>
      <point x="124" y="467"/>
      <point x="124" y="469"/>
      <point x="125" y="470" type="curve"/>
      <point x="153" y="498" type="line"/>
      <point x="154" y="499"/>
      <point x="156" y="499"/>
      <point x="157" y="498" type="curve" smooth="yes"/>
      <point x="158" y="497"/>
      <point x="158" y="495"/>
      <point x="157" y="494" type="curve"/>
      <point x="129" y="466" type="line"/>
      <point x="129" y="465"/>
      <point x="128" y="465"/>
      <point x="127" y="465" type="curve"/>
    </contour>
  </outline>
</glyph>
<glyph name="uniE0E4" format="2">
  <advance width="0"/>
  <unicode hex="E0E4"/>
  <key>note</key>
  <string>clarinetLHETrill</string>
  <outline>
    <contour>
      <point x="84" y="477" type="line"/>
      <point x="84" y="477"/>
      <point x="83" y="478"/>
      <point x="82" y="478" type="curve" smooth="yes"/>
      <point x="81" y="479"/>
      <point x="81" y="481"/>
      <point x="82" y="482" type="curve"/>
      <point x="113" y="513" type="line"/>
      <point x="114" y="514"/>
      <point x="116" y="514"/>
      <point x="117" y="513" type="curve" smooth="yes"/>
      <point x="118" y="512"/>
      <point x="118" y="510"/>
      <point x="117" y="509" type="curve"/>
      <point x="86" y="478" type="line"/>
      <point x="86" y="478"/>
      <point x="85" y="477"/>
      <point x="84" y="477" type="curve"/>
    </contour>
  </outline>
</glyph>
<glyph name="uniE0E7" format="2">
  <advance width="0"/>
  <unicode hex="E0E7"/>
  <key>note</key>
  <string>clarinetRH3rdSideTrill</string>
  <outline>
    <contour>
      <point x="14" y="366" type="line"/>
      <point x="13" y="366"/>
      <point x="12" y="366"/>
      <point x="12" y="367" type="curve" smooth="yes"/>
      <point x="10" y="368"/>
      <point x="10" y="370"/>
      <point x="11" y="371" type="curve"/>
      <point x="37" y="397" type="line"/>
      <point x="38" y="399"/>
      <point x="40" y="399"/>
      <point x="41" y="398" type="curve" smooth="yes"/>
      <point x="43" y="396"/>
      <point x="43" y="394"/>
      <point x="41" y="393" type="curve"/>
      <point x="16" y="367" type="line"/>
      <point x="15" y="366"/>
      <point x="14" y="366"/>
      <point x="14" y="366" type="curve"/>
    </contour>
  </outline>
</glyph>
<glyph name="uniE0E9" format="2">
  <advance width="0"/>
  <unicode hex="E0E9"/>
  <key>note</key>
  <string>clarinetRH1stFingerTrill</string>
  <outline>
    <contour>
      <point x="51" y="297" type="line"/>
      <point x="51" y="297"/>
      <point x="50" y="297"/>
      <point x="49" y="298" type="curve" smooth="yes"/>
      <point x="48" y="299"/>
      <point x="48" y="301"/>
      <point x="49" y="302" type="curve"/>
      <point x="118" y="371" type="line"/>
      <point x="119" y="372"/>
      <point x="121" y="372"/>
      <point x="122" y="371" type="curve" smooth="yes"/>
      <point x="124" y="370"/>
      <point x="124" y="368"/>
      <point x="122" y="367" type="curve"/>
      <point x="53" y="298" type="line"/>
      <point x="53" y="297"/>
      <point x="52" y="297"/>
      <point x="51" y="297" type="curve"/>
    </contour>
  </outline>
</glyph>
<glyph name="uniE0EB" format="2">
  <advance width="0"/>
  <unicode hex="E0EB"/>
  <key>note</key>
  <string>clarinetRHBTrill</string>
  <outline>
    <contour>
      <point x="31" y="179" type="line"/>
      <point x="31" y="179"/>
      <point x="30" y="180"/>
      <point x="29" y="180" type="curve" smooth="yes"/>
      <point x="28" y="181"/>
      <point x="28" y="183"/>
      <point x="29" y="184" type="curve"/>
      <point x="55" y="211" type="line"/>
      <point x="56" y="212"/>
      <point x="58" y="212"/>
      <point x="59" y="211" type="curve" smooth="yes"/>
      <point x="60" y="210"/>
      <point x="60" y="208"/>
      <point x="59" y="207" type="curve"/>
      <point x="33" y="180" type="line"/>
      <point x="33" y="180"/>
      <point x="32" y="179"/>
      <point x="31" y="179" type="curve"/>
    </contour>
  </outline>
</glyph>
<glyph name="uniE0ED" format="2">
  <advance width="0"/>
  <unicode hex="E0ED"/>
  <key>note</key>
  <string>clarinetRHFSharpTrill</string>
  <outline>
    <contour>
      <point x="16" y="65" type="line"/>
      <point x="15" y="65"/>
      <point x="14" y="65"/>
      <point x="13" y="66" type="curve" smooth="yes"/>
      <point x="12" y="67"/>
      <point x="12" y="69"/>
      <point x="13" y="70" type="curve"/>
      <point x="45" y="102" type="line"/>
      <point x="47" y="103"/>
      <point x="49" y="103"/>
      <point x="50" y="102" type="curve" smooth="yes"/>
      <point x="51" y="101"/>
      <point x="51" y="99"/>
      <point x="50" y="98" type="curve"/>
      <point x="18" y="66" type="line"/>
      <point x="17" y="65"/>
      <point x="16" y="65"/>
      <point x="16" y="65" type="curve"/>
    </contour>
  </outline>
</glyph>
<glyph name="uniE0EF" format="2">
  <advance width="0"/>
  <unicode hex="E0EF"/>
  <key>note</key>
  <string>clarinetRHETrill</string>
  <outline>
    <contour>
      <point x="16" y="30" type="line"/>
      <point x="15" y="30"/>
      <point x="14" y="31"/>
      <point x="13" y="31" type="curve" smooth="yes"/>
      <point x="12" y="32"/>
      <point x="12" y="34"/>
      <point x="13" y="35" type="curve"/>
      <point x="45" y="67" type="line"/>
      <point x="47" y="69"/>
      <point x="49" y="69"/>
      <point x="50" y="67" type="curve" smooth="yes"/>
      <point x="51" y="66"/>
      <point x="51" y="64"/>
      <point x="50" y="63" type="curve"/>
      <point x="18" y="31" type="line"/>
      <point x="17" y="31"/>
      <point x="16" y="30"/>
      <point x="16" y="30" type="curve"/>
    </contour>
  </outline>
</glyph>
<glyph name="uniE144" format="2">
  <advance width="0"/>
  <unicode hex="E144"/>
  <key>note</key>
  <string>oboeLH2ndOctaveClosed</string>
  <outline>
    <contour>
      <point x="177" y="903" type="line"/>
      <point x="177" y="869"/>
      <point x="170" y="842"/>
      <point x="162" y="842" type="curve" smooth="yes"/>
      <point x="154" y="842"/>
      <point x="147" y="869"/>
      <point x="147" y="903" type="curve" smooth="yes"/>
      <point x="147" y="937"/>
      <point x="154" y="964"/>
      <point x="162" y="964" type="curve" smooth="yes"/>
      <point x="170" y="964"/>
      <point x="177" y="937"/>
      <point x="177" y="903" type="curve"/>
    </contour>
  </outline>
</glyph>
<glyph name="uniE148" format="2">
  <advance width="0"/>
  <unicode hex="E148"/>
  <key>note</key>
  <string>oboeLHCSharpTrillClosed</string>
  <outline>
    <contour>
      <point x="134" y="667" type="line"/>
      <point x="125" y="667"/>
      <point x="121" y="674"/>
      <point x="121" y="681" type="curve" smooth="yes"/>
      <point x="121" y="688"/>
      <point x="125" y="696"/>
      <point x="134" y="696" type="curve" smooth="yes"/>
      <point x="147" y="696"/>
      <point x="163" y="686"/>
      <point x="163" y="682" type="curve" smooth="yes"/>
      <point x="163" y="677"/>
      <point x="148" y="667"/>
      <point x="134" y="667" type="curve"/>
    </contour>
  </outline>
</glyph>
<glyph name="uniE14C" format="2">
  <advance width="0"/>
  <unicode hex="E14C"/>
  <key>note</key>
  <string>oboeLHEFlatClosed</string>
  <outline>
    <contour>
      <point x="128" y="495" type="line"/>
      <point x="128" y="495"/>
      <point x="107" y="505"/>
      <point x="93" y="512" type="curve" smooth="yes"/>
      <point x="89" y="514"/>
      <point x="87" y="518"/>
      <point x="87" y="522" type="curve" smooth="yes"/>
      <point x="87" y="530"/>
      <point x="94" y="539"/>
      <point x="101" y="539" type="curve" smooth="yes"/>
      <point x="102" y="539"/>
      <point x="104" y="539"/>
      <point x="105" y="538" type="curve" smooth="yes"/>
      <point x="117" y="531"/>
      <point x="117" y="531"/>
      <point x="117" y="531" type="curve"/>
      <point x="117" y="531"/>
      <point x="128" y="527"/>
      <point x="128" y="495" type="curve"/>
    </contour>
  </outline>
</glyph>
<glyph name="uniE14D" format="2">
  <advance width="0"/>
  <unicode hex="E14D"/>
  <key>note</key>
  <string>oboeLHFClosed</string>
  <outline>
    <contour>
      <point x="138" y="506" type="line"/>
      <point x="156" y="506" type="line"/>
      <point x="156" y="484" type="line" smooth="yes"/>
      <point x="156" y="474"/>
      <point x="152" y="468"/>
      <point x="147" y="468" type="curve" smooth="yes"/>
      <point x="143" y="468"/>
      <point x="138" y="473"/>
      <point x="138" y="484" type="curve" smooth="yes"/>
    </contour>
  </outline>
</glyph>
<glyph name="uniE14F" format="2">
  <advance width="0"/>
  <unicode hex="E14F"/>
  <key>note</key>
  <string>oboeRHAClosed</string>
  <outline>
    <contour>
      <point x="38" y="440" type="line"/>
      <point x="38" y="412" type="line" smooth="yes"/>
      <point x="38" y="404"/>
      <point x="29" y="398"/>
      <point x="22" y="398" type="curve" smooth="yes"/>
      <point x="18" y="398"/>
      <point x="15" y="400"/>
      <point x="15" y="405" type="curve" smooth="yes"/>
      <point x="15" y="419"/>
      <point x="15" y="423"/>
      <point x="15" y="423" type="curve" smooth="yes"/>
      <point x="15" y="431"/>
      <point x="24" y="437"/>
      <point x="38" y="440" type="curve"/>
    </contour>
  </outline>
</glyph>
<glyph name="uniE152" format="2">
  <advance width="0"/>
  <unicode hex="E152"/>
  <key>note</key>
  <string>oboeRHDTrillClosed</string>
  <outline>
    <contour>
      <point x="134" y="321" type="line"/>
      <point x="125" y="321"/>
      <point x="121" y="328"/>
      <point x="121" y="335" type="curve" smooth="yes"/>
      <point x="121" y="342"/>
      <point x="125" y="350"/>
      <point x="134" y="350" type="curve" smooth="yes"/>
      <point x="147" y="350"/>
      <point x="163" y="340"/>
      <point x="163" y="336" type="curve" smooth="yes"/>
      <point x="163" y="331"/>
      <point x="148" y="321"/>
      <point x="134" y="321" type="curve"/>
    </contour>
  </outline>
</glyph>
<glyph name="uniE153" format="2">
  <advance width="0"/>
  <unicode hex="E153"/>
  <key>note</key>
  <string>oboeRH2ndFingerClosed</string>
  <outline>
    <contour>
      <point x="132" y="282" type="line"/>
      <point x="132" y="260"/>
      <point x="115" y="243"/>
      <point x="93" y="243" type="curve" smooth="yes"/>
      <point x="72" y="243"/>
      <point x="54" y="260"/>
      <point x="54" y="282" type="curve" smooth="yes"/>
      <point x="54" y="303"/>
      <point x="72" y="321"/>
      <point x="93" y="321" type="curve" smooth="yes"/>
      <point x="115" y="321"/>
      <point x="132" y="303"/>
      <point x="132" y="282" type="curve"/>
    </contour>
  </outline>
</glyph>
<glyph name="uniE155" format="2">
  <advance width="0"/>
  <unicode hex="E155"/>
  <key>note</key>
  <string>oboeRH3rdFingerClosed</string>
  <outline>
    <contour>
      <point x="132" y="145" type="line"/>
      <point x="132" y="123"/>
      <point x="115" y="106"/>
      <point x="93" y="106" type="curve" smooth="yes"/>
      <point x="72" y="106"/>
      <point x="54" y="123"/>
      <point x="54" y="145" type="curve" smooth="yes"/>
      <point x="54" y="166"/>
      <point x="72" y="184"/>
      <point x="93" y="184" type="curve" smooth="yes"/>
      <point x="115" y="184"/>
      <point x="132" y="166"/>
      <point x="132" y="145" type="curve"/>
    </contour>
  </outline>
</glyph>
<glyph name="uniE158" format="2">
  <advance width="0"/>
  <unicode hex="E158"/>
  <key>note</key>
  <string>oboeRHLowCSharpClosed</string>
  <outline>
    <contour>
      <point x="62" y="53" type="line"/>
      <point x="62" y="53"/>
      <point x="75" y="56"/>
      <point x="79" y="56" type="curve" smooth="yes"/>
      <point x="81" y="56"/>
      <point x="91" y="52"/>
      <point x="91" y="47" type="curve" smooth="yes"/>
      <point x="91" y="46"/>
      <point x="85" y="35"/>
      <point x="79" y="35" type="curve" smooth="yes"/>
      <point x="78" y="35"/>
      <point x="60" y="39"/>
      <point x="60" y="39" type="curve" smooth="yes"/>
      <point x="58" y="41"/>
      <point x="57" y="43"/>
      <point x="57" y="45" type="curve" smooth="yes"/>
      <point x="57" y="48"/>
      <point x="59" y="51"/>
      <point x="62" y="53" type="curve"/>
    </contour>
  </outline>
</glyph>
<glyph name="uniE159" format="2">
  <advance width="0"/>
  <unicode hex="E159"/>
  <key>note</key>
  <string>oboeRHLowEFlatKeyClosed</string>
  <outline>
    <contour>
      <point x="32" y="4" type="line"/>
      <point x="41" y="4"/>
      <point x="48" y="6"/>
      <point x="56" y="6" type="curve"/>
      <point x="81" y="9" type="line"/>
      <point x="83" y="9"/>
      <point x="85" y="9"/>
      <point x="87" y="10" type="curve" smooth="yes"/>
      <point x="90" y="10"/>
      <point x="91" y="12"/>
      <point x="91" y="15" type="curve" smooth="yes"/>
      <point x="91" y="18"/>
      <point x="90" y="21"/>
      <point x="86" y="21" type="curve" smooth="yes"/>
      <point x="80" y="21"/>
      <point x="74" y="22"/>
      <point x="68" y="23" type="curve" smooth="yes"/>
      <point x="67" y="23"/>
      <point x="57" y="25"/>
      <point x="53" y="29" type="curve" smooth="yes"/>
      <point x="49" y="34"/>
      <point x="41" y="37"/>
      <point x="34" y="37" type="curve" smooth="yes"/>
      <point x="31" y="37"/>
      <point x="28" y="37"/>
      <point x="26" y="36" type="curve" smooth="yes"/>
      <point x="19" y="33"/>
      <point x="15" y="27"/>
      <point x="14" y="20" type="curve" smooth="yes"/>
      <point x="14" y="12"/>
      <point x="19" y="6"/>
      <point x="27" y="4" type="curve" smooth="yes"/>
    </contour>
  </outline>
</glyph>
<glyph name="uniE15E" format="2">
  <advance width="0"/>
  <unicode hex="E15E"/>
  <key>note</key>
  <string>oboeRH2ndFingerRingOnly</string>
  <outline>
    <contour>
      <point x="93" y="309" type="line"/>
      <point x="108" y="309"/>
      <point x="120" y="297"/>
      <point x="120" y="282" type="curve"/>
      <point x="120" y="267"/>
      <point x="108" y="255"/>
      <point x="93" y="255" type="curve"/>
      <point x="78" y="255"/>
      <point x="66" y="267"/>
      <point x="66" y="282" type="curve"/>
      <point x="66" y="297"/>
      <point x="78" y="309"/>
      <point x="93" y="309" type="curve"/>
    </contour>
    <contour>
      <point x="93" y="321" type="line"/>
      <point x="72" y="321"/>
      <point x="54" y="303"/>
      <point x="54" y="282" type="curve"/>
      <point x="54" y="260"/>
      <point x="72" y="243"/>
      <point x="93" y="243" type="curve"/>
      <point x="115" y="243"/>
      <point x="132" y="260"/>
      <point x="132" y="282" type="curve"/>
      <point x="132" y="303"/>
      <point x="115" y="321"/>
      <point x="93" y="321" type="curve"/>
    </contour>
  </outline>
</glyph>
<glyph name="uniE160" format="2">
  <advance width="0"/>
  <unicode hex="E160"/>
  <key>note</key>
  <string>oboeLH1stFingerHalfClosed</string>
  <outline>
    <contour>
      <point x="110" y="823" type="line"/>
      <point x="110" y="814"/>
      <point x="102" y="806"/>
      <point x="93" y="806" type="curve" smooth="yes"/>
      <point x="83" y="806"/>
      <point x="76" y="814"/>
      <point x="76" y="823" type="curve" smooth="yes"/>
      <point x="76" y="832"/>
      <point x="83" y="840"/>
      <point x="93" y="840" type="curve" smooth="yes"/>
      <point x="102" y="840"/>
      <point x="110" y="832"/>
      <point x="110" y="823" type="curve"/>
    </contour>
  </outline>
</glyph>
<glyph name="uniE161" format="2">
  <advance width="0"/>
  <unicode hex="E161"/>
  <key>note</key>
  <string>oboeLH2ndFingerHalfClosedLeft</string>
  <outline>
    <contour>
      <point x="93" y="698" type="line"/>
      <point x="72" y="698"/>
      <point x="54" y="716"/>
      <point x="54" y="737" type="curve" smooth="yes"/>
      <point x="54" y="759"/>
      <point x="72" y="776"/>
      <point x="93" y="776" type="curve"/>
    </contour>
  </outline>
</glyph>
<glyph name="uniE162" format="2">
  <advance width="0"/>
  <unicode hex="E162"/>
  <key>note</key>
  <string>oboeLH3rdFingerHalfClosedLeft</string>
  <outline>
    <contour>
      <point x="93" y="588" type="line"/>
      <point x="72" y="588"/>
      <point x="54" y="605"/>
      <point x="54" y="627" type="curve" smooth="yes"/>
      <point x="54" y="648"/>
      <point x="72" y="666"/>
      <point x="93" y="666" type="curve"/>
    </contour>
  </outline>
</glyph>
<glyph name="uniE163" format="2">
  <advance width="0"/>
  <unicode hex="E163"/>
  <key>note</key>
  <string>oboeRH1stFingerHalfClosedLeft</string>
  <outline>
    <contour>
      <point x="93" y="350" type="line"/>
      <point x="72" y="350"/>
      <point x="54" y="367"/>
      <point x="54" y="389" type="curve" smooth="yes"/>
      <point x="54" y="410"/>
      <point x="72" y="428"/>
      <point x="93" y="428" type="curve"/>
    </contour>
  </outline>
</glyph>
<glyph name="uniE164" format="2">
  <advance width="0"/>
  <unicode hex="E164"/>
  <key>note</key>
  <string>oboeRH2ndFingerHalfClosedLeft</string>
  <outline>
    <contour>
      <point x="93" y="242" type="line"/>
      <point x="72" y="242"/>
      <point x="54" y="259"/>
      <point x="54" y="281" type="curve" smooth="yes"/>
      <point x="54" y="302"/>
      <point x="72" y="320"/>
      <point x="93" y="320" type="curve"/>
    </contour>
  </outline>
</glyph>
<glyph name="uniE165" format="2">
  <advance width="0"/>
  <unicode hex="E165"/>
  <key>note</key>
  <string>oboeRH3rdFingerHalfClosedLeft</string>
  <outline>
    <contour>
      <point x="93" y="106" type="line"/>
      <point x="72" y="106"/>
      <point x="54" y="123"/>
      <point x="54" y="145" type="curve" smooth="yes"/>
      <point x="54" y="166"/>
      <point x="72" y="184"/>
      <point x="93" y="184" type="curve"/>
    </contour>
  </outline>
</glyph>
<glyph name="uniE166" format="2">
  <advance width="0"/>
  <unicode hex="E166"/>
  <key>note</key>
  <string>oboeLH2ndFingerHalfClosedRight</string>
  <outline>
    <contour>
      <point x="132" y="737" type="line"/>
      <point x="132" y="716"/>
      <point x="115" y="698"/>
      <point x="93" y="698" type="curve"/>
      <point x="93" y="776" type="line"/>
      <point x="115" y="776"/>
      <point x="132" y="759"/>
      <point x="132" y="737" type="curve"/>
    </contour>
  </outline>
</glyph>
<glyph name="uniE167" format="2">
  <advance width="0"/>
  <unicode hex="E167"/>
  <key>note</key>
  <string>oboeLH3rdFingerHalfClosedRight</string>
  <outline>
    <contour>
      <point x="132" y="627" type="line"/>
      <point x="132" y="605"/>
      <point x="115" y="588"/>
      <point x="93" y="588" type="curve"/>
      <point x="93" y="666" type="line"/>
      <point x="115" y="666"/>
      <point x="132" y="648"/>
      <point x="132" y="627" type="curve"/>
    </contour>
  </outline>
</glyph>
<glyph name="uniE168" format="2">
  <advance width="0"/>
  <unicode hex="E168"/>
  <key>note</key>
  <string>oboeRH1stFingerHalfClosedRight</string>
  <outline>
    <contour>
      <point x="132" y="389" type="line"/>
      <point x="132" y="367"/>
      <point x="115" y="350"/>
      <point x="93" y="350" type="curve"/>
      <point x="93" y="428" type="line"/>
      <point x="115" y="428"/>
      <point x="132" y="410"/>
      <point x="132" y="389" type="curve"/>
    </contour>
  </outline>
</glyph>
<glyph name="uniE169" format="2">
  <advance width="0"/>
  <unicode hex="E169"/>
  <key>note</key>
  <string>oboeRH2ndFingerHalfClosedRight</string>
  <outline>
    <contour>
      <point x="132" y="282" type="line"/>
      <point x="132" y="260"/>
      <point x="115" y="243"/>
      <point x="93" y="243" type="curve"/>
      <point x="93" y="321" type="line"/>
      <point x="115" y="321"/>
      <point x="132" y="304"/>
      <point x="132" y="282" type="curve"/>
    </contour>
  </outline>
</glyph>
<glyph name="uniE16A" format="2">
  <advance width="0"/>
  <unicode hex="E16A"/>
  <key>note</key>
  <string>oboeRH3rdFingerHalfClosedRight</string>
  <outline>
    <contour>
      <point x="132" y="145" type="line"/>
      <point x="132" y="123"/>
      <point x="115" y="106"/>
      <point x="93" y="106" type="curve"/>
      <point x="93" y="184" type="line"/>
      <point x="115" y="184"/>
      <point x="132" y="166"/>
      <point x="132" y="145" type="curve"/>
    </contour>
  </outline>
</glyph>
<glyph name="uniE16B" format="2">
  <advance width="0"/>
  <unicode hex="E16B"/>
  <key>note</key>
  <string>oboeLH2ndFingerQuarterClosedLeft</string>
  <outline>
    <contour>
      <point x="74" y="771" type="line"/>
      <point x="63" y="764"/>
      <point x="55" y="752"/>
      <point x="55" y="737" type="curve" smooth="yes"/>
      <point x="55" y="723"/>
      <point x="63" y="710"/>
      <point x="74" y="703" type="curve"/>
    </contour>
  </outline>
</glyph>
<glyph name="uniE16C" format="2">
  <advance width="0"/>
  <unicode hex="E16C"/>
  <key>note</key>
  <string>oboeLH3rdFingerQuarterClosedLeft</string>
  <outline>
    <contour>
      <point x="74" y="661" type="line"/>
      <point x="63" y="654"/>
      <point x="55" y="641"/>
      <point x="55" y="627" type="curve" smooth="yes"/>
      <point x="55" y="612"/>
      <point x="63" y="600"/>
      <point x="74" y="593" type="curve"/>
    </contour>
  </outline>
</glyph>
<glyph name="uniE16D" format="2">
  <advance width="0"/>
  <unicode hex="E16D"/>
  <key>note</key>
  <string>oboeRH1stFingerQuarterClosedLeft</string>
  <outline>
    <contour>
      <point x="74" y="423" type="line"/>
      <point x="63" y="416"/>
      <point x="55" y="404"/>
      <point x="55" y="389" type="curve" smooth="yes"/>
      <point x="55" y="375"/>
      <point x="63" y="362"/>
      <point x="74" y="355" type="curve"/>
    </contour>
  </outline>
</glyph>
<glyph name="uniE16E" format="2">
  <advance width="0"/>
  <unicode hex="E16E"/>
  <key>note</key>
  <string>oboeRH2ndFingerQuarterClosedLeft</string>
  <outline>
    <contour>
      <point x="74" y="316" type="line"/>
      <point x="63" y="309"/>
      <point x="55" y="297"/>
      <point x="55" y="282" type="curve" smooth="yes"/>
      <point x="55" y="268"/>
      <point x="63" y="255"/>
      <point x="74" y="248" type="curve"/>
    </contour>
  </outline>
</glyph>
<glyph name="uniE16F" format="2">
  <advance width="0"/>
  <unicode hex="E16F"/>
  <key>note</key>
  <string>oboeRH3rdFingerQuarterClosedLeft</string>
  <outline>
    <contour>
      <point x="74" y="179" type="line"/>
      <point x="63" y="172"/>
      <point x="55" y="159"/>
      <point x="55" y="145" type="curve" smooth="yes"/>
      <point x="55" y="130"/>
      <point x="63" y="118"/>
      <point x="74" y="111" type="curve"/>
    </contour>
  </outline>
</glyph>
<glyph name="uniE170" format="2">
  <advance width="0"/>
  <unicode hex="E170"/>
  <key>note</key>
  <string>oboeLH2ndFingerQuarterClosedRight</string>
  <outline>
    <contour>
      <point x="113" y="771" type="line"/>
      <point x="125" y="765"/>
      <point x="132" y="752"/>
      <point x="132" y="738" type="curve" smooth="yes"/>
      <point x="132" y="723"/>
      <point x="125" y="710"/>
      <point x="113" y="704" type="curve"/>
    </contour>
  </outline>
</glyph>
<glyph name="uniE171" format="2">
  <advance width="0"/>
  <unicode hex="E171"/>
  <key>note</key>
  <string>oboeLH3rdFingerQuarterClosedRight</string>
  <outline>
    <contour>
      <point x="113" y="661" type="line"/>
      <point x="125" y="654"/>
      <point x="132" y="641"/>
      <point x="132" y="627" type="curve" smooth="yes"/>
      <point x="132" y="612"/>
      <point x="125" y="600"/>
      <point x="113" y="593" type="curve"/>
    </contour>
  </outline>
</glyph>
<glyph name="uniE172" format="2">
  <advance width="0"/>
  <unicode hex="E172"/>
  <key>note</key>
  <string>oboeRH1stFingerQuarterClosedRight</string>
  <outline>
    <contour>
      <point x="113" y="422" type="line"/>
      <point x="125" y="415"/>
      <point x="132" y="403"/>
      <point x="132" y="388" type="curve" smooth="yes"/>
      <point x="132" y="374"/>
      <point x="125" y="361"/>
      <point x="113" y="354" type="curve"/>
    </contour>
  </outline>
</glyph>
<glyph name="uniE173" format="2">
  <advance width="0"/>
  <unicode hex="E173"/>
  <key>note</key>
  <string>oboeRH2ndFingerQuarterClosedRight</string>
  <outline>
    <contour>
      <point x="113" y="315" type="line"/>
      <point x="125" y="309"/>
      <point x="132" y="296"/>
      <point x="132" y="282" type="curve" smooth="yes"/>
      <point x="132" y="267"/>
      <point x="125" y="254"/>
      <point x="113" y="248" type="curve"/>
    </contour>
  </outline>
</glyph>
<glyph name="uniE174" format="2">
  <advance width="0"/>
  <unicode hex="E174"/>
  <key>note</key>
  <string>oboeRH3rdFingerQuarterClosedRight</string>
  <outline>
    <contour>
      <point x="113" y="178" type="line"/>
      <point x="125" y="171"/>
      <point x="132" y="159"/>
      <point x="132" y="144" type="curve" smooth="yes"/>
      <point x="132" y="130"/>
      <point x="125" y="117"/>
      <point x="113" y="110" type="curve"/>
    </contour>
  </outline>
</glyph>
<glyph name="uniE17B" format="2">
  <advance width="0"/>
  <unicode hex="E17B"/>
  <key>note</key>
  <string>oboeLH2ndFingerTrill</string>
  <outline>
    <contour>
      <point x="54" y="693" type="line"/>
      <point x="53" y="693"/>
      <point x="52" y="693"/>
      <point x="51" y="694" type="curve" smooth="yes"/>
      <point x="50" y="695"/>
      <point x="50" y="697"/>
      <point x="51" y="698" type="curve"/>
      <point x="129" y="776" type="line"/>
      <point x="131" y="777"/>
      <point x="133" y="777"/>
      <point x="134" y="776" type="curve" smooth="yes"/>
      <point x="135" y="775"/>
      <point x="135" y="773"/>
      <point x="134" y="772" type="curve"/>
      <point x="56" y="694" type="line"/>
      <point x="55" y="693"/>
      <point x="54" y="693"/>
      <point x="54" y="693" type="curve"/>
    </contour>
  </outline>
</glyph>
<glyph name="uniE17C" format="2">
  <advance width="0"/>
  <unicode hex="E17C"/>
  <key>note</key>
  <string>oboeLHCSharpTrillTrill</string>
  <outline>
    <contour>
      <point x="160" y="657" type="line"/>
      <point x="159" y="657"/>
      <point x="158" y="657"/>
      <point x="158" y="658" type="curve"/>
      <point x="118" y="698" type="line"/>
      <point x="117" y="699"/>
      <point x="117" y="701"/>
      <point x="118" y="702" type="curve" smooth="yes"/>
      <point x="119" y="703"/>
      <point x="121" y="703"/>
      <point x="122" y="702" type="curve"/>
      <point x="162" y="662" type="line"/>
      <point x="163" y="661"/>
      <point x="163" y="659"/>
      <point x="162" y="658" type="curve" smooth="yes"/>
      <point x="161" y="657"/>
      <point x="161" y="657"/>
      <point x="160" y="657" type="curve"/>
    </contour>
  </outline>
</glyph>
<glyph name="uniE181" format="2">
  <advance width="0"/>
  <unicode hex="E181"/>
  <key>note</key>
  <string>oboeLHFTrill</string>
  <outline>
    <contour>
      <point x="127" y="468" type="line"/>
      <point x="127" y="468"/>
      <point x="126" y="468"/>
      <point x="125" y="469" type="curve" smooth="yes"/>
      <point x="124" y="470"/>
      <point x="124" y="472"/>
      <point x="125" y="473" type="curve"/>
      <point x="163" y="511" type="line"/>
      <point x="164" y="512"/>
      <point x="166" y="512"/>
      <point x="167" y="511" type="curve" smooth="yes"/>
      <point x="168" y="510"/>
      <point x="168" y="508"/>
      <point x="167" y="507" type="curve"/>
      <point x="129" y="469" type="line"/>
      <point x="129" y="468"/>
      <point x="128" y="468"/>
      <point x="127" y="468" type="curve"/>
    </contour>
  </outline>
</glyph>
<glyph name="uniE184" format="2">
  <advance width="0"/>
  <unicode hex="E184"/>
  <key>note</key>
  <string>oboeRHGSharpTrill</string>
  <outline>
    <contour>
      <point x="8" y="337" type="line"/>
      <point x="7" y="337"/>
      <point x="6" y="337"/>
      <point x="6" y="338" type="curve" smooth="yes"/>
      <point x="5" y="339"/>
      <point x="5" y="341"/>
      <point x="6" y="342" type="curve"/>
      <point x="43" y="379" type="line"/>
      <point x="44" y="380"/>
      <point x="46" y="380"/>
      <point x="47" y="379" type="curve" smooth="yes"/>
      <point x="48" y="378"/>
      <point x="48" y="376"/>
      <point x="47" y="375" type="curve"/>
      <point x="10" y="338" type="line"/>
      <point x="9" y="337"/>
      <point x="9" y="337"/>
      <point x="8" y="337" type="curve"/>
    </contour>
  </outline>
</glyph>
<glyph name="uniE188" format="2">
  <advance width="0"/>
  <unicode hex="E188"/>
  <key>note</key>
  <string>oboeRHFTrill</string>
  <outline>
    <contour>
      <point x="44" y="190" type="line"/>
      <point x="44" y="190"/>
      <point x="43" y="190"/>
      <point x="42" y="190" type="curve" smooth="yes"/>
      <point x="41" y="192"/>
      <point x="41" y="193"/>
      <point x="42" y="195" type="curve"/>
      <point x="83" y="235" type="line"/>
      <point x="84" y="236"/>
      <point x="86" y="236"/>
      <point x="87" y="235" type="curve" smooth="yes"/>
      <point x="88" y="234"/>
      <point x="88" y="232"/>
      <point x="87" y="231" type="curve"/>
      <point x="47" y="190" type="line"/>
      <point x="46" y="190"/>
      <point x="45" y="190"/>
      <point x="44" y="190" type="curve"/>
    </contour>
  </outline>
</glyph>
<glyph name="uniE18D" format="2">
  <advance width="0"/>
  <unicode hex="E18D"/>
  <key>note</key>
  <string>oboeRHLowEFlatKeyTrill</string>
  <outline>
    <contour>
      <point x="11" y="-1" type="line"/>
      <point x="10" y="-1"/>
      <point x="9" y="-1"/>
      <point x="9" y="0" type="curve" smooth="yes"/>
      <point x="8" y="1"/>
      <point x="8" y="3"/>
      <point x="9" y="4" type="curve"/>
      <point x="50" y="45" type="line"/>
      <point x="51" y="46"/>
      <point x="53" y="46"/>
      <point x="54" y="45" type="curve" smooth="yes"/>
      <point x="55" y="44"/>
      <point x="55" y="42"/>
      <point x="54" y="41" type="curve"/>
      <point x="13" y="0" type="line"/>
      <point x="12" y="-1"/>
      <point x="12" y="-1"/>
      <point x="11" y="-1" type="curve"/>
    </contour>
  </outline>
</glyph>
<glyph name="uniE1E1" format="2">
  <advance width="0"/>
  <unicode hex="E1E1"/>
  <key>note</key>
  <string>bassoonChartThumbsHands</string>
  <outline>
    <contour>
      <point x="310" y="547" type="line"/>
      <point x="310" y="1003" type="line"/>
      <point x="310" y="1004"/>
      <point x="308" y="1006"/>
      <point x="307" y="1006" type="curve" smooth="yes"/>
      <point x="305" y="1006"/>
      <point x="304" y="1004"/>
      <point x="304" y="1003" type="curve"/>
      <point x="304" y="547" type="line"/>
      <point x="0" y="547" type="line" smooth="yes"/>
      <point x="-2" y="547"/>
      <point x="-3" y="546"/>
      <point x="-3" y="544" type="curve" smooth="yes"/>
      <point x="-3" y="543"/>
      <point x="-2" y="541"/>
      <point x="0" y="541" type="curve" smooth="yes"/>
      <point x="304" y="541" type="line"/>
      <point x="304" y="1" type="line" smooth="yes"/>
      <point x="304" y="-1"/>
      <point x="305" y="-2"/>
      <point x="307" y="-2" type="curve" smooth="yes"/>
      <point x="308" y="-2"/>
      <point x="310" y="-1"/>
      <point x="310" y="1" type="curve" smooth="yes"/>
      <point x="310" y="541" type="line"/>
      <point x="629" y="541" type="line"/>
      <point x="630" y="541"/>
      <point x="632" y="543"/>
      <point x="632" y="544" type="curve" smooth="yes"/>
      <point x="632" y="546"/>
      <point x="630" y="547"/>
      <point x="629" y="547" type="curve"/>
    </contour>
  </outline>
</glyph>
<glyph name="uniE1E3" format="2">
  <advance width="0"/>
  <unicode hex="E1E3"/>
  <key>note</key>
  <string>bassoonLH1stFingerClosed</string>
  <outline>
    <contour>
      <point x="461" y="902" type="curve"/>
      <point x="461" y="886"/>
      <point x="448" y="874"/>
      <point x="432" y="874" type="curve" smooth="yes"/>
      <point x="417" y="874"/>
      <point x="404" y="886"/>
      <point x="404" y="902" type="curve" smooth="yes"/>
      <point x="404" y="918"/>
      <point x="417" y="930"/>
      <point x="432" y="930" type="curve" smooth="yes"/>
      <point x="448" y="930"/>
      <point x="461" y="918"/>
    </contour>
  </outline>
</glyph>
<glyph name="uniE1E4" format="2">
  <advance width="0"/>
  <unicode hex="E1E4"/>
  <key>note</key>
  <string>bassoonLHHighEFlatClosed</string>
  <outline>
    <contour>
      <point x="391" y="842" type="curve"/>
      <point x="391" y="842"/>
      <point x="455" y="858"/>
      <point x="462" y="858" type="curve" smooth="yes"/>
      <point x="468" y="858"/>
      <point x="474" y="854"/>
      <point x="475" y="847" type="curve"/>
      <point x="475" y="837"/>
      <point x="469" y="833"/>
      <point x="464" y="830" type="curve" smooth="yes"/>
      <point x="457" y="827"/>
      <point x="452" y="826"/>
      <point x="447" y="826" type="curve" smooth="yes"/>
      <point x="441" y="826"/>
      <point x="436" y="827"/>
      <point x="430" y="828" type="curve" smooth="yes"/>
      <point x="418" y="829"/>
      <point x="399" y="829"/>
      <point x="392" y="829" type="curve" smooth="yes"/>
      <point x="388" y="829"/>
      <point x="385" y="832"/>
      <point x="385" y="835" type="curve" smooth="yes"/>
      <point x="385" y="838"/>
      <point x="387" y="841"/>
    </contour>
  </outline>
</glyph>
<glyph name="uniE1E5" format="2">
  <advance width="0"/>
  <unicode hex="E1E5"/>
  <key>note</key>
  <string>bassoonLH2ndFingerClosed</string>
  <outline>
    <contour>
      <point x="461" y="781" type="curve"/>
      <point x="461" y="765"/>
      <point x="448" y="752"/>
      <point x="432" y="752" type="curve" smooth="yes"/>
      <point x="417" y="752"/>
      <point x="404" y="765"/>
      <point x="404" y="781" type="curve" smooth="yes"/>
      <point x="404" y="796"/>
      <point x="417" y="809"/>
      <point x="432" y="809" type="curve" smooth="yes"/>
      <point x="448" y="809"/>
      <point x="461" y="796"/>
    </contour>
  </outline>
</glyph>
<glyph name="uniE1E7" format="2">
  <advance width="0"/>
  <unicode hex="E1E7"/>
  <key>note</key>
  <string>bassoonLH3rdFingerClosed</string>
  <outline>
    <contour>
      <point x="456" y="685" type="curve"/>
      <point x="456" y="669"/>
      <point x="443" y="656"/>
      <point x="427" y="656" type="curve" smooth="yes"/>
      <point x="410" y="656"/>
      <point x="397" y="669"/>
      <point x="397" y="685" type="curve" smooth="yes"/>
      <point x="397" y="702"/>
      <point x="410" y="715"/>
      <point x="427" y="715" type="curve" smooth="yes"/>
      <point x="443" y="715"/>
      <point x="456" y="702"/>
    </contour>
  </outline>
</glyph>
<glyph name="uniE1E8" format="2">
  <advance width="0"/>
  <unicode hex="E1E8"/>
  <key>note</key>
  <string>bassoonLHLowEFlatClosed</string>
  <outline>
    <contour>
      <point x="569" y="654" type="curve"/>
      <point x="567" y="673" type="line"/>
      <point x="562" y="673" type="line"/>
      <point x="553" y="673"/>
      <point x="543" y="671"/>
      <point x="534" y="669" type="curve" smooth="yes"/>
      <point x="533" y="669"/>
      <point x="531" y="668"/>
      <point x="530" y="668" type="curve" smooth="yes"/>
      <point x="518" y="665"/>
      <point x="506" y="663"/>
      <point x="494" y="658" type="curve" smooth="yes"/>
      <point x="486" y="655"/>
      <point x="479" y="648"/>
      <point x="475" y="640" type="curve" smooth="yes"/>
      <point x="474" y="638"/>
      <point x="474" y="636"/>
      <point x="474" y="634" type="curve" smooth="yes"/>
      <point x="474" y="625"/>
      <point x="480" y="615"/>
      <point x="483" y="607" type="curve"/>
      <point x="543" y="626" type="line" smooth="yes"/>
      <point x="542" y="628"/>
      <point x="542" y="631"/>
      <point x="542" y="633" type="curve" smooth="yes"/>
      <point x="542" y="643"/>
      <point x="549" y="648"/>
      <point x="555" y="650" type="curve" smooth="yes"/>
      <point x="563" y="653"/>
      <point x="569" y="654"/>
    </contour>
  </outline>
</glyph>
<glyph name="uniE1E9" format="2">
  <advance width="0"/>
  <unicode hex="E1E9"/>
  <key>note</key>
  <string>bassoonLHLowDFlatClosed</string>
  <outline>
    <contour>
      <point x="586" y="606" type="line"/>
      <point x="595" y="589" type="line"/>
      <point x="587" y="583"/>
      <point x="576" y="579"/>
      <point x="566" y="574" type="curve" smooth="yes"/>
      <point x="554" y="568"/>
      <point x="541" y="563"/>
      <point x="527" y="560" type="curve" smooth="yes"/>
      <point x="524" y="559"/>
      <point x="522" y="559"/>
      <point x="519" y="559" type="curve" smooth="yes"/>
      <point x="513" y="559"/>
      <point x="507" y="561"/>
      <point x="502" y="564" type="curve" smooth="yes"/>
      <point x="492" y="570"/>
      <point x="491" y="584"/>
      <point x="489" y="595" type="curve"/>
      <point x="548" y="614" type="line"/>
      <point x="552" y="604"/>
      <point x="559" y="601"/>
      <point x="566" y="601" type="curve" smooth="yes"/>
      <point x="568" y="601"/>
      <point x="571" y="601"/>
      <point x="573" y="602" type="curve" smooth="yes"/>
      <point x="581" y="604"/>
      <point x="586" y="606"/>
      <point x="586" y="606" type="curve"/>
    </contour>
  </outline>
</glyph>
<glyph name="uniE1EB" format="2">
  <advance width="0"/>
  <unicode hex="E1EB"/>
  <key>note</key>
  <string>bassoonRH1stFingerClosed</string>
  <outline>
    <contour>
      <point x="557" y="435" type="line"/>
      <point x="557" y="419"/>
      <point x="544" y="407"/>
      <point x="528" y="407" type="curve" smooth="yes"/>
      <point x="513" y="407"/>
      <point x="500" y="419"/>
      <point x="500" y="435" type="curve" smooth="yes"/>
      <point x="500" y="451"/>
      <point x="513" y="463"/>
      <point x="528" y="463" type="curve" smooth="yes"/>
      <point x="544" y="463"/>
      <point x="557" y="451"/>
      <point x="557" y="435" type="curve"/>
    </contour>
  </outline>
</glyph>
<glyph name="uniE1ED" format="2">
  <advance width="0"/>
  <unicode hex="E1ED"/>
  <key>note</key>
  <string>bassoonRH2ndFingerClosed</string>
  <outline>
    <contour>
      <point x="553" y="342" type="line"/>
      <point x="553" y="325"/>
      <point x="540" y="312"/>
      <point x="523" y="312" type="curve" smooth="yes"/>
      <point x="507" y="312"/>
      <point x="494" y="325"/>
      <point x="494" y="342" type="curve" smooth="yes"/>
      <point x="494" y="358"/>
      <point x="507" y="372"/>
      <point x="523" y="372" type="curve" smooth="yes"/>
      <point x="540" y="372"/>
      <point x="553" y="358"/>
      <point x="553" y="342" type="curve"/>
    </contour>
  </outline>
</glyph>
<glyph name="uniE1EF" format="2">
  <advance width="0"/>
  <unicode hex="E1EF"/>
  <key>note</key>
  <string>bassoonRHLowGClosed</string>
  <outline>
    <contour>
      <point x="560" y="202" type="curve"/>
      <point x="560" y="202"/>
      <point x="461" y="229"/>
      <point x="451" y="229" type="curve" smooth="yes"/>
      <point x="441" y="229"/>
      <point x="434" y="221"/>
      <point x="431" y="215" type="curve" smooth="yes"/>
      <point x="430" y="213"/>
      <point x="429" y="210"/>
      <point x="429" y="207" type="curve" smooth="yes"/>
      <point x="429" y="200"/>
      <point x="433" y="191"/>
      <point x="448" y="183" type="curve" smooth="yes"/>
      <point x="458" y="177"/>
      <point x="467" y="176"/>
      <point x="475" y="176" type="curve" smooth="yes"/>
      <point x="482" y="176"/>
      <point x="488" y="177"/>
      <point x="495" y="178" type="curve" smooth="yes"/>
      <point x="497" y="178"/>
      <point x="498" y="179"/>
      <point x="500" y="179" type="curve" smooth="yes"/>
      <point x="518" y="182"/>
      <point x="548" y="182"/>
      <point x="559" y="182" type="curve" smooth="yes"/>
      <point x="565" y="182"/>
      <point x="569" y="187"/>
      <point x="569" y="192" type="curve" smooth="yes"/>
      <point x="569" y="196"/>
      <point x="566" y="200"/>
    </contour>
  </outline>
</glyph>
<glyph name="uniE1F0" format="2">
  <advance width="0"/>
  <unicode hex="E1F0"/>
  <key>note</key>
  <string>bassoonRHLowFClosed</string>
  <outline>
    <contour>
      <point x="412" y="168" type="curve"/>
      <point x="390" y="132" type="line"/>
      <point x="349" y="153" type="line"/>
      <point x="349" y="166"/>
      <point x="367" y="180"/>
      <point x="379" y="180" type="curve" smooth="yes"/>
      <point x="387" y="180"/>
      <point x="398" y="176"/>
    </contour>
  </outline>
</glyph>
<glyph name="uniE1F2" format="2">
  <advance width="0"/>
  <unicode hex="E1F2"/>
  <key>note</key>
  <string>bassoonRHAFlatClosed</string>
  <outline>
    <contour>
      <point x="437" y="8" type="curve"/>
      <point x="419" y="8" type="line"/>
      <point x="419" y="8"/>
      <point x="419" y="39"/>
      <point x="419" y="46" type="curve" smooth="yes"/>
      <point x="419" y="53"/>
      <point x="400" y="73"/>
      <point x="380" y="78" type="curve" smooth="yes"/>
      <point x="362" y="83"/>
      <point x="326" y="84"/>
      <point x="326" y="108" type="curve" smooth="yes"/>
      <point x="326" y="111"/>
      <point x="326" y="116"/>
      <point x="328" y="120" type="curve" smooth="yes"/>
      <point x="335" y="136"/>
      <point x="341" y="139"/>
      <point x="341" y="139" type="curve"/>
      <point x="387" y="117" type="line"/>
      <point x="388" y="104"/>
      <point x="408" y="88"/>
      <point x="419" y="81" type="curve" smooth="yes"/>
      <point x="431" y="74"/>
      <point x="435" y="71"/>
      <point x="436" y="63" type="curve" smooth="yes"/>
      <point x="436" y="55"/>
      <point x="437" y="8"/>
    </contour>
  </outline>
</glyph>
<glyph name="uniE1F3" format="2">
  <advance width="0"/>
  <unicode hex="E1F3"/>
  <key>note</key>
  <string>bassoonLTHighDClosed</string>
  <outline>
    <contour>
      <point x="188" y="985" type="line"/>
      <point x="188" y="909" type="line" smooth="yes"/>
      <point x="188" y="898"/>
      <point x="184" y="888"/>
      <point x="177" y="882" type="curve" smooth="yes"/>
      <point x="174" y="879"/>
      <point x="171" y="873"/>
      <point x="171" y="867" type="curve" smooth="yes"/>
      <point x="171" y="862"/>
      <point x="173" y="856"/>
      <point x="179" y="854" type="curve" smooth="yes"/>
      <point x="181" y="853"/>
      <point x="183" y="853"/>
      <point x="185" y="853" type="curve" smooth="yes"/>
      <point x="194" y="853"/>
      <point x="202" y="860"/>
      <point x="204" y="865" type="curve" smooth="yes"/>
      <point x="205" y="868"/>
      <point x="205" y="872"/>
      <point x="205" y="876" type="curve"/>
      <point x="205" y="887" type="line"/>
      <point x="205" y="895"/>
      <point x="205" y="985"/>
      <point x="205" y="985" type="curve"/>
    </contour>
  </outline>
</glyph>
<glyph name="uniE1F4" format="2">
  <advance width="0"/>
  <unicode hex="E1F4"/>
  <key>note</key>
  <string>bassoonLTHighBClosed</string>
  <outline>
    <contour>
      <point x="225" y="985" type="curve"/>
      <point x="245" y="985" type="line"/>
      <point x="245" y="847" type="line" smooth="yes"/>
      <point x="245" y="828"/>
      <point x="227" y="808"/>
      <point x="207" y="807" type="curve" smooth="yes"/>
      <point x="201" y="807"/>
      <point x="193" y="809"/>
      <point x="189" y="814" type="curve" smooth="yes"/>
      <point x="187" y="816"/>
      <point x="187" y="818"/>
      <point x="187" y="821" type="curve" smooth="yes"/>
      <point x="187" y="828"/>
      <point x="191" y="835"/>
      <point x="196" y="838" type="curve" smooth="yes"/>
      <point x="201" y="841"/>
      <point x="218" y="849"/>
      <point x="220" y="851" type="curve" smooth="yes"/>
      <point x="222" y="853"/>
      <point x="226" y="854"/>
      <point x="226" y="868" type="curve" smooth="yes"/>
      <point x="226" y="881"/>
      <point x="225" y="985"/>
    </contour>
  </outline>
</glyph>
<glyph name="uniE1F5" format="2">
  <advance width="0"/>
  <unicode hex="E1F5"/>
  <key>note</key>
  <string>bassoonLTHighAClosed</string>
  <outline>
    <contour>
      <point x="272" y="985" type="curve"/>
      <point x="291" y="985" type="line"/>
      <point x="291" y="779" type="line" smooth="yes"/>
      <point x="291" y="773"/>
      <point x="290" y="767"/>
      <point x="278" y="762" type="curve" smooth="yes"/>
      <point x="266" y="757"/>
      <point x="251" y="755"/>
      <point x="238" y="752" type="curve" smooth="yes"/>
      <point x="228" y="750"/>
      <point x="217" y="747"/>
      <point x="207" y="747" type="curve" smooth="yes"/>
      <point x="201" y="747"/>
      <point x="195" y="748"/>
      <point x="190" y="751" type="curve" smooth="yes"/>
      <point x="183" y="755"/>
      <point x="179" y="762"/>
      <point x="179" y="770" type="curve" smooth="yes"/>
      <point x="179" y="775"/>
      <point x="180" y="779"/>
      <point x="184" y="783" type="curve" smooth="yes"/>
      <point x="190" y="789"/>
      <point x="204" y="792"/>
      <point x="215" y="792" type="curve"/>
      <point x="219" y="792" type="line"/>
      <point x="227" y="792"/>
      <point x="262" y="792"/>
      <point x="265" y="794" type="curve" smooth="yes"/>
      <point x="266" y="794"/>
      <point x="272" y="803"/>
      <point x="272" y="808" type="curve" smooth="yes"/>
      <point x="272" y="818"/>
      <point x="272" y="985"/>
    </contour>
  </outline>
</glyph>
<glyph name="uniE1F6" format="2">
  <advance width="0"/>
  <unicode hex="E1F6"/>
  <key>note</key>
  <string>bassoonLTCSharpClosed</string>
  <outline>
    <contour>
      <point x="217" y="577" type="curve"/>
      <point x="236" y="577" type="line"/>
      <point x="236" y="690" type="line" smooth="yes"/>
      <point x="236" y="709"/>
      <point x="219" y="729"/>
      <point x="199" y="730" type="curve" smooth="yes"/>
      <point x="193" y="730"/>
      <point x="185" y="728"/>
      <point x="181" y="723" type="curve" smooth="yes"/>
      <point x="179" y="721"/>
      <point x="178" y="719"/>
      <point x="178" y="716" type="curve" smooth="yes"/>
      <point x="178" y="709"/>
      <point x="183" y="702"/>
      <point x="188" y="699" type="curve" smooth="yes"/>
      <point x="192" y="696"/>
      <point x="210" y="688"/>
      <point x="212" y="686" type="curve" smooth="yes"/>
      <point x="214" y="684"/>
      <point x="217" y="683"/>
      <point x="217" y="669" type="curve" smooth="yes"/>
      <point x="217" y="656"/>
      <point x="217" y="577"/>
    </contour>
  </outline>
</glyph>
<glyph name="uniE1F7" format="2">
  <advance width="0"/>
  <unicode hex="E1F7"/>
  <key>note</key>
  <string>bassoonLTWhisperKeyClosed</string>
  <outline>
    <contour>
      <point x="203" y="660" type="curve"/>
      <point x="203" y="648"/>
      <point x="191" y="638"/>
      <point x="177" y="638" type="curve" smooth="yes"/>
      <point x="162" y="638"/>
      <point x="150" y="648"/>
      <point x="150" y="660" type="curve" smooth="yes"/>
      <point x="150" y="672"/>
      <point x="162" y="682"/>
      <point x="177" y="682" type="curve" smooth="yes"/>
      <point x="191" y="682"/>
      <point x="203" y="672"/>
    </contour>
  </outline>
</glyph>
<glyph name="uniE1F9" format="2">
  <advance width="0"/>
  <unicode hex="E1F9"/>
  <key>note</key>
  <string>bassoonLTLowBClosed</string>
  <outline>
    <contour>
      <point x="89" y="804" type="curve"/>
      <point x="97" y="804"/>
      <point x="103" y="810"/>
      <point x="104" y="817" type="curve" smooth="yes"/>
      <point x="105" y="819"/>
      <point x="105" y="821"/>
      <point x="105" y="823" type="curve" smooth="yes"/>
      <point x="105" y="829"/>
      <point x="103" y="836"/>
      <point x="99" y="841" type="curve" smooth="yes"/>
      <point x="88" y="855"/>
      <point x="74" y="868"/>
      <point x="72" y="870" type="curve" smooth="yes"/>
      <point x="70" y="872"/>
      <point x="67" y="879"/>
      <point x="67" y="886" type="curve" smooth="yes"/>
      <point x="67" y="893"/>
      <point x="67" y="985"/>
      <point x="67" y="985" type="curve"/>
      <point x="49" y="985" type="line"/>
      <point x="49" y="882" type="line" smooth="yes"/>
      <point x="49" y="861"/>
      <point x="62" y="840"/>
      <point x="73" y="822" type="curve" smooth="yes"/>
      <point x="73" y="821"/>
      <point x="75" y="819"/>
      <point x="75" y="819" type="curve" smooth="yes"/>
      <point x="78" y="814"/>
      <point x="81" y="808"/>
      <point x="86" y="805" type="curve" smooth="yes"/>
      <point x="87" y="805"/>
      <point x="88" y="804"/>
    </contour>
  </outline>
</glyph>
<glyph name="uniE1FA" format="2">
  <advance width="0"/>
  <unicode hex="E1FA"/>
  <key>note</key>
  <string>bassoonLTLowCClosed</string>
  <outline>
    <contour>
      <point x="49" y="825" type="curve"/>
      <point x="51" y="821"/>
      <point x="52" y="816"/>
      <point x="52" y="812" type="curve" smooth="yes"/>
      <point x="52" y="803"/>
      <point x="48" y="794"/>
      <point x="41" y="791" type="curve" smooth="yes"/>
      <point x="39" y="790"/>
      <point x="37" y="790"/>
      <point x="35" y="790" type="curve" smooth="yes"/>
      <point x="26" y="790"/>
      <point x="16" y="797"/>
      <point x="11" y="808" type="curve" smooth="yes"/>
      <point x="9" y="813"/>
      <point x="8" y="817"/>
      <point x="8" y="822" type="curve" smooth="yes"/>
      <point x="8" y="831"/>
      <point x="12" y="839"/>
      <point x="19" y="842" type="curve" smooth="yes"/>
      <point x="21" y="843"/>
      <point x="23" y="843"/>
      <point x="25" y="843" type="curve" smooth="yes"/>
      <point x="34" y="843"/>
      <point x="44" y="836"/>
    </contour>
  </outline>
</glyph>
<glyph name="uniE1FB" format="2">
  <advance width="0"/>
  <unicode hex="E1FB"/>
  <key>note</key>
  <string>bassoonLTLowDClosed</string>
  <outline>
    <contour>
      <point x="46" y="630" type="curve"/>
      <point x="36" y="648"/>
      <point x="22" y="698"/>
      <point x="22" y="727" type="curve" smooth="yes"/>
      <point x="22" y="730"/>
      <point x="23" y="733"/>
      <point x="23" y="736" type="curve" smooth="yes"/>
      <point x="27" y="759"/>
      <point x="36" y="772"/>
      <point x="46" y="772" type="curve" smooth="yes"/>
      <point x="47" y="772"/>
      <point x="49" y="771"/>
      <point x="50" y="771" type="curve" smooth="yes"/>
      <point x="61" y="768"/>
      <point x="67" y="758"/>
      <point x="67" y="747" type="curve" smooth="yes"/>
      <point x="67" y="745"/>
      <point x="67" y="742"/>
      <point x="66" y="740" type="curve" smooth="yes"/>
      <point x="63" y="726"/>
      <point x="55" y="705"/>
      <point x="54" y="698" type="curve" smooth="yes"/>
      <point x="53" y="693"/>
      <point x="51" y="685"/>
      <point x="51" y="674" type="curve" smooth="yes"/>
      <point x="51" y="670"/>
      <point x="51" y="666"/>
      <point x="52" y="662" type="curve" smooth="yes"/>
      <point x="55" y="644"/>
      <point x="56" y="636"/>
      <point x="56" y="636" type="curve" smooth="yes"/>
      <point x="56" y="635"/>
      <point x="57" y="633"/>
      <point x="57" y="632" type="curve" smooth="yes"/>
      <point x="57" y="628"/>
      <point x="56" y="624"/>
      <point x="53" y="624" type="curve" smooth="yes"/>
      <point x="51" y="624"/>
      <point x="49" y="626"/>
    </contour>
  </outline>
</glyph>
<glyph name="uniE1FC" format="2">
  <advance width="0"/>
  <unicode hex="E1FC"/>
  <key>note</key>
  <string>bassoonRTBFlatClosed</string>
  <outline>
    <contour>
      <point x="28" y="304" type="curve"/>
      <point x="5" y="304" type="line"/>
      <point x="5" y="304"/>
      <point x="5" y="355"/>
      <point x="5" y="355" type="curve" smooth="yes"/>
      <point x="5" y="405"/>
      <point x="29" y="461"/>
      <point x="81" y="475" type="curve" smooth="yes"/>
      <point x="90" y="478"/>
      <point x="102" y="480"/>
      <point x="113" y="480" type="curve" smooth="yes"/>
      <point x="122" y="480"/>
      <point x="130" y="479"/>
      <point x="137" y="476" type="curve" smooth="yes"/>
      <point x="148" y="472"/>
      <point x="160" y="465"/>
      <point x="165" y="455" type="curve" smooth="yes"/>
      <point x="167" y="451"/>
      <point x="168" y="447"/>
      <point x="168" y="443" type="curve" smooth="yes"/>
      <point x="168" y="435"/>
      <point x="163" y="427"/>
      <point x="154" y="426" type="curve"/>
      <point x="150" y="426" type="line"/>
      <point x="142" y="426"/>
      <point x="133" y="430"/>
      <point x="126" y="434" type="curve" smooth="yes"/>
      <point x="119" y="434"/>
      <point x="110" y="440"/>
      <point x="102" y="440" type="curve" smooth="yes"/>
      <point x="78" y="440"/>
      <point x="55" y="423"/>
      <point x="43" y="402" type="curve" smooth="yes"/>
      <point x="30" y="379"/>
      <point x="28" y="356"/>
      <point x="28" y="335" type="curve" smooth="yes"/>
      <point x="28" y="324"/>
      <point x="28" y="304"/>
    </contour>
  </outline>
</glyph>
<glyph name="uniE1FD" format="2">
  <advance width="0"/>
  <unicode hex="E1FD"/>
  <key>note</key>
  <string>bassoonRTLowEClosed</string>
  <outline>
    <contour>
      <point x="208" y="377" type="line"/>
      <point x="208" y="350" type="line"/>
      <point x="163" y="350" type="line"/>
      <point x="157" y="325"/>
      <point x="134" y="305"/>
      <point x="107" y="305" type="curve" smooth="yes"/>
      <point x="76" y="305"/>
      <point x="51" y="331"/>
      <point x="51" y="362" type="curve" smooth="yes"/>
      <point x="51" y="394"/>
      <point x="76" y="419"/>
      <point x="107" y="419" type="curve" smooth="yes"/>
      <point x="133" y="419"/>
      <point x="155" y="401"/>
      <point x="162" y="377" type="curve"/>
    </contour>
  </outline>
</glyph>
<glyph name="uniE200" format="2">
  <advance width="0"/>
  <unicode hex="E200"/>
  <key>note</key>
  <string>bassoonLH1stFingerHalfClosed</string>
  <outline>
    <contour>
      <point x="404" y="903" type="line"/>
      <point x="404" y="919"/>
      <point x="417" y="931"/>
      <point x="432" y="931" type="curve" smooth="yes"/>
      <point x="448" y="931"/>
      <point x="461" y="919"/>
      <point x="461" y="903" type="curve"/>
    </contour>
  </outline>
</glyph>
<glyph name="uniE202" format="2">
  <advance width="0"/>
  <unicode hex="E202"/>
  <key>note</key>
  <string>bassoonLH3rdFingerHalfClosed</string>
  <outline>
    <contour>
      <point x="397" y="685" type="line"/>
      <point x="397" y="702"/>
      <point x="410" y="715"/>
      <point x="427" y="715" type="curve" smooth="yes"/>
      <point x="443" y="715"/>
      <point x="456" y="702"/>
      <point x="456" y="685" type="curve"/>
    </contour>
  </outline>
</glyph>
<glyph name="uniE203" format="2">
  <advance width="0"/>
  <unicode hex="E203"/>
  <key>note</key>
  <string>bassoonRH1stFingerHalfClosed</string>
  <outline>
    <contour>
      <point x="500" y="436" type="line"/>
      <point x="500" y="452"/>
      <point x="513" y="464"/>
      <point x="528" y="464" type="curve" smooth="yes"/>
      <point x="544" y="464"/>
      <point x="557" y="452"/>
      <point x="557" y="436" type="curve"/>
    </contour>
  </outline>
</glyph>
<glyph name="uniE204" format="2">
  <advance width="0"/>
  <unicode hex="E204"/>
  <key>note</key>
  <string>bassoonRH2ndFingerHalfClosed</string>
  <outline>
    <contour>
      <point x="494" y="342" type="line"/>
      <point x="494" y="358"/>
      <point x="507" y="372"/>
      <point x="523" y="372" type="curve" smooth="yes"/>
      <point x="540" y="372"/>
      <point x="553" y="358"/>
      <point x="553" y="342" type="curve"/>
    </contour>
  </outline>
</glyph>
<glyph name="uniE205" format="2">
  <advance width="0"/>
  <unicode hex="E205"/>
  <key>note</key>
  <string>bassoonLH1stFingerQuarterClosed</string>
  <outline>
    <contour>
      <point x="458" y="917" type="line"/>
      <point x="453" y="925"/>
      <point x="444" y="931"/>
      <point x="433" y="931" type="curve" smooth="yes"/>
      <point x="423" y="931"/>
      <point x="413" y="925"/>
      <point x="409" y="917" type="curve"/>
    </contour>
  </outline>
</glyph>
<glyph name="uniE206" format="2">
  <advance width="0"/>
  <unicode hex="E206"/>
  <key>note</key>
  <string>bassoonLH2ndFingerQuarterClosed</string>
  <outline>
    <contour>
      <point x="458" y="794" type="line"/>
      <point x="453" y="803"/>
      <point x="444" y="809"/>
      <point x="433" y="809" type="curve" smooth="yes"/>
      <point x="423" y="809"/>
      <point x="413" y="803"/>
      <point x="408" y="794" type="curve"/>
    </contour>
  </outline>
</glyph>
<glyph name="uniE207" format="2">
  <advance width="0"/>
  <unicode hex="E207"/>
  <key>note</key>
  <string>bassoonLH3rdFingerQuarterClosed</string>
  <outline>
    <contour>
      <point x="451" y="700" type="line"/>
      <point x="447" y="708"/>
      <point x="437" y="714"/>
      <point x="427" y="714" type="curve" smooth="yes"/>
      <point x="416" y="714"/>
      <point x="407" y="708"/>
      <point x="402" y="700" type="curve"/>
    </contour>
  </outline>
</glyph>
<glyph name="uniE208" format="2">
  <advance width="0"/>
  <unicode hex="E208"/>
  <key>note</key>
  <string>bassoonRH1stFingerQuarterClosed</string>
  <outline>
    <contour>
      <point x="553" y="450" type="line"/>
      <point x="548" y="458"/>
      <point x="539" y="464"/>
      <point x="528" y="464" type="curve" smooth="yes"/>
      <point x="518" y="464"/>
      <point x="509" y="458"/>
      <point x="504" y="450" type="curve"/>
    </contour>
  </outline>
</glyph>
<glyph name="uniE209" format="2">
  <advance width="0"/>
  <unicode hex="E209"/>
  <key>note</key>
  <string>bassoonRH2ndFingerQuarterClosed</string>
  <outline>
    <contour>
      <point x="548" y="356" type="line"/>
      <point x="544" y="365"/>
      <point x="534" y="371"/>
      <point x="524" y="371" type="curve" smooth="yes"/>
      <point x="513" y="371"/>
      <point x="504" y="365"/>
      <point x="499" y="356" type="curve"/>
    </contour>
  </outline>
</glyph>
<glyph name="uniE20A" format="2">
  <advance width="0"/>
  <unicode hex="E20A"/>
  <key>note</key>
  <string>bassoonLH1stFingerThreeQuartersClosed</string>
  <outline>
    <contour>
      <point x="457" y="889" type="line"/>
      <point x="459" y="893"/>
      <point x="461" y="898"/>
      <point x="461" y="903" type="curve" smooth="yes"/>
      <point x="461" y="918"/>
      <point x="448" y="931"/>
      <point x="432" y="931" type="curve" smooth="yes"/>
      <point x="417" y="931"/>
      <point x="404" y="918"/>
      <point x="404" y="903" type="curve" smooth="yes"/>
      <point x="404" y="898"/>
      <point x="406" y="893"/>
      <point x="408" y="889" type="curve"/>
    </contour>
  </outline>
</glyph>
<glyph name="uniE20B" format="2">
  <advance width="0"/>
  <unicode hex="E20B"/>
  <key>note</key>
  <string>bassoonLH2ndFingerThreeQuartersClosed</string>
  <outline>
    <contour>
      <point x="457" y="766" type="line"/>
      <point x="459" y="771"/>
      <point x="461" y="775"/>
      <point x="461" y="781" type="curve" smooth="yes"/>
      <point x="461" y="796"/>
      <point x="448" y="809"/>
      <point x="433" y="809" type="curve" smooth="yes"/>
      <point x="417" y="809"/>
      <point x="404" y="796"/>
      <point x="404" y="781" type="curve" smooth="yes"/>
      <point x="404" y="775"/>
      <point x="406" y="771"/>
      <point x="408" y="766" type="curve"/>
    </contour>
  </outline>
</glyph>
<glyph name="uniE20C" format="2">
  <advance width="0"/>
  <unicode hex="E20C"/>
  <key>note</key>
  <string>bassoonLH3rdFingerThreeQuartersClosed</string>
  <outline>
    <contour>
      <point x="450" y="672" type="line"/>
      <point x="452" y="676"/>
      <point x="454" y="681"/>
      <point x="454" y="686" type="curve" smooth="yes"/>
      <point x="454" y="702"/>
      <point x="441" y="714"/>
      <point x="426" y="714" type="curve" smooth="yes"/>
      <point x="410" y="714"/>
      <point x="397" y="702"/>
      <point x="397" y="686" type="curve" smooth="yes"/>
      <point x="397" y="681"/>
      <point x="399" y="676"/>
      <point x="401" y="672" type="curve"/>
    </contour>
  </outline>
</glyph>
<glyph name="uniE20D" format="2">
  <advance width="0"/>
  <unicode hex="E20D"/>
  <key>note</key>
  <string>bassoonRH1stFingerThreeQuartersClosed</string>
  <outline>
    <contour>
      <point x="553" y="422" type="line"/>
      <point x="556" y="426"/>
      <point x="557" y="431"/>
      <point x="557" y="436" type="curve" smooth="yes"/>
      <point x="557" y="452"/>
      <point x="544" y="464"/>
      <point x="529" y="464" type="curve" smooth="yes"/>
      <point x="513" y="464"/>
      <point x="500" y="452"/>
      <point x="500" y="436" type="curve" smooth="yes"/>
      <point x="500" y="431"/>
      <point x="502" y="426"/>
      <point x="504" y="422" type="curve"/>
    </contour>
  </outline>
</glyph>
<glyph name="uniE20E" format="2">
  <advance width="0"/>
  <unicode hex="E20E"/>
  <key>note</key>
  <string>bassoonRH2ndFingerThreeQuartersClosed</string>
  <outline>
    <contour>
      <point x="548" y="328" type="line"/>
      <point x="550" y="332"/>
      <point x="552" y="337"/>
      <point x="552" y="342" type="curve" smooth="yes"/>
      <point x="552" y="358"/>
      <point x="539" y="371"/>
      <point x="524" y="371" type="curve" smooth="yes"/>
      <point x="508" y="371"/>
      <point x="495" y="358"/>
      <point x="495" y="342" type="curve" smooth="yes"/>
      <point x="495" y="337"/>
      <point x="497" y="332"/>
      <point x="499" y="328" type="curve"/>
    </contour>
  </outline>
</glyph>
<glyph name="uniE210" format="2">
  <advance width="0"/>
  <unicode hex="E210"/>
  <key>note</key>
  <string>bassoonLH1stFingerTrill</string>
  <outline>
    <contour>
      <point x="393" y="856" type="curve"/>
      <point x="392" y="856"/>
      <point x="390" y="856"/>
      <point x="389" y="857" type="curve" smooth="yes"/>
      <point x="388" y="858"/>
      <point x="387" y="859"/>
      <point x="387" y="861" type="curve" smooth="yes"/>
      <point x="387" y="862"/>
      <point x="388" y="864"/>
      <point x="389" y="865" type="curve"/>
      <point x="468" y="943" type="line"/>
      <point x="469" y="944"/>
      <point x="470" y="944"/>
      <point x="471" y="944" type="curve" smooth="yes"/>
      <point x="472" y="944"/>
      <point x="474" y="944"/>
      <point x="475" y="943" type="curve" smooth="yes"/>
      <point x="476" y="942"/>
      <point x="476" y="940"/>
      <point x="476" y="939" type="curve" smooth="yes"/>
      <point x="476" y="938"/>
      <point x="476" y="937"/>
      <point x="475" y="936" type="curve"/>
      <point x="397" y="857" type="line"/>
      <point x="396" y="856"/>
      <point x="394" y="856"/>
    </contour>
  </outline>
</glyph>
<glyph name="uniE211" format="2">
  <advance width="0"/>
  <unicode hex="E211"/>
  <key>note</key>
  <string>bassoonLHHighEFlatTrill</string>
  <outline>
    <contour>
      <point x="415" y="816" type="line"/>
      <point x="414" y="816"/>
      <point x="413" y="817"/>
      <point x="412" y="818" type="curve" smooth="yes"/>
      <point x="411" y="819"/>
      <point x="410" y="820"/>
      <point x="410" y="821" type="curve" smooth="yes"/>
      <point x="410" y="822"/>
      <point x="411" y="824"/>
      <point x="412" y="825" type="curve"/>
      <point x="453" y="867" type="line"/>
      <point x="454" y="868"/>
      <point x="455" y="868"/>
      <point x="457" y="868" type="curve" smooth="yes"/>
      <point x="458" y="868"/>
      <point x="460" y="868"/>
      <point x="461" y="867" type="curve" smooth="yes"/>
      <point x="462" y="866"/>
      <point x="462" y="864"/>
      <point x="462" y="863" type="curve" smooth="yes"/>
      <point x="462" y="861"/>
      <point x="462" y="860"/>
      <point x="461" y="859" type="curve"/>
      <point x="419" y="818" type="line"/>
      <point x="418" y="817"/>
      <point x="416" y="816"/>
      <point x="415" y="816" type="curve"/>
    </contour>
  </outline>
</glyph>
<glyph name="uniE212" format="2">
  <advance width="0"/>
  <unicode hex="E212"/>
  <key>note</key>
  <string>bassoonLH2ndFingerTrill</string>
  <outline>
    <contour>
      <point x="393" y="734" type="curve"/>
      <point x="392" y="734"/>
      <point x="390" y="734"/>
      <point x="389" y="735" type="curve" smooth="yes"/>
      <point x="388" y="736"/>
      <point x="387" y="737"/>
      <point x="387" y="739" type="curve" smooth="yes"/>
      <point x="387" y="740"/>
      <point x="388" y="742"/>
      <point x="389" y="743" type="curve"/>
      <point x="468" y="821" type="line"/>
      <point x="469" y="822"/>
      <point x="470" y="822"/>
      <point x="471" y="822" type="curve" smooth="yes"/>
      <point x="472" y="822"/>
      <point x="474" y="822"/>
      <point x="475" y="821" type="curve" smooth="yes"/>
      <point x="476" y="820"/>
      <point x="476" y="818"/>
      <point x="476" y="817" type="curve" smooth="yes"/>
      <point x="476" y="816"/>
      <point x="476" y="815"/>
      <point x="475" y="814" type="curve"/>
      <point x="397" y="735" type="line"/>
      <point x="396" y="734"/>
      <point x="394" y="734"/>
    </contour>
  </outline>
</glyph>
<glyph name="uniE216" format="2">
  <advance width="0"/>
  <unicode hex="E216"/>
  <key>note</key>
  <string>bassoonRHCSharpTrillTrill</string>
  <outline>
    <contour>
      <point x="410" y="446" type="curve"/>
      <point x="408" y="446"/>
      <point x="407" y="446"/>
      <point x="406" y="447" type="curve" smooth="yes"/>
      <point x="405" y="448"/>
      <point x="404" y="449"/>
      <point x="404" y="451" type="curve" smooth="yes"/>
      <point x="404" y="452"/>
      <point x="405" y="454"/>
      <point x="406" y="455" type="curve"/>
      <point x="484" y="533" type="line"/>
      <point x="485" y="534"/>
      <point x="486" y="534"/>
      <point x="488" y="534" type="curve" smooth="yes"/>
      <point x="489" y="534"/>
      <point x="491" y="534"/>
      <point x="492" y="533" type="curve" smooth="yes"/>
      <point x="493" y="532"/>
      <point x="493" y="530"/>
      <point x="493" y="529" type="curve" smooth="yes"/>
      <point x="493" y="528"/>
      <point x="493" y="527"/>
      <point x="492" y="526" type="curve"/>
      <point x="413" y="447" type="line"/>
      <point x="412" y="446"/>
      <point x="411" y="446"/>
    </contour>
  </outline>
</glyph>
<glyph name="uniE217" format="2">
  <advance width="0"/>
  <unicode hex="E217"/>
  <key>note</key>
  <string>bassoonRH1stFingerTrill</string>
  <outline>
    <contour>
      <point x="488" y="391" type="curve"/>
      <point x="487" y="391"/>
      <point x="485" y="391"/>
      <point x="484" y="392" type="curve" smooth="yes"/>
      <point x="483" y="393"/>
      <point x="482" y="394"/>
      <point x="482" y="396" type="curve" smooth="yes"/>
      <point x="482" y="397"/>
      <point x="483" y="399"/>
      <point x="484" y="400" type="curve"/>
      <point x="563" y="478" type="line"/>
      <point x="564" y="479"/>
      <point x="565" y="479"/>
      <point x="566" y="479" type="curve" smooth="yes"/>
      <point x="567" y="479"/>
      <point x="569" y="479"/>
      <point x="570" y="478" type="curve" smooth="yes"/>
      <point x="571" y="477"/>
      <point x="571" y="475"/>
      <point x="571" y="474" type="curve" smooth="yes"/>
      <point x="571" y="473"/>
      <point x="571" y="472"/>
      <point x="570" y="471" type="curve"/>
      <point x="492" y="392" type="line"/>
      <point x="491" y="391"/>
      <point x="489" y="391"/>
    </contour>
  </outline>
</glyph>
<glyph name="uniE219" format="2">
  <advance width="0"/>
  <unicode hex="E219"/>
  <key>note</key>
  <string>bassoonRHBFlatTrillTrill</string>
  <outline>
    <contour>
      <point x="498" y="228" type="line"/>
      <point x="497" y="228"/>
      <point x="496" y="228"/>
      <point x="495" y="229" type="curve" smooth="yes"/>
      <point x="494" y="230"/>
      <point x="493" y="231"/>
      <point x="493" y="233" type="curve" smooth="yes"/>
      <point x="493" y="234"/>
      <point x="494" y="236"/>
      <point x="495" y="237" type="curve"/>
      <point x="541" y="283" type="line"/>
      <point x="542" y="284"/>
      <point x="543" y="284"/>
      <point x="544" y="284" type="curve" smooth="yes"/>
      <point x="545" y="284"/>
      <point x="547" y="284"/>
      <point x="548" y="283" type="curve" smooth="yes"/>
      <point x="549" y="282"/>
      <point x="549" y="280"/>
      <point x="549" y="279" type="curve" smooth="yes"/>
      <point x="549" y="278"/>
      <point x="549" y="277"/>
      <point x="548" y="276" type="curve"/>
      <point x="502" y="229" type="line"/>
      <point x="501" y="228"/>
      <point x="500" y="228"/>
      <point x="498" y="228" type="curve"/>
    </contour>
  </outline>
</glyph>
<glyph name="uniE21F" format="2">
  <advance width="0"/>
  <unicode hex="E21F"/>
  <key>note</key>
  <string>bassoonLTHighBTrill</string>
  <outline>
    <contour>
      <point x="236" y="801" type="curve"/>
      <point x="235" y="801"/>
      <point x="234" y="801"/>
      <point x="233" y="802" type="curve"/>
      <point x="193" y="842" type="line"/>
      <point x="192" y="843"/>
      <point x="191" y="844"/>
      <point x="191" y="846" type="curve" smooth="yes"/>
      <point x="191" y="847"/>
      <point x="192" y="849"/>
      <point x="193" y="850" type="curve" smooth="yes"/>
      <point x="194" y="851"/>
      <point x="195" y="851"/>
      <point x="196" y="851" type="curve" smooth="yes"/>
      <point x="197" y="851"/>
      <point x="199" y="851"/>
      <point x="200" y="850" type="curve"/>
      <point x="240" y="810" type="line"/>
      <point x="241" y="809"/>
      <point x="241" y="807"/>
      <point x="241" y="806" type="curve" smooth="yes"/>
      <point x="241" y="804"/>
      <point x="241" y="803"/>
      <point x="240" y="802" type="curve" smooth="yes"/>
      <point x="239" y="801"/>
      <point x="237" y="801"/>
    </contour>
  </outline>
</glyph>
<glyph name="uniE223" format="2">
  <advance width="0"/>
  <unicode hex="E223"/>
  <key>note</key>
  <string>bassoonLTLowBFlatTrill</string>
  <outline>
    <contour>
      <point x="118" y="814" type="line"/>
      <point x="116" y="814"/>
      <point x="115" y="815"/>
      <point x="114" y="816" type="curve" smooth="yes"/>
      <point x="113" y="817"/>
      <point x="112" y="818"/>
      <point x="112" y="819" type="curve" smooth="yes"/>
      <point x="112" y="820"/>
      <point x="113" y="822"/>
      <point x="114" y="823" type="curve"/>
      <point x="154" y="863" type="line"/>
      <point x="155" y="864"/>
      <point x="156" y="864"/>
      <point x="157" y="864" type="curve" smooth="yes"/>
      <point x="158" y="864"/>
      <point x="160" y="864"/>
      <point x="161" y="863" type="curve" smooth="yes"/>
      <point x="162" y="862"/>
      <point x="162" y="860"/>
      <point x="162" y="859" type="curve" smooth="yes"/>
      <point x="162" y="857"/>
      <point x="162" y="856"/>
      <point x="161" y="855" type="curve"/>
      <point x="121" y="816" type="line"/>
      <point x="120" y="815"/>
      <point x="119" y="814"/>
      <point x="118" y="814" type="curve"/>
    </contour>
  </outline>
</glyph>
<glyph name="uniE225" format="2">
  <advance width="0"/>
  <unicode hex="E225"/>
  <key>note</key>
  <string>bassoonLTLowCTrill</string>
  <outline>
    <contour>
      <point x="5" y="783" type="curve"/>
      <point x="4" y="783"/>
      <point x="2" y="784"/>
      <point x="1" y="785" type="curve" smooth="yes"/>
      <point x="0" y="786"/>
      <point x="0" y="787"/>
      <point x="0" y="788" type="curve" smooth="yes"/>
      <point x="0" y="789"/>
      <point x="0" y="791"/>
      <point x="2" y="792" type="curve"/>
      <point x="53" y="842" type="line"/>
      <point x="54" y="843"/>
      <point x="55" y="843"/>
      <point x="57" y="843" type="curve" smooth="yes"/>
      <point x="58" y="843"/>
      <point x="60" y="843"/>
      <point x="61" y="842" type="curve" smooth="yes"/>
      <point x="62" y="841"/>
      <point x="62" y="840"/>
      <point x="62" y="839" type="curve" smooth="yes"/>
      <point x="62" y="837"/>
      <point x="61" y="836"/>
      <point x="60" y="835" type="curve"/>
      <point x="9" y="785" type="line"/>
      <point x="8" y="784"/>
      <point x="6" y="783"/>
    </contour>
  </outline>
</glyph>
<glyph name="uniE227" format="2">
  <advance width="0"/>
  <unicode hex="E227"/>
  <key>note</key>
  <string>bassoonRTBFlatTrill</string>
  <outline>
    <contour>
      <point x="104" y="425" type="line"/>
      <point x="103" y="425"/>
      <point x="101" y="426"/>
      <point x="100" y="427" type="curve"/>
      <point x="48" y="479" type="line"/>
      <point x="47" y="480"/>
      <point x="46" y="481"/>
      <point x="46" y="482" type="curve" smooth="yes"/>
      <point x="46" y="483"/>
      <point x="47" y="485"/>
      <point x="48" y="486" type="curve" smooth="yes"/>
      <point x="49" y="487"/>
      <point x="50" y="487"/>
      <point x="52" y="487" type="curve" smooth="yes"/>
      <point x="53" y="487"/>
      <point x="55" y="487"/>
      <point x="56" y="486" type="curve"/>
      <point x="108" y="434" type="line"/>
      <point x="109" y="433"/>
      <point x="109" y="431"/>
      <point x="109" y="430" type="curve" smooth="yes"/>
      <point x="109" y="429"/>
      <point x="109" y="428"/>
      <point x="108" y="427" type="curve" smooth="yes"/>
      <point x="107" y="426"/>
      <point x="105" y="425"/>
      <point x="104" y="425" type="curve"/>
    </contour>
  </outline>
</glyph>
<glyph name="uniE281" format="2">
  <advance width="0"/>
  <unicode hex="E281"/>
  <key>note</key>
  <string>saxophoneBaritoneLHLowAOpen</string>
  <outline>
    <contour>
      <point x="16" y="851" type="line"/>
      <point x="12" y="851"/>
      <point x="7" y="853"/>
      <point x="4" y="857" type="curve" smooth="yes"/>
      <point x="1" y="860"/>
      <point x="0" y="865"/>
      <point x="0" y="870" type="curve" smooth="yes"/>
      <point x="0" y="871"/>
      <point x="4" y="896"/>
      <point x="13" y="896" type="curve" smooth="yes"/>
      <point x="15" y="896"/>
      <point x="19" y="894"/>
      <point x="21" y="893" type="curve"/>
      <point x="50" y="883" type="line"/>
      <point x="55" y="880"/>
      <point x="57" y="876"/>
      <point x="57" y="872" type="curve" smooth="yes"/>
      <point x="57" y="868"/>
      <point x="55" y="851"/>
      <point x="44" y="851" type="curve"/>
    </contour>
    <contour>
      <point x="13" y="888" type="line"/>
      <point x="12" y="887"/>
      <point x="10" y="884"/>
      <point x="8" y="869" type="curve" smooth="yes"/>
      <point x="8" y="865"/>
      <point x="9" y="863"/>
      <point x="10" y="862" type="curve" smooth="yes"/>
      <point x="12" y="860"/>
      <point x="14" y="859"/>
      <point x="16" y="859" type="curve" smooth="yes"/>
      <point x="16" y="859"/>
      <point x="16" y="859"/>
      <point x="44" y="859" type="curve"/>
      <point x="45" y="859"/>
      <point x="46" y="861"/>
      <point x="47" y="864" type="curve" smooth="yes"/>
      <point x="49" y="867"/>
      <point x="49" y="871"/>
      <point x="49" y="872" type="curve" smooth="yes"/>
      <point x="49" y="873"/>
      <point x="48" y="875"/>
      <point x="47" y="875" type="curve"/>
      <point x="19" y="886" type="line"/>
      <point x="16" y="886"/>
      <point x="14" y="887"/>
      <point x="13" y="888" type="curve"/>
    </contour>
  </outline>
</glyph>
<glyph name="uniE283" format="2">
  <advance width="0"/>
  <unicode hex="E283"/>
  <key>note</key>
  <string>saxophoneLHFrontFClosed</string>
  <outline>
    <contour>
      <point x="130" y="894" type="line"/>
      <point x="130" y="881"/>
      <point x="119" y="870"/>
      <point x="106" y="870" type="curve" smooth="yes"/>
      <point x="92" y="870"/>
      <point x="81" y="881"/>
      <point x="81" y="894" type="curve" smooth="yes"/>
      <point x="81" y="908"/>
      <point x="92" y="919"/>
      <point x="106" y="919" type="curve" smooth="yes"/>
      <point x="119" y="919"/>
      <point x="130" y="908"/>
      <point x="130" y="894" type="curve"/>
    </contour>
  </outline>
</glyph>
<glyph name="uniE284" format="2">
  <advance width="0"/>
  <unicode hex="E284"/>
  <key>note</key>
  <string>saxophoneLH1stFingerClosed</string>
  <outline>
    <contour>
      <point x="141" y="804" type="line"/>
      <point x="141" y="783"/>
      <point x="125" y="767"/>
      <point x="104" y="767" type="curve" smooth="yes"/>
      <point x="84" y="767"/>
      <point x="67" y="783"/>
      <point x="67" y="804" type="curve" smooth="yes"/>
      <point x="67" y="824"/>
      <point x="84" y="841"/>
      <point x="104" y="841" type="curve" smooth="yes"/>
      <point x="125" y="841"/>
      <point x="141" y="824"/>
      <point x="141" y="804" type="curve"/>
    </contour>
  </outline>
</glyph>
<glyph name="uniE285" format="2">
  <advance width="0"/>
  <unicode hex="E285"/>
  <key>note</key>
  <string>saxophoneLHBFlatClosed</string>
  <outline>
    <contour>
      <point x="164" y="730" type="line"/>
      <point x="164" y="718"/>
      <point x="155" y="709"/>
      <point x="143" y="709" type="curve" smooth="yes"/>
      <point x="131" y="709"/>
      <point x="121" y="718"/>
      <point x="121" y="730" type="curve" smooth="yes"/>
      <point x="121" y="742"/>
      <point x="131" y="752"/>
      <point x="143" y="752" type="curve" smooth="yes"/>
      <point x="155" y="752"/>
      <point x="164" y="742"/>
      <point x="164" y="730" type="curve"/>
    </contour>
  </outline>
</glyph>
<glyph name="uniE286" format="2">
  <advance width="0"/>
  <unicode hex="E286"/>
  <key>note</key>
  <string>saxophoneLH2ndFingerClosed</string>
  <outline>
    <contour>
      <point x="141" y="655" type="line"/>
      <point x="141" y="634"/>
      <point x="125" y="618"/>
      <point x="104" y="618" type="curve" smooth="yes"/>
      <point x="84" y="618"/>
      <point x="67" y="634"/>
      <point x="67" y="655" type="curve" smooth="yes"/>
      <point x="67" y="675"/>
      <point x="84" y="692"/>
      <point x="104" y="692" type="curve" smooth="yes"/>
      <point x="125" y="692"/>
      <point x="141" y="675"/>
      <point x="141" y="655" type="curve"/>
    </contour>
  </outline>
</glyph>
<glyph name="uniE287" format="2">
  <advance width="0"/>
  <unicode hex="E287"/>
  <key>note</key>
  <string>saxophoneLH3rdFingerClosed</string>
  <outline>
    <contour>
      <point x="141" y="553" type="line"/>
      <point x="141" y="532"/>
      <point x="125" y="516"/>
      <point x="104" y="516" type="curve" smooth="yes"/>
      <point x="84" y="516"/>
      <point x="67" y="532"/>
      <point x="67" y="553" type="curve" smooth="yes"/>
      <point x="67" y="573"/>
      <point x="84" y="590"/>
      <point x="104" y="590" type="curve" smooth="yes"/>
      <point x="125" y="590"/>
      <point x="141" y="573"/>
      <point x="141" y="553" type="curve"/>
    </contour>
  </outline>
</glyph>
<glyph name="uniE288" format="2">
  <advance width="0"/>
  <unicode hex="E288"/>
  <key>note</key>
  <string>saxophoneLHEFlatPalmClosed</string>
  <outline>
    <contour>
      <point x="187" y="931" type="line"/>
      <point x="187" y="924"/>
      <point x="182" y="919"/>
      <point x="176" y="919" type="curve"/>
      <point x="169" y="919"/>
      <point x="164" y="924"/>
      <point x="164" y="931" type="curve"/>
      <point x="164" y="956" type="line"/>
      <point x="164" y="962"/>
      <point x="169" y="967"/>
      <point x="176" y="967" type="curve"/>
      <point x="182" y="967"/>
      <point x="187" y="962"/>
      <point x="187" y="956" type="curve"/>
    </contour>
  </outline>
</glyph>
<glyph name="uniE289" format="2">
  <advance width="0"/>
  <unicode hex="E289"/>
  <key>note</key>
  <string>saxophoneLHDPalmClosed</string>
  <outline>
    <contour>
      <point x="209" y="874" type="line"/>
      <point x="209" y="868"/>
      <point x="204" y="863"/>
      <point x="197" y="863" type="curve"/>
      <point x="191" y="863"/>
      <point x="186" y="868"/>
      <point x="186" y="874" type="curve"/>
      <point x="186" y="899" type="line"/>
      <point x="186" y="906"/>
      <point x="191" y="911"/>
      <point x="197" y="911" type="curve"/>
      <point x="204" y="911"/>
      <point x="209" y="906"/>
      <point x="209" y="899" type="curve"/>
    </contour>
  </outline>
</glyph>
<glyph name="uniE28A" format="2">
  <advance width="0"/>
  <unicode hex="E28A"/>
  <key>note</key>
  <string>saxophoneLHFPalmClosed</string>
  <outline>
    <contour>
      <point x="175" y="848" type="line"/>
      <point x="175" y="841"/>
      <point x="170" y="836"/>
      <point x="163" y="836" type="curve"/>
      <point x="157" y="836"/>
      <point x="152" y="841"/>
      <point x="152" y="848" type="curve"/>
      <point x="152" y="873" type="line"/>
      <point x="152" y="879"/>
      <point x="157" y="884"/>
      <point x="163" y="884" type="curve"/>
      <point x="170" y="884"/>
      <point x="175" y="879"/>
      <point x="175" y="873" type="curve"/>
    </contour>
  </outline>
</glyph>
<glyph name="uniE28B" format="2">
  <advance width="0"/>
  <unicode hex="E28B"/>
  <key>note</key>
  <string>saxophoneLHGSharpClosed</string>
  <outline>
    <contour>
      <point x="184" y="467" type="line"/>
      <point x="123" y="467" type="line"/>
      <point x="123" y="483"/>
      <point x="137" y="497"/>
      <point x="154" y="497" type="curve" smooth="yes"/>
      <point x="170" y="497"/>
      <point x="184" y="483"/>
      <point x="184" y="467" type="curve"/>
    </contour>
  </outline>
</glyph>
<glyph name="uniE28C" format="2">
  <advance width="0"/>
  <unicode hex="E28C"/>
  <key>note</key>
  <string>saxophoneLHLowCSharpClosed</string>
  <outline>
    <contour>
      <point x="185" y="419" type="line"/>
      <point x="160" y="419" type="line"/>
      <point x="160" y="455" type="line"/>
      <point x="185" y="455" type="line"/>
    </contour>
  </outline>
</glyph>
<glyph name="uniE28D" format="2">
  <advance width="0"/>
  <unicode hex="E28D"/>
  <key>note</key>
  <string>saxophoneLHLowBClosed</string>
  <outline>
    <contour>
      <point x="148" y="419" type="line"/>
      <point x="123" y="419" type="line"/>
      <point x="123" y="455" type="line"/>
      <point x="148" y="455" type="line"/>
    </contour>
  </outline>
</glyph>
<glyph name="uniE28E" format="2">
  <advance width="0"/>
  <unicode hex="E28E"/>
  <key>note</key>
  <string>saxophoneLHLowBFlatClosed</string>
  <outline>
    <contour>
      <point x="123" y="407" type="line"/>
      <point x="184" y="407" type="line"/>
      <point x="184" y="391"/>
      <point x="170" y="377"/>
      <point x="154" y="377" type="curve" smooth="yes"/>
      <point x="137" y="377"/>
      <point x="123" y="391"/>
      <point x="123" y="407" type="curve"/>
    </contour>
  </outline>
</glyph>
<glyph name="uniE28F" format="2">
  <advance width="0"/>
  <unicode hex="E28F"/>
  <key>note</key>
  <string>saxophoneRHESideClosed</string>
  <outline>
    <contour>
      <point x="27" y="329" type="line"/>
      <point x="27" y="322"/>
      <point x="22" y="317"/>
      <point x="15" y="317" type="curve"/>
      <point x="9" y="317"/>
      <point x="4" y="322"/>
      <point x="4" y="329" type="curve"/>
      <point x="4" y="354" type="line"/>
      <point x="4" y="360"/>
      <point x="9" y="365"/>
      <point x="15" y="365" type="curve"/>
      <point x="22" y="365"/>
      <point x="27" y="360"/>
      <point x="27" y="354" type="curve"/>
    </contour>
  </outline>
</glyph>
<glyph name="uniE290" format="2">
  <advance width="0"/>
  <unicode hex="E290"/>
  <key>note</key>
  <string>saxophoneRHCSideClosed</string>
  <outline>
    <contour>
      <point x="27" y="270" type="line"/>
      <point x="27" y="264"/>
      <point x="22" y="259"/>
      <point x="15" y="259" type="curve"/>
      <point x="9" y="259"/>
      <point x="4" y="264"/>
      <point x="4" y="270" type="curve"/>
      <point x="4" y="295" type="line"/>
      <point x="4" y="301"/>
      <point x="9" y="307"/>
      <point x="15" y="307" type="curve"/>
      <point x="22" y="307"/>
      <point x="27" y="301"/>
      <point x="27" y="295" type="curve"/>
    </contour>
  </outline>
</glyph>
<glyph name="uniE291" format="2">
  <advance width="0"/>
  <unicode hex="E291"/>
  <key>note</key>
  <string>saxophoneRHBFlatSideClosed</string>
  <outline>
    <contour>
      <point x="27" y="211" type="line"/>
      <point x="27" y="205"/>
      <point x="22" y="200"/>
      <point x="15" y="200" type="curve"/>
      <point x="9" y="200"/>
      <point x="4" y="205"/>
      <point x="4" y="211" type="curve"/>
      <point x="4" y="236" type="line"/>
      <point x="4" y="243"/>
      <point x="9" y="248"/>
      <point x="15" y="248" type="curve"/>
      <point x="22" y="248"/>
      <point x="27" y="243"/>
      <point x="27" y="236" type="curve"/>
    </contour>
  </outline>
</glyph>
<glyph name="uniE292" format="2">
  <advance width="0"/>
  <unicode hex="E292"/>
  <key>note</key>
  <string>saxophoneRHHighFSharpClosed</string>
  <outline>
    <contour>
      <point x="55" y="208" type="line"/>
      <point x="55" y="203"/>
      <point x="52" y="200"/>
      <point x="48" y="200" type="curve"/>
      <point x="44" y="200"/>
      <point x="40" y="203"/>
      <point x="40" y="208" type="curve"/>
      <point x="40" y="269" type="line"/>
      <point x="40" y="273"/>
      <point x="44" y="277"/>
      <point x="48" y="277" type="curve"/>
      <point x="52" y="277"/>
      <point x="55" y="273"/>
      <point x="55" y="269" type="curve"/>
    </contour>
  </outline>
</glyph>
<glyph name="uniE293" format="2">
  <advance width="0"/>
  <unicode hex="E293"/>
  <key>note</key>
  <string>saxophoneRH1stFingerClosed</string>
  <outline>
    <contour>
      <point x="141" y="290" type="line"/>
      <point x="141" y="270"/>
      <point x="125" y="253"/>
      <point x="104" y="253" type="curve" smooth="yes"/>
      <point x="84" y="253"/>
      <point x="67" y="270"/>
      <point x="67" y="290" type="curve" smooth="yes"/>
      <point x="67" y="310"/>
      <point x="84" y="327"/>
      <point x="104" y="327" type="curve" smooth="yes"/>
      <point x="125" y="327"/>
      <point x="141" y="310"/>
      <point x="141" y="290" type="curve"/>
    </contour>
  </outline>
</glyph>
<glyph name="uniE294" format="2">
  <advance width="0"/>
  <unicode hex="E294"/>
  <key>note</key>
  <string>saxophoneRH2ndFingerClosed</string>
  <outline>
    <contour>
      <point x="141" y="188" type="line"/>
      <point x="141" y="168"/>
      <point x="125" y="151"/>
      <point x="104" y="151" type="curve" smooth="yes"/>
      <point x="84" y="151"/>
      <point x="67" y="168"/>
      <point x="67" y="188" type="curve" smooth="yes"/>
      <point x="67" y="208"/>
      <point x="84" y="225"/>
      <point x="104" y="225" type="curve" smooth="yes"/>
      <point x="125" y="225"/>
      <point x="141" y="208"/>
      <point x="141" y="188" type="curve"/>
    </contour>
  </outline>
</glyph>
<glyph name="uniE295" format="2">
  <advance width="0"/>
  <unicode hex="E295"/>
  <key>note</key>
  <string>saxophoneRHFSharpAlternateClosed</string>
  <outline>
    <contour>
      <point x="84" y="136" type="line"/>
      <point x="84" y="134"/>
      <point x="73" y="133"/>
      <point x="67" y="132" type="curve" smooth="yes"/>
      <point x="61" y="131"/>
      <point x="59" y="130"/>
      <point x="56" y="121" type="curve" smooth="yes"/>
      <point x="54" y="116"/>
      <point x="50" y="114"/>
      <point x="47" y="114" type="curve" smooth="yes"/>
      <point x="44" y="114"/>
      <point x="41" y="116"/>
      <point x="41" y="120" type="curve"/>
      <point x="41" y="153" type="line"/>
      <point x="41" y="157"/>
      <point x="44" y="159"/>
      <point x="48" y="159" type="curve" smooth="yes"/>
      <point x="51" y="159"/>
      <point x="54" y="157"/>
      <point x="56" y="153" type="curve" smooth="yes"/>
      <point x="59" y="143"/>
      <point x="61" y="142"/>
      <point x="67" y="141" type="curve" smooth="yes"/>
      <point x="73" y="140"/>
      <point x="84" y="139"/>
      <point x="84" y="136" type="curve"/>
    </contour>
  </outline>
</glyph>
<glyph name="uniE296" format="2">
  <advance width="0"/>
  <unicode hex="E296"/>
  <key>note</key>
  <string>saxophoneRH3rdFingerClosed</string>
  <outline>
    <contour>
      <point x="141" y="86" type="line"/>
      <point x="141" y="66"/>
      <point x="125" y="49"/>
      <point x="104" y="49" type="curve" smooth="yes"/>
      <point x="84" y="49"/>
      <point x="67" y="66"/>
      <point x="67" y="86" type="curve" smooth="yes"/>
      <point x="67" y="106"/>
      <point x="84" y="123"/>
      <point x="104" y="123" type="curve" smooth="yes"/>
      <point x="125" y="123"/>
      <point x="141" y="106"/>
      <point x="141" y="86" type="curve"/>
    </contour>
  </outline>
</glyph>
<glyph name="uniE297" format="2">
  <advance width="0"/>
  <unicode hex="E297"/>
  <key>note</key>
  <string>saxophoneRHLowEFlatClosed</string>
  <outline>
    <contour>
      <point x="60" y="19" type="line"/>
      <point x="26" y="56" type="line"/>
      <point x="31" y="60"/>
      <point x="37" y="62"/>
      <point x="43" y="62" type="curve" smooth="yes"/>
      <point x="50" y="62"/>
      <point x="57" y="59"/>
      <point x="62" y="54" type="curve" smooth="yes"/>
      <point x="66" y="49"/>
      <point x="68" y="44"/>
      <point x="68" y="38" type="curve" smooth="yes"/>
      <point x="68" y="31"/>
      <point x="65" y="24"/>
      <point x="60" y="19" type="curve"/>
    </contour>
  </outline>
</glyph>
<glyph name="uniE298" format="2">
  <advance width="0"/>
  <unicode hex="E298"/>
  <key>note</key>
  <string>saxophoneRHLowCClosed</string>
  <outline>
    <contour>
      <point x="18" y="48" type="line"/>
      <point x="51" y="11" type="line"/>
      <point x="46" y="7"/>
      <point x="41" y="5"/>
      <point x="35" y="5" type="curve" smooth="yes"/>
      <point x="28" y="5"/>
      <point x="21" y="8"/>
      <point x="16" y="13" type="curve" smooth="yes"/>
      <point x="11" y="18"/>
      <point x="9" y="24"/>
      <point x="9" y="30" type="curve" smooth="yes"/>
      <point x="9" y="37"/>
      <point x="12" y="43"/>
      <point x="18" y="48" type="curve"/>
    </contour>
  </outline>
</glyph>
<glyph name="uniE299" format="2">
  <advance width="0"/>
  <unicode hex="E299"/>
  <key>note</key>
  <string>saxophoneBaritoneLHLowAClosed</string>
  <outline>
    <contour>
      <point x="49" y="879" type="line"/>
      <point x="51" y="878"/>
      <point x="53" y="874"/>
      <point x="53" y="872" type="curve" smooth="yes"/>
      <point x="53" y="869"/>
      <point x="51" y="855"/>
      <point x="44" y="855" type="curve" smooth="yes"/>
      <point x="38" y="855"/>
      <point x="17" y="855"/>
      <point x="17" y="855" type="curve" smooth="yes"/>
      <point x="11" y="855"/>
      <point x="4" y="859"/>
      <point x="4" y="867" type="curve" smooth="yes"/>
      <point x="4" y="869"/>
      <point x="7" y="891"/>
      <point x="13" y="891" type="curve" smooth="yes"/>
      <point x="13" y="891"/>
      <point x="14" y="891"/>
      <point x="49" y="879" type="curve"/>
    </contour>
  </outline>
</glyph>
<glyph name="uniE29A" format="2">
  <advance width="0"/>
  <unicode hex="E29A"/>
  <key>note</key>
  <string>saxophoneLH1stFingerHalfClosed</string>
  <outline>
    <contour>
      <point x="104" y="841" type="line"/>
      <point x="84" y="841"/>
      <point x="67" y="824"/>
      <point x="67" y="804" type="curve"/>
      <point x="141" y="804" type="line"/>
      <point x="141" y="824"/>
      <point x="125" y="841"/>
      <point x="104" y="841" type="curve"/>
    </contour>
  </outline>
</glyph>
<glyph name="uniE29B" format="2">
  <advance width="0"/>
  <unicode hex="E29B"/>
  <key>note</key>
  <string>saxophoneLH2ndFingerHalfClosed</string>
  <outline>
    <contour>
      <point x="104" y="692" type="line"/>
      <point x="84" y="692"/>
      <point x="67" y="675"/>
      <point x="67" y="655" type="curve"/>
      <point x="141" y="655" type="line"/>
      <point x="141" y="675"/>
      <point x="125" y="692"/>
      <point x="104" y="692" type="curve"/>
    </contour>
  </outline>
</glyph>
<glyph name="uniE29C" format="2">
  <advance width="0"/>
  <unicode hex="E29C"/>
  <key>note</key>
  <string>saxophoneLH3rdFingerHalfClosed</string>
  <outline>
    <contour>
      <point x="104" y="590" type="line"/>
      <point x="84" y="590"/>
      <point x="67" y="573"/>
      <point x="67" y="553" type="curve"/>
      <point x="141" y="553" type="line"/>
      <point x="141" y="573"/>
      <point x="125" y="590"/>
      <point x="104" y="590" type="curve"/>
    </contour>
  </outline>
</glyph>
<glyph name="uniE29D" format="2">
  <advance width="0"/>
  <unicode hex="E29D"/>
  <key>note</key>
  <string>saxophoneRH1stFingerHalfClosed</string>
  <outline>
    <contour>
      <point x="104" y="328" type="line"/>
      <point x="84" y="328"/>
      <point x="67" y="311"/>
      <point x="67" y="291" type="curve"/>
      <point x="141" y="291" type="line"/>
      <point x="141" y="311"/>
      <point x="125" y="328"/>
      <point x="104" y="328" type="curve"/>
    </contour>
  </outline>
</glyph>
<glyph name="uniE29E" format="2">
  <advance width="0"/>
  <unicode hex="E29E"/>
  <key>note</key>
  <string>saxophoneRH2ndFingerHalfClosed</string>
  <outline>
    <contour>
      <point x="104" y="226" type="line"/>
      <point x="84" y="226"/>
      <point x="67" y="209"/>
      <point x="67" y="189" type="curve"/>
      <point x="141" y="189" type="line"/>
      <point x="141" y="209"/>
      <point x="125" y="226"/>
      <point x="104" y="226" type="curve"/>
    </contour>
  </outline>
</glyph>
<glyph name="uniE29F" format="2">
  <advance width="0"/>
  <unicode hex="E29F"/>
  <key>note</key>
  <string>saxophoneRH3rdFingerHalfClosed</string>
  <outline>
    <contour>
      <point x="104" y="123" type="line"/>
      <point x="84" y="123"/>
      <point x="67" y="106"/>
      <point x="67" y="86" type="curve"/>
      <point x="141" y="86" type="line"/>
      <point x="141" y="106"/>
      <point x="125" y="123"/>
      <point x="104" y="123" type="curve"/>
    </contour>
  </outline>
</glyph>
<glyph name="uniE2A1" format="2">
  <advance width="0"/>
  <unicode hex="E2A1"/>
  <key>note</key>
  <string>saxophoneLHFrontFTrill</string>
  <outline>
    <contour>
      <point x="93" y="875" type="line"/>
      <point x="89" y="875" type="line"/>
      <point x="89" y="916" type="line"/>
      <point x="93" y="916" type="line"/>
    </contour>
    <contour>
      <point x="108" y="870" type="line"/>
      <point x="104" y="870" type="line"/>
      <point x="104" y="919" type="line"/>
      <point x="108" y="919" type="line"/>
    </contour>
    <contour>
      <point x="122" y="874" type="line"/>
      <point x="118" y="874" type="line"/>
      <point x="118" y="914" type="line"/>
      <point x="122" y="914" type="line"/>
    </contour>
  </outline>
</glyph>
<glyph name="uniE2A2" format="2">
  <advance width="0"/>
  <unicode hex="E2A2"/>
  <key>note</key>
  <string>saxophoneLH1stFingerTrill</string>
  <outline>
    <contour>
      <point x="84" y="773" type="line"/>
      <point x="80" y="773" type="line"/>
      <point x="80" y="833" type="line"/>
      <point x="84" y="833" type="line"/>
    </contour>
    <contour>
      <point x="99" y="766" type="line"/>
      <point x="95" y="766" type="line"/>
      <point x="95" y="840" type="line"/>
      <point x="99" y="840" type="line"/>
    </contour>
    <contour>
      <point x="114" y="767" type="line"/>
      <point x="110" y="767" type="line"/>
      <point x="110" y="840" type="line"/>
      <point x="114" y="840" type="line"/>
    </contour>
    <contour>
      <point x="129" y="774" type="line"/>
      <point x="125" y="774" type="line"/>
      <point x="125" y="833" type="line"/>
      <point x="129" y="833" type="line"/>
    </contour>
  </outline>
</glyph>
<glyph name="uniE2A4" format="2">
  <advance width="0"/>
  <unicode hex="E2A4"/>
  <key>note</key>
  <string>saxophoneLH2ndFingerTrill</string>
  <outline>
    <contour>
      <point x="84" y="624" type="line"/>
      <point x="80" y="624" type="line"/>
      <point x="80" y="684" type="line"/>
      <point x="84" y="684" type="line"/>
    </contour>
    <contour>
      <point x="99" y="617" type="line"/>
      <point x="95" y="617" type="line"/>
      <point x="95" y="691" type="line"/>
      <point x="99" y="691" type="line"/>
    </contour>
    <contour>
      <point x="114" y="618" type="line"/>
      <point x="110" y="618" type="line"/>
      <point x="110" y="691" type="line"/>
      <point x="114" y="691" type="line"/>
    </contour>
    <contour>
      <point x="129" y="625" type="line"/>
      <point x="125" y="625" type="line"/>
      <point x="125" y="684" type="line"/>
      <point x="129" y="684" type="line"/>
    </contour>
  </outline>
</glyph>
<glyph name="uniE2A6" format="2">
  <advance width="0"/>
  <unicode hex="E2A6"/>
  <key>note</key>
  <string>saxophoneLHEFlatPalmTrill</string>
  <outline>
    <contour>
      <point x="178" y="919" type="line"/>
      <point x="174" y="919" type="line"/>
      <point x="174" y="967" type="line"/>
      <point x="178" y="967" type="line"/>
    </contour>
  </outline>
</glyph>
<glyph name="uniE2A8" format="2">
  <advance width="0"/>
  <unicode hex="E2A8"/>
  <key>note</key>
  <string>saxophoneLHFPalmTrill</string>
  <outline>
    <contour>
      <point x="166" y="835" type="line"/>
      <point x="162" y="835" type="line"/>
      <point x="162" y="884" type="line"/>
      <point x="166" y="884" type="line"/>
    </contour>
  </outline>
</glyph>
<glyph name="uniE2AA" format="2">
  <advance width="0"/>
  <unicode hex="E2AA"/>
  <key>note</key>
  <string>saxophoneLHLowCSharpTrill</string>
  <outline>
    <contour>
      <point x="175" y="419" type="line"/>
      <point x="171" y="419" type="line"/>
      <point x="171" y="456" type="line"/>
      <point x="175" y="456" type="line"/>
    </contour>
  </outline>
</glyph>
<glyph name="uniE2AB" format="2">
  <advance width="0"/>
  <unicode hex="E2AB"/>
  <key>note</key>
  <string>saxophoneLHLowBTrill</string>
  <outline>
    <contour>
      <point x="138" y="419" type="line"/>
      <point x="134" y="419" type="line"/>
      <point x="134" y="456" type="line"/>
      <point x="138" y="456" type="line"/>
    </contour>
  </outline>
</glyph>
<glyph name="uniE2AC" format="2">
  <advance width="0"/>
  <unicode hex="E2AC"/>
  <key>note</key>
  <string>saxophoneLHLowBFlatTrill</string>
  <outline>
    <contour>
      <point x="170" y="379" type="line"/>
      <point x="166" y="379" type="line"/>
      <point x="166" y="408" type="line"/>
      <point x="170" y="408" type="line"/>
    </contour>
    <contour>
      <point x="156" y="378" type="line"/>
      <point x="152" y="378" type="line"/>
      <point x="152" y="408" type="line"/>
      <point x="156" y="408" type="line"/>
    </contour>
    <contour>
      <point x="141" y="379" type="line"/>
      <point x="137" y="379" type="line"/>
      <point x="137" y="408" type="line"/>
      <point x="141" y="408" type="line"/>
    </contour>
  </outline>
</glyph>
<glyph name="uniE2AD" format="2">
  <advance width="0"/>
  <unicode hex="E2AD"/>
  <key>note</key>
  <string>saxophoneRHESideTrill</string>
  <outline>
    <contour>
      <point x="18" y="316" type="line"/>
      <point x="14" y="316" type="line"/>
      <point x="14" y="365" type="line"/>
      <point x="18" y="365" type="line"/>
    </contour>
  </outline>
</glyph>
<glyph name="uniE2AE" format="2">
  <advance width="0"/>
  <unicode hex="E2AE"/>
  <key>note</key>
  <string>saxophoneRHCSideTrill</string>
  <outline>
    <contour>
      <point x="18" y="257" type="line"/>
      <point x="14" y="257" type="line"/>
      <point x="14" y="306" type="line"/>
      <point x="18" y="306" type="line"/>
    </contour>
  </outline>
</glyph>
<glyph name="uniE2AF" format="2">
  <advance width="0"/>
  <unicode hex="E2AF"/>
  <key>note</key>
  <string>saxophoneRHBFlatSideTrill</string>
  <outline>
    <contour>
      <point x="18" y="199" type="line"/>
      <point x="14" y="199" type="line"/>
      <point x="14" y="248" type="line"/>
      <point x="18" y="248" type="line"/>
    </contour>
  </outline>
</glyph>
<glyph name="uniE2B0" format="2">
  <advance width="0"/>
  <unicode hex="E2B0"/>
  <key>note</key>
  <string>saxophoneRHHighFSharpTrill</string>
  <outline>
    <contour>
      <point x="50" y="201" type="line"/>
      <point x="46" y="201" type="line"/>
      <point x="46" y="277" type="line"/>
      <point x="50" y="277" type="line"/>
    </contour>
  </outline>
</glyph>
<glyph name="uniE2B3" format="2">
  <advance width="0"/>
  <unicode hex="E2B3"/>
  <key>note</key>
  <string>saxophoneRHFSharpAlternateTrill</string>
  <outline>
    <contour>
      <point x="55" y="115" type="line"/>
      <point x="51" y="115" type="line"/>
      <point x="51" y="157" type="line"/>
      <point x="55" y="157" type="line"/>
    </contour>
  </outline>
</glyph>
<glyph name="uniE2B5" format="2">
  <advance width="0"/>
  <unicode hex="E2B5"/>
  <key>note</key>
  <string>saxophoneRHLowEFlatTrill</string>
  <outline>
    <contour>
      <point x="43" y="37" type="line"/>
      <point x="39" y="37" type="line"/>
      <point x="39" y="61" type="line"/>
      <point x="43" y="61" type="line"/>
    </contour>
    <contour>
      <point x="58" y="24" type="line"/>
      <point x="54" y="24" type="line"/>
      <point x="54" y="61" type="line"/>
      <point x="58" y="61" type="line"/>
    </contour>
  </outline>
</glyph>
<glyph name="uniE320" format="2">
  <advance width="0"/>
  <unicode hex="E320"/>
  <key>note</key>
  <string>recorderChart</string>
  <outline>
    <contour>
      <point x="250" y="423" type="curve" smooth="yes"/>
      <point x="213" y="423"/>
      <point x="183" y="453"/>
      <point x="183" y="490" type="curve" smooth="yes"/>
      <point x="183" y="526"/>
      <point x="213" y="556"/>
      <point x="250" y="556" type="curve" smooth="yes"/>
      <point x="287" y="556"/>
      <point x="317" y="526"/>
      <point x="317" y="490" type="curve" smooth="yes"/>
      <point x="317" y="453"/>
      <point x="287" y="423"/>
    </contour>
    <contour>
      <point x="250" y="546" type="curve" smooth="yes"/>
      <point x="219" y="546"/>
      <point x="193" y="521"/>
      <point x="193" y="490" type="curve" smooth="yes"/>
      <point x="193" y="458"/>
      <point x="219" y="433"/>
      <point x="250" y="433" type="curve" smooth="yes"/>
      <point x="281" y="433"/>
      <point x="307" y="458"/>
      <point x="307" y="490" type="curve" smooth="yes"/>
      <point x="307" y="521"/>
      <point x="281" y="546"/>
    </contour>
    <contour>
      <point x="250" y="952" type="curve" smooth="yes"/>
      <point x="213" y="952"/>
      <point x="183" y="982"/>
      <point x="183" y="1019" type="curve" smooth="yes"/>
      <point x="183" y="1056"/>
      <point x="213" y="1085"/>
      <point x="250" y="1085" type="curve" smooth="yes"/>
      <point x="287" y="1085"/>
      <point x="317" y="1056"/>
      <point x="317" y="1019" type="curve" smooth="yes"/>
      <point x="317" y="982"/>
      <point x="287" y="952"/>
    </contour>
    <contour>
      <point x="250" y="1075" type="curve" smooth="yes"/>
      <point x="219" y="1075"/>
      <point x="193" y="1050"/>
      <point x="193" y="1019" type="curve" smooth="yes"/>
      <point x="193" y="988"/>
      <point x="219" y="962"/>
      <point x="250" y="962" type="curve" smooth="yes"/>
      <point x="281" y="962"/>
      <point x="307" y="988"/>
      <point x="307" y="1019" type="curve" smooth="yes"/>
      <point x="307" y="1050"/>
      <point x="281" y="1075"/>
    </contour>
    <contour>
      <point x="67" y="952" type="curve" smooth="yes"/>
      <point x="30" y="952"/>
      <point x="0" y="982"/>
      <point x="0" y="1019" type="curve" smooth="yes"/>
      <point x="0" y="1056"/>
      <point x="30" y="1085"/>
      <point x="67" y="1085" type="curve" smooth="yes"/>
      <point x="103" y="1085"/>
      <point x="133" y="1056"/>
      <point x="133" y="1019" type="curve" smooth="yes"/>
      <point x="133" y="982"/>
      <point x="103" y="952"/>
    </contour>
    <contour>
      <point x="67" y="1075" type="curve" smooth="yes"/>
      <point x="35" y="1075"/>
      <point x="10" y="1050"/>
      <point x="10" y="1019" type="curve" smooth="yes"/>
      <point x="10" y="988"/>
      <point x="35" y="962"/>
      <point x="67" y="962" type="curve" smooth="yes"/>
      <point x="98" y="962"/>
      <point x="123" y="988"/>
      <point x="123" y="1019" type="curve" smooth="yes"/>
      <point x="123" y="1050"/>
      <point x="98" y="1075"/>
    </contour>
    <contour>
      <point x="250" y="789" type="curve" smooth="yes"/>
      <point x="213" y="789"/>
      <point x="183" y="818"/>
      <point x="183" y="855" type="curve" smooth="yes"/>
      <point x="183" y="892"/>
      <point x="213" y="922"/>
      <point x="250" y="922" type="curve" smooth="yes"/>
      <point x="287" y="922"/>
      <point x="317" y="892"/>
      <point x="317" y="855" type="curve" smooth="yes"/>
      <point x="317" y="818"/>
      <point x="287" y="789"/>
    </contour>
    <contour>
      <point x="250" y="912" type="curve" smooth="yes"/>
      <point x="219" y="912"/>
      <point x="193" y="886"/>
      <point x="193" y="855" type="curve" smooth="yes"/>
      <point x="193" y="824"/>
      <point x="219" y="799"/>
      <point x="250" y="799" type="curve" smooth="yes"/>
      <point x="281" y="799"/>
      <point x="307" y="824"/>
      <point x="307" y="855" type="curve" smooth="yes"/>
      <point x="307" y="886"/>
      <point x="281" y="912"/>
    </contour>
    <contour>
      <point x="250" y="626" type="curve" smooth="yes"/>
      <point x="213" y="626"/>
      <point x="183" y="656"/>
      <point x="183" y="693" type="curve" smooth="yes"/>
      <point x="183" y="729"/>
      <point x="213" y="759"/>
      <point x="250" y="759" type="curve" smooth="yes"/>
      <point x="287" y="759"/>
      <point x="317" y="729"/>
      <point x="317" y="693" type="curve" smooth="yes"/>
      <point x="317" y="656"/>
      <point x="287" y="626"/>
    </contour>
    <contour>
      <point x="250" y="749" type="curve" smooth="yes"/>
      <point x="219" y="749"/>
      <point x="193" y="724"/>
      <point x="193" y="693" type="curve" smooth="yes"/>
      <point x="193" y="661"/>
      <point x="219" y="636"/>
      <point x="250" y="636" type="curve" smooth="yes"/>
      <point x="281" y="636"/>
      <point x="307" y="661"/>
      <point x="307" y="693" type="curve" smooth="yes"/>
      <point x="307" y="724"/>
      <point x="281" y="749"/>
    </contour>
    <contour>
      <point x="250" y="260" type="curve" smooth="yes"/>
      <point x="213" y="260"/>
      <point x="183" y="290"/>
      <point x="183" y="327" type="curve" smooth="yes"/>
      <point x="183" y="363"/>
      <point x="213" y="393"/>
      <point x="250" y="393" type="curve" smooth="yes"/>
      <point x="287" y="393"/>
      <point x="317" y="363"/>
      <point x="317" y="327" type="curve" smooth="yes"/>
      <point x="317" y="290"/>
      <point x="287" y="260"/>
    </contour>
    <contour>
      <point x="250" y="383" type="curve" smooth="yes"/>
      <point x="219" y="383"/>
      <point x="193" y="358"/>
      <point x="193" y="327" type="curve" smooth="yes"/>
      <point x="193" y="295"/>
      <point x="219" y="270"/>
      <point x="250" y="270" type="curve" smooth="yes"/>
      <point x="281" y="270"/>
      <point x="307" y="295"/>
      <point x="307" y="327" type="curve" smooth="yes"/>
      <point x="307" y="358"/>
      <point x="281" y="383"/>
    </contour>
    <contour>
      <point x="193" y="125" type="curve" smooth="yes"/>
      <point x="167" y="125"/>
      <point x="145" y="146"/>
      <point x="145" y="173" type="curve" smooth="yes"/>
      <point x="145" y="199"/>
      <point x="167" y="220"/>
      <point x="193" y="220" type="curve" smooth="yes"/>
      <point x="219" y="220"/>
      <point x="241" y="199"/>
      <point x="241" y="173" type="curve" smooth="yes"/>
      <point x="241" y="146"/>
      <point x="219" y="125"/>
    </contour>
    <contour>
      <point x="193" y="210" type="curve" smooth="yes"/>
      <point x="172" y="210"/>
      <point x="155" y="193"/>
      <point x="155" y="173" type="curve" smooth="yes"/>
      <point x="155" y="152"/>
      <point x="172" y="135"/>
      <point x="193" y="135" type="curve" smooth="yes"/>
      <point x="214" y="135"/>
      <point x="231" y="152"/>
      <point x="231" y="173" type="curve" smooth="yes"/>
      <point x="231" y="193"/>
      <point x="214" y="210"/>
    </contour>
    <contour>
      <point x="308" y="125" type="curve" smooth="yes"/>
      <point x="282" y="125"/>
      <point x="261" y="146"/>
      <point x="261" y="173" type="curve" smooth="yes"/>
      <point x="261" y="199"/>
      <point x="282" y="220"/>
      <point x="308" y="220" type="curve" smooth="yes"/>
      <point x="334" y="220"/>
      <point x="356" y="199"/>
      <point x="356" y="173" type="curve" smooth="yes"/>
      <point x="356" y="146"/>
      <point x="334" y="125"/>
    </contour>
    <contour>
      <point x="308" y="210" type="curve" smooth="yes"/>
      <point x="288" y="210"/>
      <point x="271" y="193"/>
      <point x="271" y="173" type="curve" smooth="yes"/>
      <point x="271" y="152"/>
      <point x="288" y="135"/>
      <point x="308" y="135" type="curve" smooth="yes"/>
      <point x="329" y="135"/>
      <point x="346" y="152"/>
      <point x="346" y="173" type="curve" smooth="yes"/>
      <point x="346" y="193"/>
      <point x="329" y="210"/>
    </contour>
    <contour>
      <point x="193" y="0" type="curve" smooth="yes"/>
      <point x="167" y="0"/>
      <point x="145" y="21"/>
      <point x="145" y="48" type="curve" smooth="yes"/>
      <point x="145" y="74"/>
      <point x="167" y="95"/>
      <point x="193" y="95" type="curve" smooth="yes"/>
      <point x="219" y="95"/>
      <point x="241" y="74"/>
      <point x="241" y="48" type="curve" smooth="yes"/>
      <point x="241" y="21"/>
      <point x="219" y="0"/>
    </contour>
    <contour>
      <point x="193" y="85" type="curve" smooth="yes"/>
      <point x="172" y="85"/>
      <point x="155" y="68"/>
      <point x="155" y="48" type="curve" smooth="yes"/>
      <point x="155" y="27"/>
      <point x="172" y="10"/>
      <point x="193" y="10" type="curve" smooth="yes"/>
      <point x="214" y="10"/>
      <point x="231" y="27"/>
      <point x="231" y="48" type="curve" smooth="yes"/>
      <point x="231" y="68"/>
      <point x="214" y="85"/>
    </contour>
    <contour>
      <point x="308" y="0" type="curve" smooth="yes"/>
      <point x="282" y="0"/>
      <point x="261" y="21"/>
      <point x="261" y="48" type="curve" smooth="yes"/>
      <point x="261" y="74"/>
      <point x="282" y="95"/>
      <point x="308" y="95" type="curve" smooth="yes"/>
      <point x="334" y="95"/>
      <point x="356" y="74"/>
      <point x="356" y="48" type="curve" smooth="yes"/>
      <point x="356" y="21"/>
      <point x="334" y="0"/>
    </contour>
    <contour>
      <point x="308" y="85" type="curve" smooth="yes"/>
      <point x="288" y="85"/>
      <point x="271" y="68"/>
      <point x="271" y="48" type="curve" smooth="yes"/>
      <point x="271" y="27"/>
      <point x="288" y="10"/>
      <point x="308" y="10" type="curve" smooth="yes"/>
      <point x="329" y="10"/>
      <point x="346" y="27"/>
      <point x="346" y="48" type="curve" smooth="yes"/>
      <point x="346" y="68"/>
      <point x="329" y="85"/>
    </contour>
    <contour>
      <point x="384" y="586" type="curve" smooth="yes"/>
      <point x="112" y="586" type="line" smooth="yes"/>
      <point x="109" y="586"/>
      <point x="107" y="588"/>
      <point x="107" y="591" type="curve" smooth="yes"/>
      <point x="107" y="594"/>
      <point x="109" y="596"/>
      <point x="112" y="596" type="curve" smooth="yes"/>
      <point x="384" y="596" type="line" smooth="yes"/>
      <point x="387" y="596"/>
      <point x="389" y="594"/>
      <point x="389" y="591" type="curve" smooth="yes"/>
      <point x="389" y="588"/>
      <point x="387" y="586"/>
    </contour>
  </outline>
</glyph>
<glyph name="uniE321" format="2">
  <advance width="0"/>
  <unicode hex="E321"/>
  <key>note</key>
  <string>recorderLHThumbClosed</string>
  <outline>
    <contour>
      <point x="128" y="1019" type="curve" smooth="yes"/>
      <point x="128" y="985"/>
      <point x="101" y="957"/>
      <point x="67" y="957" type="curve" smooth="yes"/>
      <point x="33" y="957"/>
      <point x="5" y="985"/>
      <point x="5" y="1019" type="curve" smooth="yes"/>
      <point x="5" y="1053"/>
      <point x="33" y="1080"/>
      <point x="67" y="1080" type="curve" smooth="yes"/>
      <point x="101" y="1080"/>
      <point x="128" y="1053"/>
    </contour>
  </outline>
</glyph>
<glyph name="uniE322" format="2">
  <advance width="0"/>
  <unicode hex="E322"/>
  <key>note</key>
  <string>recorderLH1stFingerClosed</string>
  <outline>
    <contour>
      <point x="312" y="1019" type="curve" smooth="yes"/>
      <point x="312" y="985"/>
      <point x="284" y="957"/>
      <point x="250" y="957" type="curve" smooth="yes"/>
      <point x="216" y="957"/>
      <point x="188" y="985"/>
      <point x="188" y="1019" type="curve" smooth="yes"/>
      <point x="188" y="1053"/>
      <point x="216" y="1080"/>
      <point x="250" y="1080" type="curve" smooth="yes"/>
      <point x="284" y="1080"/>
      <point x="312" y="1053"/>
    </contour>
  </outline>
</glyph>
<glyph name="uniE323" format="2">
  <advance width="0"/>
  <unicode hex="E323"/>
  <key>note</key>
  <string>recorderLH2ndFingerClosed</string>
  <outline>
    <contour>
      <point x="312" y="855" type="curve" smooth="yes"/>
      <point x="312" y="821"/>
      <point x="284" y="794"/>
      <point x="250" y="794" type="curve" smooth="yes"/>
      <point x="216" y="794"/>
      <point x="188" y="821"/>
      <point x="188" y="855" type="curve" smooth="yes"/>
      <point x="188" y="889"/>
      <point x="216" y="917"/>
      <point x="250" y="917" type="curve" smooth="yes"/>
      <point x="284" y="917"/>
      <point x="312" y="889"/>
    </contour>
  </outline>
</glyph>
<glyph name="uniE324" format="2">
  <advance width="0"/>
  <unicode hex="E324"/>
  <key>note</key>
  <string>recorderLH3rdFingerClosed</string>
  <outline>
    <contour>
      <point x="312" y="693" type="curve" smooth="yes"/>
      <point x="312" y="659"/>
      <point x="284" y="631"/>
      <point x="250" y="631" type="curve" smooth="yes"/>
      <point x="216" y="631"/>
      <point x="188" y="659"/>
      <point x="188" y="693" type="curve" smooth="yes"/>
      <point x="188" y="727"/>
      <point x="216" y="754"/>
      <point x="250" y="754" type="curve" smooth="yes"/>
      <point x="284" y="754"/>
      <point x="312" y="727"/>
    </contour>
  </outline>
</glyph>
<glyph name="uniE325" format="2">
  <advance width="0"/>
  <unicode hex="E325"/>
  <key>note</key>
  <string>recorderRH1stFingerClosed</string>
  <outline>
    <contour>
      <point x="312" y="490" type="curve" smooth="yes"/>
      <point x="312" y="456"/>
      <point x="284" y="428"/>
      <point x="250" y="428" type="curve" smooth="yes"/>
      <point x="216" y="428"/>
      <point x="188" y="456"/>
      <point x="188" y="490" type="curve" smooth="yes"/>
      <point x="188" y="524"/>
      <point x="216" y="551"/>
      <point x="250" y="551" type="curve" smooth="yes"/>
      <point x="284" y="551"/>
      <point x="312" y="524"/>
    </contour>
  </outline>
</glyph>
<glyph name="uniE326" format="2">
  <advance width="0"/>
  <unicode hex="E326"/>
  <outline>
    <contour>
      <point x="312" y="327" type="curve" smooth="yes"/>
      <point x="312" y="293"/>
      <point x="284" y="265"/>
      <point x="250" y="265" type="curve" smooth="yes"/>
      <point x="216" y="265"/>
      <point x="188" y="293"/>
      <point x="188" y="327" type="curve" smooth="yes"/>
      <point x="188" y="361"/>
      <point x="216" y="388"/>
      <point x="250" y="388" type="curve" smooth="yes"/>
      <point x="284" y="388"/>
      <point x="312" y="361"/>
    </contour>
  </outline>
</glyph>
<glyph name="uniE327" format="2">
  <advance width="0"/>
  <unicode hex="E327"/>
  <key>note</key>
  <string>recorderRH1stDoubleHoleLeftClosed</string>
  <outline>
    <contour>
      <point x="236" y="172" type="curve" smooth="yes"/>
      <point x="236" y="148"/>
      <point x="216" y="129"/>
      <point x="193" y="129" type="curve" smooth="yes"/>
      <point x="169" y="129"/>
      <point x="150" y="148"/>
      <point x="150" y="172" type="curve" smooth="yes"/>
      <point x="150" y="195"/>
      <point x="169" y="214"/>
      <point x="193" y="214" type="curve" smooth="yes"/>
      <point x="216" y="214"/>
      <point x="236" y="195"/>
    </contour>
  </outline>
</glyph>
<glyph name="uniE328" format="2">
  <advance width="0"/>
  <unicode hex="E328"/>
  <key>note</key>
  <string>recorderRH1stDoubleHoleRightClosed</string>
  <outline>
    <contour>
      <point x="351" y="172" type="curve" smooth="yes"/>
      <point x="351" y="148"/>
      <point x="332" y="129"/>
      <point x="308" y="129" type="curve" smooth="yes"/>
      <point x="285" y="129"/>
      <point x="266" y="148"/>
      <point x="266" y="172" type="curve" smooth="yes"/>
      <point x="266" y="195"/>
      <point x="285" y="214"/>
      <point x="308" y="214" type="curve" smooth="yes"/>
      <point x="332" y="214"/>
      <point x="351" y="195"/>
    </contour>
  </outline>
</glyph>
<glyph name="uniE329" format="2">
  <advance width="0"/>
  <unicode hex="E329"/>
  <key>note</key>
  <string>recorderRH2ndDoubleHoleLeftClosed</string>
  <outline>
    <contour>
      <point x="236" y="48" type="curve" smooth="yes"/>
      <point x="236" y="24"/>
      <point x="216" y="5"/>
      <point x="193" y="5" type="curve" smooth="yes"/>
      <point x="169" y="5"/>
      <point x="150" y="24"/>
      <point x="150" y="48" type="curve" smooth="yes"/>
      <point x="150" y="71"/>
      <point x="169" y="90"/>
      <point x="193" y="90" type="curve" smooth="yes"/>
      <point x="216" y="90"/>
      <point x="236" y="71"/>
    </contour>
  </outline>
</glyph>
<glyph name="uniE32A" format="2">
  <advance width="0"/>
  <unicode hex="E32A"/>
  <key>note</key>
  <string>recorderRH2ndDoubleHoleRightClosed</string>
  <outline>
    <contour>
      <point x="351" y="48" type="curve" smooth="yes"/>
      <point x="351" y="24"/>
      <point x="332" y="5"/>
      <point x="308" y="5" type="curve" smooth="yes"/>
      <point x="285" y="5"/>
      <point x="266" y="24"/>
      <point x="266" y="48" type="curve" smooth="yes"/>
      <point x="266" y="71"/>
      <point x="285" y="90"/>
      <point x="308" y="90" type="curve" smooth="yes"/>
      <point x="332" y="90"/>
      <point x="351" y="71"/>
    </contour>
  </outline>
</glyph>
<glyph name="uniE32B" format="2">
  <advance width="0"/>
  <unicode hex="E32B"/>
  <key>note</key>
  <string>recorderBellKeyClosed</string>
  <outline>
    <contour>
      <point x="322" y="-74" type="curve" smooth="yes"/>
      <point x="322" y="-104"/>
      <point x="284" y="-126"/>
      <point x="250" y="-126" type="curve" smooth="yes"/>
      <point x="216" y="-126"/>
      <point x="178" y="-104"/>
      <point x="178" y="-74" type="curve" smooth="yes"/>
      <point x="178" y="-44"/>
      <point x="216" y="-22"/>
      <point x="250" y="-22" type="curve" smooth="yes"/>
      <point x="284" y="-22"/>
      <point x="322" y="-44"/>
    </contour>
  </outline>
</glyph>
<glyph name="uniE32C" format="2">
  <advance width="0"/>
  <unicode hex="E32C"/>
  <key>note</key>
  <string>recorderLHThumbHalfClosedLeft</string>
  <outline>
    <contour>
      <point x="67" y="1080" type="curve"/>
      <point x="67" y="957" type="line"/>
      <point x="33" y="957"/>
      <point x="5" y="985"/>
      <point x="5" y="1019" type="curve" smooth="yes"/>
      <point x="5" y="1053"/>
      <point x="33" y="1080"/>
    </contour>
  </outline>
</glyph>
<glyph name="uniE32D" format="2">
  <advance width="0"/>
  <unicode hex="E32D"/>
  <key>note</key>
  <string>recorderLH1stFingerHalfClosedLeft</string>
  <outline>
    <contour>
      <point x="250" y="1080" type="curve"/>
      <point x="250" y="957" type="line"/>
      <point x="216" y="957"/>
      <point x="188" y="985"/>
      <point x="188" y="1019" type="curve" smooth="yes"/>
      <point x="188" y="1053"/>
      <point x="216" y="1080"/>
    </contour>
  </outline>
</glyph>
